<?xml version="1.0" standalone="no"?>
<!DOCTYPE svg PUBLIC "-//W3C//DTD SVG 20010904//EN"
 "http://www.w3.org/TR/2001/REC-SVG-20010904/DTD/svg10.dtd">
<svg version="1.0" xmlns="http://www.w3.org/2000/svg"
 width="500.000000pt" height="500.000000pt" viewBox="0 0 500.000000 500.000000"
 preserveAspectRatio="xMidYMid meet">
<metadata>
Created by potrace 1.14, written by Peter Selinger 2001-2017
</metadata>
<g transform="translate(0.000000,500.000000) scale(0.100000,-0.100000)"
fill="#fff" stroke="none">
<path d="M2763 4909 c-18 -12 -33 -25 -33 -29 0 -5 -17 -9 -38 -8 -48 0 -83
-17 -76 -37 4 -11 -1 -15 -17 -15 -12 0 -52 -5 -88 -11 -63 -11 -69 -14 -129
-78 -68 -70 -90 -101 -72 -101 5 0 10 4 10 10 0 12 98 110 111 110 6 0 1 -12
-11 -27 -19 -25 -20 -28 -5 -31 27 -6 15 -46 -15 -47 -14 0 -34 -6 -45 -13
-19 -12 -18 -13 7 -8 37 8 43 -8 10 -24 -57 -29 -111 -66 -119 -81 -4 -10 -28
-40 -53 -69 -25 -29 -57 -66 -72 -83 -46 -53 -50 -127 -8 -127 25 0 25 -1 1
-42 -20 -36 -34 -118 -20 -118 5 0 9 4 9 9 0 6 9 9 20 8 18 -1 20 -8 20 -59 0
-32 4 -58 10 -58 6 0 10 -8 10 -17 0 -15 -2 -16 -10 -3 -5 8 -10 10 -10 4 0
-13 33 -44 47 -44 5 0 15 -15 21 -32 5 -18 10 -25 11 -16 1 15 5 16 27 8 16
-7 23 -7 19 0 -3 6 -13 10 -21 10 -17 0 -17 6 0 105 19 107 43 174 72 206 13
14 24 33 24 42 0 10 5 14 15 11 15 -6 22 11 8 19 -5 2 -3 2 4 1 7 -2 15 1 19
7 3 6 12 8 19 6 8 -4 12 4 12 21 1 43 7 72 15 72 4 0 8 -9 8 -20 0 -12 7 -20
18 -20 14 0 15 2 2 10 -10 6 -11 10 -2 10 14 0 52 36 52 50 0 6 5 10 12 10 6
0 27 12 45 26 25 19 38 23 46 15 7 -7 14 -7 24 1 18 15 29 2 14 -16 -14 -16
-6 -40 10 -30 5 3 7 9 4 14 -11 18 29 19 55 0 15 -11 30 -17 32 -14 3 2 36 0
73 -6 64 -10 70 -9 89 10 l20 20 -24 1 c-14 0 -20 3 -13 5 6 3 33 -2 58 -10
45 -16 80 -11 74 10 -1 5 6 10 17 12 14 2 16 1 6 -6 -17 -12 12 -22 81 -29 36
-3 47 -1 45 9 -2 8 4 12 15 10 9 -2 17 1 17 7 0 14 61 34 99 31 20 -1 31 2 27
8 -3 6 -2 13 4 17 5 3 10 1 10 -5 0 -6 13 -2 30 10 16 12 35 18 41 14 8 -4 9
-3 5 5 -5 7 -16 9 -28 5 -15 -4 -18 -3 -13 6 4 7 -4 4 -19 -5 -18 -12 -36 -15
-61 -11 -23 5 -35 3 -35 -4 0 -6 -5 -8 -10 -5 -6 4 -8 11 -4 16 3 6 -11 1 -32
-10 -21 -12 -47 -21 -57 -21 -10 0 -15 -4 -12 -10 3 -5 1 -10 -4 -10 -6 0 -11
-7 -11 -17 0 -14 -2 -15 -17 -1 -18 15 -40 16 -133 4 -31 -4 -40 -3 -30 4 13
8 13 10 -2 10 -9 0 -24 3 -32 6 -12 5 -15 2 -10 -10 8 -22 -12 -20 -25 2 -9
15 -12 15 -21 2 -6 -8 -8 -23 -6 -32 5 -22 -3 -23 -31 -3 -16 11 -24 12 -29 3
-5 -8 -15 -2 -32 18 -13 16 -22 24 -19 18 4 -6 0 -11 -7 -11 -8 0 -12 6 -9 14
3 7 0 13 -6 13 -5 0 -26 14 -44 30 -19 17 -39 30 -45 30 -5 0 -15 7 -22 15 -7
8 -16 15 -21 15 -11 0 -12 -27 -1 -33 4 -2 0 -2 -8 0 -45 13 -80 15 -80 4 0
-6 -12 -12 -27 -12 -20 -1 -22 -3 -9 -6 10 -3 29 1 42 7 28 16 53 7 50 -17 -3
-13 -11 -17 -32 -15 -16 1 -24 -1 -19 -5 6 -4 12 -21 13 -36 3 -26 1 -27 -25
-22 -15 3 -22 2 -15 -1 6 -3 9 -10 6 -15 -3 -6 -12 -5 -22 3 -13 11 -15 11
-10 -3 4 -10 -4 -19 -26 -29 -48 -20 -60 -31 -44 -41 9 -6 5 -9 -11 -9 -34 0
-94 -67 -136 -150 -19 -38 -35 -76 -35 -85 0 -19 -14 -19 -29 -1 -12 15 8 72
38 109 13 15 12 17 -5 18 -11 0 -13 3 -6 6 6 2 9 10 5 16 -3 7 -2 9 2 4 12
-10 55 33 55 56 0 13 5 17 15 14 17 -7 30 9 14 18 -5 4 -8 14 -4 22 3 9 -1 26
-10 39 -11 17 -12 25 -3 30 6 4 8 3 4 -4 -3 -6 -1 -14 5 -17 6 -4 13 2 16 13
5 21 50 37 93 33 23 -2 24 -1 7 11 -21 16 -10 31 28 41 18 4 17 5 -3 6 -31 1
-18 21 14 21 14 0 22 4 19 10 -3 6 4 10 17 11 13 0 17 3 10 6 -23 9 -103 -7
-96 -19 4 -7 2 -8 -5 -4 -14 9 -5 26 13 26 8 0 19 7 26 15 14 17 45 21 35 5
-3 -5 3 -10 14 -10 12 0 21 5 21 11 0 5 -5 7 -12 3 -6 -4 -8 -3 -5 3 10 15 91
5 152 -18 64 -24 66 -24 27 4 -17 13 -29 27 -25 31 4 4 0 4 -9 1 -9 -4 -19 -1
-24 6 -5 8 -3 10 6 4 9 -5 11 -4 6 4 -4 6 -13 8 -19 4 -24 -15 -40 -11 -69 16
-23 21 -27 30 -18 36 9 6 11 4 5 -6 -7 -11 -5 -11 10 1 10 8 16 10 12 3 -4 -6
-2 -15 4 -19 8 -4 9 -3 5 4 -4 7 -2 12 5 12 8 0 6 6 -4 18 -16 18 -14 32 6 32
5 0 7 -7 3 -15 -3 -8 -1 -15 4 -15 6 0 10 5 10 11 0 7 10 5 25 -5 22 -14 25
-15 25 -1 0 8 -5 15 -12 15 -8 0 -9 3 -2 10 7 7 23 0 49 -25 22 -19 43 -35 49
-35 5 0 -8 16 -30 36 l-39 35 30 -5 30 -5 -31 14 c-17 8 -34 23 -37 35 -4 15
-2 19 6 12 19 -14 107 -33 119 -26 7 5 8 2 3 -5 -5 -9 -18 -11 -38 -7 -31 6
-31 6 11 -25 23 -17 42 -35 42 -40 0 -5 5 -9 11 -9 5 0 7 5 4 10 -4 6 -11 25
-15 43 -9 29 -8 30 5 13 8 -11 15 -15 15 -9 0 13 -35 45 -42 38 -3 -3 -8 4
-11 15 -4 17 -3 19 9 9 12 -9 13 -7 10 17 -2 16 -2 24 1 18 2 -6 14 -17 27
-24 13 -7 29 -23 36 -36 16 -29 32 -22 21 9 -8 20 -5 23 15 25 18 1 28 -6 39
-31 8 -17 12 -22 9 -9 -7 27 -54 102 -65 102 -4 0 -10 -6 -12 -12 -4 -10 -6
-10 -6 0 -1 6 -5 12 -11 12 -5 0 -7 -7 -4 -15 7 -18 0 -19 -27 -4 -11 5 -17
14 -14 20 4 5 11 7 16 3 5 -3 16 -1 22 5 13 10 57 12 54 1 -3 -10 81 -116 124
-154 24 -22 47 -47 51 -55 4 -9 7 -11 7 -4 1 7 8 10 18 6 12 -5 14 -3 8 7 -5
9 0 7 16 -3 13 -9 29 -17 36 -17 19 0 33 34 21 51 -8 11 -9 10 -4 -5 5 -14 2
-17 -10 -12 -14 5 -15 4 -4 -9 19 -23 -3 -18 -29 6 l-22 21 20 15 c12 8 27 11
34 8 6 -4 3 0 -7 9 -20 16 -41 12 -30 -5 3 -6 -3 -5 -15 3 -12 7 -21 16 -21
21 0 4 5 5 10 2 21 -13 31 7 13 27 -21 23 -59 46 -49 29 4 -6 3 -11 -3 -11 -6
0 -15 9 -21 19 -9 18 -8 19 28 9 20 -6 78 -30 127 -54 88 -43 109 -59 38 -29
-24 10 -40 12 -46 6 -18 -18 11 -40 43 -34 24 3 30 1 30 -14 0 -10 -4 -14 -8
-8 -4 6 -15 11 -24 11 -14 1 -15 -2 -8 -16 5 -9 8 -19 5 -21 -2 -2 15 -4 38
-4 34 0 42 -3 41 -18 -2 -15 1 -16 13 -5 13 10 13 14 -3 25 -10 7 -24 13 -31
13 -7 0 -13 7 -13 15 0 10 9 14 24 13 14 -1 22 -6 20 -10 -3 -4 2 -8 10 -8 9
0 16 4 16 10 0 5 10 15 23 21 22 12 22 12 4 -9 -11 -11 -16 -25 -13 -31 3 -5
0 -12 -6 -15 -7 -4 -2 -4 12 -1 24 4 24 4 -4 -19 -17 -13 -26 -28 -22 -34 4
-7 2 -12 -4 -12 -6 0 -8 -4 -5 -10 4 -6 -10 -10 -35 -10 -23 0 -39 4 -35 9 3
5 1 12 -5 16 -6 4 -8 10 -5 15 3 4 -5 6 -16 3 -14 -4 -25 0 -31 12 -8 13 -12
14 -18 5 -5 -8 -15 -10 -26 -5 -11 5 -30 10 -44 11 -24 3 -24 2 5 -14 17 -9
36 -17 43 -18 22 -4 27 -14 12 -25 -10 -6 0 -7 30 -3 41 7 44 6 31 -9 -10 -13
-17 -15 -27 -6 -9 7 -14 7 -14 1 0 -20 27 -34 34 -16 6 16 8 15 25 0 18 -17
21 -17 55 -1 20 10 36 21 36 26 0 5 5 9 11 9 5 0 7 -5 3 -11 -3 -6 5 -3 19 6
15 9 30 14 36 11 10 -7 67 61 63 76 -1 5 2 7 7 3 11 -6 44 22 53 47 7 18 -59
60 -106 68 -34 6 -45 24 -19 35 27 10 213 19 213 10 0 -5 -8 -18 -19 -29 -13
-15 -16 -27 -11 -41 8 -19 9 -19 9 1 1 12 8 28 17 35 14 12 14 9 0 -26 -17
-39 -26 -54 -26 -42 0 8 -21 -9 -81 -65 -41 -38 -33 -52 14 -26 29 15 67 19
67 6 0 -5 -10 -24 -22 -41 -20 -29 -20 -30 -3 -17 11 8 24 21 28 28 5 7 12 10
17 7 5 -3 12 0 16 6 5 8 3 9 -7 4 -8 -5 -11 -4 -6 1 5 5 12 9 15 9 4 0 13 4
21 9 10 7 12 6 6 -4 -5 -8 -3 -11 6 -8 8 3 13 12 11 20 -1 9 5 18 13 22 11 4
14 2 8 -7 -4 -6 -8 -15 -8 -19 0 -16 -85 -79 -97 -72 -10 5 -10 4 -1 -6 6 -7
9 -19 6 -26 -3 -10 0 -12 10 -8 9 3 13 12 10 20 -3 9 0 12 9 9 17 -7 100 68
112 100 5 15 9 16 15 6 7 -10 18 -5 47 23 22 19 33 36 26 36 -7 0 -11 4 -8 9
3 4 -4 20 -17 34 -70 79 -292 113 -393 59 -69 -37 -81 -36 -230 9 -17 5 -40 7
-50 3 -16 -5 -17 -4 -4 6 12 9 11 10 -10 9 -14 -2 -41 3 -61 9 -20 7 -54 12
-75 12 -22 -1 -64 1 -94 4 -45 5 -61 2 -87 -15z m183 -39 c1 -6 2 -15 3 -21 1
-8 5 -8 15 0 11 10 21 6 49 -19 19 -16 39 -30 43 -30 5 0 2 4 -6 10 -8 5 -12
11 -10 14 3 2 16 -4 30 -15 15 -12 19 -19 10 -18 -39 4 -44 -1 -22 -24 24 -25
20 -40 -6 -29 -15 5 -15 4 -3 -14 8 -10 -18 13 -57 51 -68 66 -86 95 -61 95 8
0 7 6 -2 18 -11 15 -11 15 1 4 8 -7 16 -17 16 -22z m14 25 c0 -3 -2 -5 -5 -5
-3 0 -5 2 -5 5 0 3 2 5 5 5 3 0 5 -2 5 -5z m-60 -10 c0 -3 -2 -5 -5 -5 -3 0
-5 2 -5 5 0 3 2 5 5 5 3 0 5 -2 5 -5z m-240 -30 c0 -3 -2 -5 -5 -5 -3 0 -5 2
-5 5 0 3 2 5 5 5 3 0 5 -2 5 -5z m50 0 c0 -3 -2 -5 -5 -5 -3 0 -5 2 -5 5 0 3
2 5 5 5 3 0 5 -2 5 -5z m80 0 c0 -3 -2 -5 -5 -5 -3 0 -5 2 -5 5 0 3 2 5 5 5 3
0 5 -2 5 -5z m901 -32 c84 -40 97 -52 50 -49 -17 1 -28 -1 -26 -5 3 -3 -7 -11
-20 -17 -19 -9 -25 -9 -25 0 0 6 -3 8 -7 5 -3 -4 -15 0 -25 10 -11 9 -18 11
-18 5 0 -7 -7 -12 -15 -12 -21 0 -19 20 3 21 9 1 20 1 25 0 4 0 7 8 7 19 0 11
-5 20 -11 20 -5 0 -7 -6 -3 -12 5 -10 4 -10 -6 -1 -13 12 -22 53 -12 53 2 0
40 -17 83 -37z m-851 22 c0 -3 -2 -5 -5 -5 -3 0 -5 2 -5 5 0 3 2 5 5 5 3 0 5
-2 5 -5z m375 -35 c17 -4 41 -12 55 -18 l25 -11 -26 0 c-26 -1 -119 35 -119
46 0 3 8 2 18 -2 9 -4 31 -11 47 -15z m81 4 c29 -8 57 -15 60 -14 8 2 24 -21
24 -33 0 -5 -7 -1 -16 7 -8 9 -27 19 -42 22 -44 10 -108 32 -94 33 8 1 38 -6
68 -15z m-666 -19 c0 -3 -2 -5 -5 -5 -3 0 -5 2 -5 5 0 3 2 5 5 5 3 0 5 -2 5
-5z m15 -25 c3 -6 -1 -7 -9 -4 -18 7 -21 14 -7 14 6 0 13 -4 16 -10z m-92 -8
c-5 -4 -15 -17 -22 -29 -6 -13 -18 -23 -26 -23 -8 0 -15 -5 -15 -12 0 -13 -29
-48 -41 -48 -6 0 9 61 25 105 2 6 23 11 46 12 24 0 39 -2 33 -5z m617 3 c0 -3
-2 -5 -5 -5 -3 0 -5 2 -5 5 0 3 2 5 5 5 3 0 5 -2 5 -5z m140 -10 c0 -3 -2 -5
-5 -5 -3 0 -5 2 -5 5 0 3 2 5 5 5 3 0 5 -2 5 -5z m415 -5 c-3 -5 -16 -15 -28
-21 -21 -10 -21 -9 2 10 25 23 36 27 26 11z m-335 -5 c0 -3 -2 -5 -5 -5 -3 0
-5 2 -5 5 0 3 2 5 5 5 3 0 5 -2 5 -5z m217 -17 l-22 -19 25 6 25 6 -25 -15
c-30 -18 -44 -20 -34 -5 4 8 0 8 -15 0 -17 -10 -22 -9 -27 3 -8 20 6 43 16 26
6 -9 10 -9 20 2 7 7 23 14 36 14 l24 2 -23 -20z m-185 -5 c-5 -10 -7 -25 -5
-33 3 -9 -1 -7 -11 5 -17 23 -21 39 -6 30 6 -3 10 -1 10 4 0 6 5 11 10 11 7 0
7 -6 2 -17z m-72 2 c0 -3 -2 -5 -5 -5 -3 0 -5 2 -5 5 0 3 2 5 5 5 3 0 5 -2 5
-5z m170 -30 c0 -3 -2 -5 -5 -5 -3 0 -5 2 -5 5 0 3 2 5 5 5 3 0 5 -2 5 -5z
m-1010 -19 c0 -3 -5 -8 -12 -12 -7 -4 -8 -3 -4 4 7 12 16 16 16 8z m890 -11
c0 -3 -2 -5 -5 -5 -3 0 -5 2 -5 5 0 3 2 5 5 5 3 0 5 -2 5 -5z m-65 -15 c3 -5
-1 -10 -9 -10 -9 0 -16 5 -16 10 0 6 4 10 9 10 6 0 13 -4 16 -10z m32 3 c-4
-3 -10 -3 -14 0 -3 4 0 7 7 7 7 0 10 -3 7 -7z m-877 -18 c0 -3 -2 -5 -5 -5 -3
0 -5 2 -5 5 0 3 2 5 5 5 3 0 5 -2 5 -5z m1125 -15 c-3 -5 -11 -10 -16 -10 -6
0 -7 5 -4 10 3 6 11 10 16 10 6 0 7 -4 4 -10z m-375 -35 c0 -3 -2 -5 -5 -5 -3
0 -5 2 -5 5 0 3 2 5 5 5 3 0 5 -2 5 -5z m-910 -40 c0 -3 -2 -5 -5 -5 -3 0 -5
2 -5 5 0 3 2 5 5 5 3 0 5 -2 5 -5z m310 0 c0 -3 -2 -5 -5 -5 -3 0 -5 2 -5 5 0
3 2 5 5 5 3 0 5 -2 5 -5z m-345 -25 c-10 -11 -21 -18 -23 -15 -3 3 3 12 14 20
27 20 30 18 9 -5z m82 13 c-4 -3 -10 -3 -14 0 -3 4 0 7 7 7 7 0 10 -3 7 -7z
m303 -8 c0 -3 -2 -5 -5 -5 -3 0 -5 2 -5 5 0 3 2 5 5 5 3 0 5 -2 5 -5z m705 -5
c-3 -5 -12 -10 -18 -10 -7 0 -6 4 3 10 19 12 23 12 15 0z m-135 -25 c0 -6 -69
-35 -84 -35 -6 0 3 9 19 20 27 18 65 27 65 15z m-485 -45 c3 -5 4 -10 1 -10
-3 0 -8 5 -11 10 -3 6 -4 10 -1 10 3 0 8 -4 11 -10z m252 3 c-4 -3 -10 -3 -14
0 -3 4 0 7 7 7 7 0 10 -3 7 -7z m98 -3 c3 -6 -1 -7 -9 -4 -18 7 -21 14 -7 14
6 0 13 -4 16 -10z m-849 -29 c14 11 20 2 15 -25 -1 -5 6 -18 16 -29 10 -11 12
-17 5 -13 -7 4 -24 1 -37 -8 -35 -23 -39 -20 -16 10 12 15 21 31 21 35 0 15
-38 10 -44 -6 -3 -8 -17 -15 -31 -15 -14 0 -25 -4 -25 -10 0 -5 9 -10 20 -10
27 0 25 -15 -7 -56 -20 -24 -36 -34 -55 -34 -33 0 -33 0 -8 49 24 48 123 137
128 115 3 -12 7 -13 18 -3z m884 14 c0 -3 -2 -5 -5 -5 -3 0 -5 2 -5 5 0 3 2 5
5 5 3 0 5 -2 5 -5z m-906 -130 c-4 -8 -13 -15 -22 -15 -13 0 -12 3 4 15 24 18
25 18 18 0z m86 -10 c0 -3 -2 -5 -5 -5 -3 0 -5 2 -5 5 0 3 2 5 5 5 3 0 5 -2 5
-5z m10 -20 c0 -3 -2 -5 -5 -5 -3 0 -5 2 -5 5 0 3 2 5 5 5 3 0 5 -2 5 -5z
m-11 -18 c-2 -1 -13 -9 -24 -17 -19 -14 -19 -14 -6 3 7 9 18 17 24 17 6 0 8
-1 6 -3z m-129 -29 c0 -4 -7 -8 -15 -8 -8 0 -15 4 -15 8 0 5 7 9 15 9 8 0 15
-4 15 -9z m-63 -55 c-4 -3 -10 -3 -14 0 -3 4 0 7 7 7 7 0 10 -3 7 -7z m123
-18 c0 -3 -2 -5 -5 -5 -3 0 -5 2 -5 5 0 3 2 5 5 5 3 0 5 -2 5 -5z M2970 4846
c0 -2 8 -10 18 -17 15 -13 16 -12 3 4 -13 16 -21 21 -21 13z M2974 4809 c18
-28 66 -73 66 -61 0 11 -11 24 -49 57 -32 28 -33 29 -17 4z M3015 4800 c3 -5
8 -10 11 -10 3 0 2 5 -1 10 -3 6 -8 10 -11 10 -3 0 -2 -4 1 -10z M3680 4765
c0 -3 2 -5 5 -5 3 0 5 2 5 5 0 3 -2 5 -5 5 -3 0 -5 -2 -5 -5z M3540 4705 c0
-3 2 -5 5 -5 3 0 5 2 5 5 0 3 -2 5 -5 5 -3 0 -5 -2 -5 -5z M2270 4405 c0 -3 2
-5 5 -5 3 0 5 2 5 5 0 3 -2 5 -5 5 -3 0 -5 -2 -5 -5z M2200 4385 c0 -3 2 -5 5
-5 3 0 5 2 5 5 0 3 -2 5 -5 5 -3 0 -5 -2 -5 -5z M2270 4370 c0 -7 3 -10 7 -7
3 4 3 10 0 14 -4 3 -7 0 -7 -7z M2130 4305 c0 -3 2 -5 5 -5 3 0 5 2 5 5 0 3
-2 5 -5 5 -3 0 -5 -2 -5 -5z M2860 4815 c0 -3 2 -5 5 -5 3 0 5 2 5 5 0 3 -2 5
-5 5 -3 0 -5 -2 -5 -5z M3110 4801 c0 -5 7 -12 16 -15 14 -5 15 -4 4 9 -14 17
-20 19 -20 6z M2800 4795 c0 -3 2 -5 5 -5 3 0 5 2 5 5 0 3 -2 5 -5 5 -3 0 -5
-2 -5 -5z M2870 4791 c0 -6 4 -13 10 -16 6 -3 7 1 4 9 -7 18 -14 21 -14 7z
M3534 4788 c-4 -7 -3 -8 4 -4 7 4 12 9 12 12 0 8 -9 4 -16 -8z M2810 4770 c0
-7 3 -10 7 -7 3 4 3 10 0 14 -4 3 -7 0 -7 -7z M2845 4750 c-6 -9 2 -22 23 -40
18 -15 32 -30 32 -35 0 -5 -19 9 -41 30 l-42 40 19 -34 c20 -34 49 -52 72 -43
10 3 7 12 -11 31 -13 14 -29 34 -34 45 -8 14 -12 16 -18 6z M2870 4755 c0 -3
2 -5 5 -5 3 0 5 2 5 5 0 3 -2 5 -5 5 -3 0 -5 -2 -5 -5z M2886 4744 c-9 -23 -7
-31 3 -16 6 10 16 1 35 -32 17 -29 36 -48 52 -52 32 -8 51 8 29 26 -9 7 -15 8
-15 2 0 -6 6 -13 13 -15 9 -4 9 -6 -1 -6 -15 -1 -70 56 -77 80 -8 23 -32 31
-39 13z M2930 4755 c0 -3 2 -5 5 -5 3 0 5 2 5 5 0 3 -2 5 -5 5 -3 0 -5 -2 -5
-5z M2714 4741 c4 -6 16 -16 28 -22 15 -8 18 -8 14 0 -4 6 -16 16 -28 22 -15
8 -18 8 -14 0z M3785 4695 c-14 -30 -25 -59 -25 -63 0 -4 -6 -18 -13 -32 -27
-52 -28 -61 -7 -50 16 8 20 8 20 -4 0 -8 8 -20 18 -25 9 -6 12 -11 6 -11 -18
0 -24 -39 -9 -54 11 -10 11 -16 2 -26 -9 -10 -9 -11 0 -6 8 4 10 -2 6 -21 -10
-50 -8 -67 8 -71 11 -2 18 6 21 23 5 22 3 23 -10 13 -14 -11 -15 -10 -8 7 4
11 10 31 13 45 5 30 13 40 13 17 0 -10 5 -17 11 -17 5 0 8 4 5 9 -3 5 1 14 9
21 21 18 41 62 37 83 -3 15 -7 12 -21 -14 -10 -18 -23 -35 -29 -37 -15 -5 3
59 20 70 7 4 9 8 3 8 -5 0 -4 5 3 12 18 18 15 27 -7 23 -19 -3 -19 -2 -3 42
l17 45 7 -53 c12 -95 23 -105 23 -20 0 44 -3 77 -7 75 -4 -3 -10 7 -14 21 -3
14 -10 25 -16 25 -5 0 -6 -6 -2 -12 4 -8 3 -10 -2 -5 -5 5 -9 14 -9 20 0 7 -8
13 -18 15 -13 3 -24 -11 -42 -53z m65 -10 c0 -3 -2 -5 -5 -5 -3 0 -5 2 -5 5 0
3 2 5 5 5 3 0 5 -2 5 -5z m-60 -215 c0 -5 -2 -10 -4 -10 -3 0 -8 5 -11 10 -3
6 -1 10 4 10 6 0 11 -4 11 -10z m20 -5 c0 -3 -2 -5 -5 -5 -3 0 -5 2 -5 5 0 3
2 5 5 5 3 0 5 -2 5 -5z M2550 4735 c0 -3 2 -5 5 -5 3 0 5 2 5 5 0 3 -2 5 -5 5
-3 0 -5 -2 -5 -5z M2955 4730 c3 -5 8 -10 11 -10 3 0 2 5 -1 10 -3 6 -8 10
-11 10 -3 0 -2 -4 1 -10z M3760 4705 c-7 -9 -10 -18 -7 -21 3 -3 10 4 17 15
13 25 8 27 -10 6z M2670 4680 c39 -33 50 -36 50 -16 0 7 -15 21 -34 30 -50 24
-55 20 -16 -14z M2810 4705 c0 -3 2 -5 5 -5 3 0 5 2 5 5 0 3 -2 5 -5 5 -3 0
-5 -2 -5 -5z M2970 4700 c0 -7 3 -10 7 -7 3 4 3 10 0 14 -4 3 -7 0 -7 -7z
M2580 4695 c0 -3 2 -5 5 -5 3 0 5 2 5 5 0 3 -2 5 -5 5 -3 0 -5 -2 -5 -5z
M2770 4685 c0 -3 2 -5 5 -5 3 0 5 2 5 5 0 3 -2 5 -5 5 -3 0 -5 -2 -5 -5z
M3080 4685 c0 -3 2 -5 5 -5 3 0 5 2 5 5 0 3 -2 5 -5 5 -3 0 -5 -2 -5 -5z
M2570 4675 c0 -3 2 -5 5 -5 3 0 5 2 5 5 0 3 -2 5 -5 5 -3 0 -5 -2 -5 -5z
M2620 4675 c0 -3 2 -5 5 -5 3 0 5 2 5 5 0 3 -2 5 -5 5 -3 0 -5 -2 -5 -5z
M2744 4663 c2 -10 6 -17 10 -16 15 3 16 11 2 22 -12 10 -14 9 -12 -6z m16 -8
c0 -3 -2 -5 -5 -5 -3 0 -5 2 -5 5 0 3 2 5 5 5 3 0 5 -2 5 -5z M2790 4676 c0
-2 7 -9 15 -16 13 -11 14 -10 9 4 -5 14 -24 23 -24 12z M3190 4665 c0 -3 2 -5
5 -5 3 0 5 2 5 5 0 3 -2 5 -5 5 -3 0 -5 -2 -5 -5z M3506 4655 c-11 -8 -15 -15
-9 -15 6 0 16 7 23 15 16 19 11 19 -14 0z M3709 4657 c-14 -11 -14 -14 4 -32
20 -20 20 -20 9 1 -8 15 -8 24 0 32 16 16 7 15 -13 -1z M2848 4648 c10 -13 10
-17 0 -20 -13 -5 48 -36 137 -69 55 -21 132 -25 155 -8 13 9 12 10 -3 5 -22
-7 -158 11 -170 23 -5 5 -4 12 2 15 14 9 14 26 1 26 -5 0 -9 -5 -7 -12 1 -6
-6 -14 -16 -16 -18 -4 -18 -3 0 24 10 16 12 25 5 20 -7 -4 -18 -3 -25 2 -7 5
-19 10 -27 10 -8 0 -26 4 -40 8 -22 7 -23 6 -12 -8z m47 -28 c3 -6 -1 -7 -9
-4 -18 7 -21 14 -7 14 6 0 13 -4 16 -10z m39 -11 c-8 -14 -21 -11 -21 5 0 8 6
12 14 9 7 -3 10 -9 7 -14z M3034 4648 c-4 -7 -3 -8 4 -4 7 4 12 9 12 12 0 8
-9 4 -16 -8z M3903 4615 c0 -27 2 -38 4 -22 2 15 2 37 0 50 -2 12 -4 0 -4 -28z
M3235 4640 c3 -5 8 -10 11 -10 3 0 2 5 -1 10 -3 6 -8 10 -11 10 -3 0 -2 -4 1
-10z M2660 4636 c0 -2 8 -10 18 -17 15 -13 16 -12 3 4 -13 16 -21 21 -21 13z
M2725 4630 c3 -5 8 -10 11 -10 3 0 2 5 -1 10 -3 6 -8 10 -11 10 -3 0 -2 -4 1
-10z M3470 4635 c0 -3 2 -5 5 -5 3 0 5 2 5 5 0 3 -2 5 -5 5 -3 0 -5 -2 -5 -5z
M2815 4620 c6 -10 4 -12 -9 -7 -11 4 -15 3 -11 -4 4 -6 12 -8 19 -6 7 3 22 -6
35 -19 13 -13 29 -24 37 -24 7 0 17 -6 21 -13 20 -31 134 -46 208 -27 25 7 21
8 -25 8 -80 0 -154 16 -185 40 -15 12 -31 19 -36 16 -5 -3 -9 -2 -9 3 0 4 -12
17 -27 27 -14 11 -23 13 -18 6z M2990 4625 c0 -3 2 -5 5 -5 3 0 5 2 5 5 0 3
-2 5 -5 5 -3 0 -5 -2 -5 -5z M3434 4615 c-10 -8 -14 -15 -8 -15 6 0 17 7 24
15 16 19 9 19 -16 0z M3490 4625 c0 -3 2 -5 5 -5 3 0 5 2 5 5 0 3 -2 5 -5 5
-3 0 -5 -2 -5 -5z M3654 4615 c-3 -8 -14 -17 -25 -20 -26 -9 -24 -24 4 -23 26
2 47 16 47 32 0 6 -5 4 -11 -4 -9 -12 -10 -11 -6 8 6 25 -1 30 -9 7z m3 -32
c-4 -3 -10 -3 -14 0 -3 4 0 7 7 7 7 0 10 -3 7 -7z M3680 4625 c0 -3 2 -5 5 -5
3 0 5 2 5 5 0 3 -2 5 -5 5 -3 0 -5 -2 -5 -5z M3851 4614 c0 -11 3 -14 6 -6 3
7 2 16 -1 19 -3 4 -6 -2 -5 -13z M2520 4615 c0 -3 2 -5 5 -5 3 0 5 2 5 5 0 3
-2 5 -5 5 -3 0 -5 -2 -5 -5z M2710 4615 c0 -3 2 -5 5 -5 3 0 5 2 5 5 0 3 -2 5
-5 5 -3 0 -5 -2 -5 -5z M2775 4599 c11 -13 25 -27 30 -31 6 -4 10 -13 10 -20
0 -7 7 -13 15 -13 8 0 20 -4 26 -8 7 -4 18 0 25 9 7 8 8 14 3 13 -21 -4 -35 3
-81 38 -33 25 -42 29 -28 12z m55 -54 c0 -3 -2 -5 -5 -5 -3 0 -5 2 -5 5 0 3 2
5 5 5 3 0 5 -2 5 -5z M3001 4611 c-20 -13 -2 -34 25 -28 13 2 22 1 20 -2 -2
-3 23 -7 55 -8 84 -3 81 22 -3 33 -24 2 -52 7 -63 9 -11 2 -26 0 -34 -4z m139
-26 c0 -3 -2 -5 -5 -5 -3 0 -5 2 -5 5 0 3 2 5 5 5 3 0 5 -2 5 -5z M3470 4615
c0 -3 2 -5 5 -5 3 0 5 2 5 5 0 3 -2 5 -5 5 -3 0 -5 -2 -5 -5z M2740 4605 c0
-3 2 -5 5 -5 3 0 5 2 5 5 0 3 -2 5 -5 5 -3 0 -5 -2 -5 -5z M3700 4605 c0 -3 2
-5 5 -5 3 0 5 2 5 5 0 3 -2 5 -5 5 -3 0 -5 -2 -5 -5z M2540 4590 c0 -5 5 -10
11 -10 5 0 7 5 4 10 -3 6 -8 10 -11 10 -2 0 -4 -4 -4 -10z M3509 4587 c7 -7 7
-15 0 -24 -13 -15 -33 -18 -24 -4 3 5 1 12 -4 15 -5 4 -8 -2 -7 -11 4 -23 21
-27 39 -9 8 8 17 12 21 9 3 -4 6 -1 6 5 0 7 0 15 0 20 0 4 -9 8 -21 8 -14 1
-17 -2 -10 -9z m28 -4 c-4 -3 -10 -3 -14 0 -3 4 0 7 7 7 7 0 10 -3 7 -7z
M2300 4585 c0 -3 2 -5 5 -5 3 0 5 2 5 5 0 3 -2 5 -5 5 -3 0 -5 -2 -5 -5z
M3360 4570 c-14 -11 -32 -20 -40 -21 -10 0 -11 -2 -3 -5 7 -3 29 6 50 20 21
14 33 26 28 26 -6 0 -21 -9 -35 -20z M3200 4575 c0 -3 2 -5 5 -5 3 0 5 2 5 5
0 3 -2 5 -5 5 -3 0 -5 -2 -5 -5z M3430 4575 c0 -3 2 -5 5 -5 3 0 5 2 5 5 0 3
-2 5 -5 5 -3 0 -5 -2 -5 -5z M2787 4518 c23 -23 46 -38 50 -34 8 8 -65 76 -82
76 -5 0 9 -19 32 -42z M3178 4553 c6 -2 18 -2 25 0 6 3 1 5 -13 5 -14 0 -19
-2 -12 -5z M3410 4555 c0 -3 2 -5 5 -5 3 0 5 2 5 5 0 3 -2 5 -5 5 -3 0 -5 -2
-5 -5z M3440 4551 c0 -5 7 -12 16 -15 14 -5 15 -4 4 9 -14 17 -20 19 -20 6z
M3550 4540 c-11 -9 -18 -19 -14 -23 4 -4 13 1 20 11 12 16 13 16 14 0 0 -14 4
-15 29 -7 17 6 28 16 25 23 -7 17 -49 15 -74 -4z M2550 4545 c0 -3 2 -5 5 -5
3 0 5 2 5 5 0 3 -2 5 -5 5 -3 0 -5 -2 -5 -5z M2730 4545 c0 -3 2 -5 5 -5 3 0
5 2 5 5 0 3 -2 5 -5 5 -3 0 -5 -2 -5 -5z M2530 4535 c0 -3 2 -5 5 -5 3 0 5 2
5 5 0 3 -2 5 -5 5 -3 0 -5 -2 -5 -5z M3709 4517 c5 -5 17 -5 28 2 16 9 15 10
-9 9 -16 -2 -24 -6 -19 -11z M2468 4513 c7 -3 16 -2 19 1 4 3 -2 6 -13 5 -11
0 -14 -3 -6 -6z M3490 4510 c-12 -8 -11 -10 8 -10 12 0 22 5 22 10 0 13 -11
13 -30 0z M3743 4510 c-28 -11 -30 -19 -3 -17 11 1 22 7 24 14 3 7 4 13 3 12
-1 0 -12 -4 -24 -9z M2420 4506 c0 -2 7 -7 16 -10 8 -3 12 -2 9 4 -6 10 -25
14 -25 6z M2853 4503 c4 -3 10 -3 14 0 3 4 0 7 -7 7 -7 0 -10 -3 -7 -7z M3621
4501 c-10 -6 -9 -10 3 -14 8 -3 18 -2 21 3 8 13 -9 20 -24 11z m19 -6 c0 -3
-2 -5 -5 -5 -3 0 -5 2 -5 5 0 3 2 5 5 5 3 0 5 -2 5 -5z M3930 4495 c0 -3 2 -5
5 -5 3 0 5 2 5 5 0 3 -2 5 -5 5 -3 0 -5 -2 -5 -5z M3430 4480 c-9 -6 -10 -10
-3 -10 6 0 15 5 18 10 8 12 4 12 -15 0z M3910 4485 c0 -3 2 -5 5 -5 3 0 5 2 5
5 0 3 -2 5 -5 5 -3 0 -5 -2 -5 -5z M2380 4473 c-18 -4 -45 -43 -31 -43 6 0 13
5 16 11 4 6 16 14 28 18 22 8 12 20 -13 14z M2796 4467 c3 -10 9 -15 12 -12 3
3 0 11 -7 18 -10 9 -11 8 -5 -6z M3600 4475 c0 -3 2 -5 5 -5 3 0 5 2 5 5 0 3
-2 5 -5 5 -3 0 -5 -2 -5 -5z M3660 4475 c0 -3 2 -5 5 -5 3 0 5 2 5 5 0 3 -2 5
-5 5 -3 0 -5 -2 -5 -5z M3693 4473 c4 -3 10 -3 14 0 3 4 0 7 -7 7 -7 0 -10 -3
-7 -7z M3723 4465 c0 -7 6 -11 14 -8 7 3 13 6 13 8 0 2 -6 5 -13 8 -8 3 -14
-1 -14 -8z M3620 4465 c0 -3 2 -5 5 -5 3 0 5 2 5 5 0 3 -2 5 -5 5 -3 0 -5 -2
-5 -5z M3277 4449 c7 -7 15 -10 18 -7 3 3 -2 9 -12 12 -14 6 -15 5 -6 -5z
M3448 4453 c7 -3 16 -2 19 1 4 3 -2 6 -13 5 -11 0 -14 -3 -6 -6z M3604 4452
c4 -7 1 -13 -6 -14 -29 -3 -34 -4 -55 -16 -13 -7 -23 -17 -23 -23 0 -5 10 -1
22 11 17 15 24 17 31 8 7 -10 10 -10 14 0 7 17 23 15 23 -3 0 -18 26 -9 34 11
5 12 1 14 -15 9 -14 -5 -19 -3 -15 3 3 6 1 14 -5 18 -8 4 -9 3 -5 -4z M3230
4440 c0 -5 7 -7 15 -4 8 4 15 8 15 10 0 2 -7 4 -15 4 -8 0 -15 -4 -15 -10z
M3678 4443 c6 -2 9 -10 6 -15 -4 -7 -2 -8 4 -4 7 4 12 3 12 -3 0 -5 -9 -13
-20 -16 -11 -4 -18 -11 -15 -16 9 -14 27 -11 20 4 -4 6 -1 5 7 -4 24 -28 48
-31 48 -6 0 16 -3 18 -9 8 -5 -8 -14 -10 -21 -6 -9 6 -6 13 11 27 13 11 19 17
13 14 -6 -3 -20 1 -30 9 -10 8 -23 14 -29 14 -5 0 -4 -3 3 -6z M3855 4410 c-1
-21 2 -37 6 -35 10 7 34 -18 48 -49 11 -26 10 -28 -3 -17 -13 11 -16 8 -22
-15 -7 -25 -8 -26 -15 -9 -13 34 -10 58 5 52 10 -4 13 -1 9 9 -11 29 -40 13
-34 -19 1 -5 -3 -6 -9 -2 -5 3 -10 -1 -10 -9 0 -9 5 -16 11 -16 5 0 7 -4 4
-10 -3 -5 -1 -10 5 -10 6 0 9 -4 6 -8 -3 -5 2 -9 11 -9 9 0 18 9 21 19 3 13 8
15 16 9 8 -7 17 -4 28 8 15 18 15 20 -4 24 -20 6 -21 32 0 32 19 0 33 21 26
38 -3 9 -11 14 -18 11 -6 -3 -2 2 8 10 25 20 36 20 36 1 0 -8 6 -12 15 -9 9 4
16 -3 21 -21 5 -19 9 -23 15 -14 4 7 5 17 3 21 -3 4 2 8 10 8 9 0 24 -18 33
-40 10 -22 20 -40 24 -40 3 0 3 -14 1 -32 -4 -29 -6 -30 -18 -13 -7 10 -11 22
-7 28 3 6 1 7 -5 3 -7 -4 -12 -16 -12 -27 0 -11 4 -18 9 -15 11 7 27 -12 35
-44 6 -21 5 -22 -4 -7 -6 9 -18 17 -26 17 -8 0 -12 5 -9 10 3 6 1 10 -4 10 -6
0 -11 -5 -11 -11 0 -6 -7 -8 -16 -5 -9 3 -12 2 -9 -5 4 -6 14 -8 22 -5 9 4 17
-1 20 -14 3 -11 8 -20 12 -20 11 0 12 -48 1 -55 -6 -3 -10 -12 -10 -18 0 -7 7
-4 14 6 11 14 15 15 20 5 3 -7 4 -2 2 10 -3 13 -2 21 2 17 4 -3 7 -31 7 -61 0
-42 -3 -51 -10 -39 -32 55 -46 66 -62 50 -20 -20 -30 -11 -12 11 11 14 10 17
-4 25 -9 6 -17 15 -17 21 0 6 12 3 26 -7 14 -9 28 -14 31 -11 3 3 -2 8 -11 12
-9 3 -14 10 -11 14 10 17 -17 22 -33 6 -14 -14 -14 -17 2 -35 17 -19 17 -19
-5 -14 -19 5 -21 3 -17 -15 4 -12 2 -22 -3 -22 -5 0 -9 -7 -9 -16 0 -13 3 -14
15 -4 13 11 14 8 11 -19 -2 -20 0 -28 8 -24 6 3 8 3 4 -2 -4 -4 -3 -14 3 -22
9 -9 8 -13 0 -13 -6 0 -11 5 -11 10 0 6 -9 10 -21 10 -15 0 -19 5 -15 15 3 8
1 15 -3 15 -5 0 -7 10 -4 23 4 16 3 19 -6 11 -22 -20 -28 -68 -18 -132 5 -29
4 -41 -3 -37 -5 3 -10 -3 -10 -15 0 -11 6 -23 14 -26 7 -3 22 -21 32 -40 10
-19 22 -34 27 -34 31 0 37 -129 9 -192 -11 -24 -29 -74 -41 -113 -27 -88 -34
-100 -103 -173 -47 -51 -59 -71 -70 -119 -11 -51 -16 -190 -9 -263 2 -14 0
-41 -3 -60 -7 -42 9 -87 34 -95 21 -7 36 -126 25 -188 -11 -58 -79 -214 -107
-245 -25 -29 -78 -131 -78 -152 0 -14 -31 -72 -43 -81 -5 -3 -8 -9 -8 -13 1
-3 -1 -6 -4 -6 -3 0 -9 0 -15 0 -5 0 -10 7 -10 15 0 8 -5 15 -11 15 -8 0 -9
-13 -5 -40 7 -44 -6 -80 -29 -80 -8 0 -15 -7 -15 -15 0 -8 -7 -15 -15 -15 -8
0 -15 -4 -15 -10 0 -5 -6 -7 -14 -4 -23 9 -29 -15 -9 -34 11 -9 14 -13 7 -9
-7 4 -15 3 -18 -2 -5 -7 -15 -7 -32 -1 -44 17 -49 11 -14 -20 41 -37 62 -38
80 -5 7 14 17 25 22 25 31 0 89 55 123 117 21 37 62 104 90 148 88 134 142
257 189 427 13 48 31 97 40 109 25 36 20 47 -26 60 -96 26 -98 28 -98 89 0 39
3 51 10 40 9 -13 10 -13 10 0 0 13 1 13 10 0 8 -12 10 -11 10 6 0 18 19 88 44
169 2 6 4 14 4 19 0 5 4 12 9 15 13 9 43 108 43 141 0 16 7 35 15 44 11 10 15
37 15 95 0 45 4 89 9 99 35 69 52 129 61 211 5 52 6 99 3 104 -4 6 1 8 11 4
10 -4 19 -7 21 -7 2 0 0 -13 -5 -30 -8 -28 -6 -34 13 -31 15 2 6 -17 -10 -24
-17 -6 -17 -7 0 -17 14 -7 22 -7 30 2 9 8 7 9 -8 4 -16 -6 -18 -5 -7 7 6 7 12
27 12 43 0 24 -3 27 -10 16 -8 -13 -10 -12 -10 2 0 10 14 24 33 33 17 8 24 13
14 10 -16 -4 -17 5 -15 98 1 56 -1 109 -5 118 -5 10 -3 16 7 16 8 0 12 -6 8
-15 -3 -9 -1 -13 5 -9 6 4 11 18 11 33 0 18 -3 22 -9 13 -6 -10 -9 -5 -10 16
-3 40 -3 41 -23 108 -11 37 -16 72 -12 93 4 20 2 43 -5 56 -12 22 -11 22 6 8
18 -15 18 -14 0 10 -38 52 -82 77 -146 84 -41 5 -65 3 -75 -5 -10 -8 -18 -8
-26 -1 -10 8 -13 1 -13 -28z m172 14 c-3 -3 -12 -4 -19 -1 -8 3 -5 6 6 6 11 1
17 -2 13 -5z m-87 -43 c0 -4 -9 -7 -19 -8 -13 -1 -18 3 -15 12 5 13 34 10 34
-4z m200 -246 c0 -3 -2 -5 -5 -5 -3 0 -5 2 -5 5 0 3 2 5 5 5 3 0 5 -2 5 -5z
m-10 -40 c0 -3 -2 -5 -5 -5 -3 0 -5 2 -5 5 0 3 2 5 5 5 3 0 5 -2 5 -5z m-54
-47 c26 -61 31 -100 19 -146 -12 -49 -39 18 -35 89 1 21 -3 40 -9 44 -13 8
-15 55 -2 55 5 0 17 -19 27 -42z m-46 -3 c0 -3 -2 -5 -5 -5 -3 0 -5 2 -5 5 0
3 2 5 5 5 3 0 5 -2 5 -5z m-77 -40 c-3 -9 -8 -14 -10 -11 -3 3 -2 9 2 15 9 16
15 13 8 -4z m97 0 c0 -3 -2 -5 -5 -5 -3 0 -5 2 -5 5 0 3 2 5 5 5 3 0 5 -2 5
-5z m70 0 c0 -3 -2 -5 -5 -5 -3 0 -5 2 -5 5 0 3 2 5 5 5 3 0 5 -2 5 -5z m-116
-37 c-4 -6 0 -15 7 -20 10 -7 8 -8 -8 -5 -19 4 -23 1 -23 -19 0 -13 4 -24 9
-24 5 0 7 -9 4 -20 -9 -36 -19 -21 -22 32 -1 33 2 54 11 59 11 7 11 9 0 9 -7
0 -10 5 -7 10 5 8 11 7 21 -1 7 -6 11 -16 8 -21z m-47 -20 c-3 -8 -6 -5 -6 6
-1 11 2 17 5 13 3 -3 4 -12 1 -19z m160 -45 c-4 -3 -7 0 -7 7 0 7 3 10 7 7 3
-4 3 -10 0 -14z m-1 -29 c-3 -9 -6 -25 -6 -38 0 -18 -6 -21 -39 -21 -22 0 -37
3 -35 7 3 5 14 8 26 8 16 0 19 5 15 21 -4 15 -2 19 9 15 8 -3 14 1 14 9 0 8 5
15 11 15 6 0 8 -7 5 -16z m-176 -549 c0 -3 -2 -5 -5 -5 -3 0 -5 2 -5 5 0 3 2
5 5 5 3 0 5 -2 5 -5z m-73 -102 c-4 -3 -7 0 -7 7 0 7 3 10 7 7 3 -4 3 -10 0
-14z m-7 -57 c0 -3 -5 -8 -12 -12 -7 -4 -8 -3 -4 4 7 12 16 16 16 8z m0 -41
c0 -3 -2 -5 -5 -5 -3 0 -5 2 -5 5 0 3 2 5 5 5 3 0 5 -2 5 -5z m-40 -110 c0 -3
-2 -5 -5 -5 -3 0 -5 2 -5 5 0 3 2 5 5 5 3 0 5 -2 5 -5z m-117 -760 c-3 -9 -8
-14 -10 -11 -3 3 -2 9 2 15 9 16 15 13 8 -4z m-188 -305 c3 -5 4 -10 1 -10 -3
0 -8 5 -11 10 -3 6 -4 10 -1 10 3 0 8 -4 11 -10z m-45 -5 c0 -3 -2 -5 -5 -5
-3 0 -5 2 -5 5 0 3 2 5 5 5 3 0 5 -2 5 -5z m30 -20 c0 -3 -2 -5 -5 -5 -3 0 -5
2 -5 5 0 3 2 5 5 5 3 0 5 -2 5 -5z M2690 4425 c0 -8 5 -15 10 -15 6 0 10 7 10
15 0 8 -4 15 -10 15 -5 0 -10 -7 -10 -15z M3655 4420 c-3 -5 -1 -10 4 -10 6 0
11 5 11 10 0 6 -2 10 -4 10 -3 0 -8 -4 -11 -10z M3048 4403 c7 -3 16 -2 19 1
4 3 -2 6 -13 5 -11 0 -14 -3 -6 -6z M3760 4399 c0 -5 5 -7 10 -4 6 3 10 8 10
11 0 2 -4 4 -10 4 -5 0 -10 -5 -10 -11z M3820 4405 c0 -3 2 -5 5 -5 3 0 5 2 5
5 0 3 -2 5 -5 5 -3 0 -5 -2 -5 -5z M2735 4381 c-17 -7 -16 -9 10 -13 33 -7 48
-2 40 13 -7 11 -22 11 -50 0z M3483 4383 c4 -3 10 -3 14 0 3 4 0 7 -7 7 -7 0
-10 -3 -7 -7z M3996 4377 c3 -10 9 -15 12 -12 3 3 0 11 -7 18 -10 9 -11 8 -5
-6z M2810 4370 c0 -7 3 -10 7 -7 3 4 3 10 0 14 -4 3 -7 0 -7 -7z M2855 4370
c3 -5 8 -10 11 -10 2 0 4 5 4 10 0 6 -5 10 -11 10 -5 0 -7 -4 -4 -10z M3600
4365 c-10 -12 -9 -16 4 -21 9 -4 20 -4 23 0 4 3 -2 6 -12 6 -18 0 -18 1 1 15
10 8 14 15 8 15 -6 0 -17 -7 -24 -15z M3830 4375 c0 -3 2 -5 5 -5 3 0 5 2 5 5
0 3 -2 5 -5 5 -3 0 -5 -2 -5 -5z M3640 4359 c0 -5 5 -7 10 -4 6 3 10 8 10 11
0 2 -4 4 -10 4 -5 0 -10 -5 -10 -11z M3750 4365 c0 -3 2 -5 5 -5 3 0 5 2 5 5
0 3 -2 5 -5 5 -3 0 -5 -2 -5 -5z M3971 4353 c1 -10 -2 -26 -6 -37 -5 -12 -3
-21 6 -27 10 -6 10 -9 2 -9 -7 0 -13 -5 -13 -11 0 -5 5 -7 10 -4 6 3 10 -1 10
-10 0 -9 -3 -14 -7 -12 -5 3 -8 -27 -9 -65 -1 -70 -1 -70 13 -37 8 19 16 42
18 53 3 10 11 29 20 42 8 13 15 40 15 61 l-1 38 -13 -30 c-7 -16 -11 -34 -8
-40 3 -5 1 -6 -3 -2 -5 4 -10 18 -10 30 -3 65 -6 77 -16 77 -5 0 -9 -8 -8 -17z
M4046 4355 c-3 -8 -1 -15 4 -15 6 0 10 7 10 15 0 8 -2 15 -4 15 -2 0 -6 -7
-10 -15z M2510 4355 c0 -3 2 -5 5 -5 3 0 5 2 5 5 0 3 -2 5 -5 5 -3 0 -5 -2 -5
-5z M3476 4346 c3 -8 1 -17 -5 -21 -13 -7 -15 -35 -3 -35 9 0 32 44 32 60 0 6
-7 10 -15 10 -8 0 -12 -6 -9 -14z M3820 4349 c0 -5 5 -7 10 -4 6 3 10 8 10 11
0 2 -4 4 -10 4 -5 0 -10 -5 -10 -11z M3670 4345 c0 -3 2 -5 5 -5 3 0 5 2 5 5
0 3 -2 5 -5 5 -3 0 -5 -2 -5 -5z M3690 4342 c0 -4 -12 -20 -26 -35 -23 -25
-24 -31 -16 -70 6 -23 11 -33 12 -22 2 12 5 7 10 -15 l7 -35 2 33 c1 37 10 40
34 11 10 -11 24 -18 31 -16 8 3 19 -5 26 -19 8 -13 17 -24 22 -24 13 0 9 32
-6 44 -17 14 -33 62 -17 52 6 -4 11 -2 11 3 0 15 -63 14 -79 -1 -10 -11 -11
-9 -5 5 5 15 2 17 -20 13 -26 -5 -36 7 -16 19 6 3 10 1 10 -6 0 -10 3 -10 12
-1 10 10 10 15 -2 22 -13 8 -12 10 3 10 10 0 17 8 17 20 0 11 -2 20 -5 20 -3
0 -5 -3 -5 -8z M3370 4316 c0 -9 6 -16 13 -16 16 0 46 20 30 20 -6 0 -18 3
-27 6 -11 4 -16 1 -16 -10z M3580 4320 c0 -7 3 -10 7 -7 3 4 3 10 0 14 -4 3
-7 0 -7 -7z M3620 4320 c0 -7 3 -10 7 -7 3 4 3 10 0 14 -4 3 -7 0 -7 -7z
M3710 4315 c0 -8 4 -15 8 -15 5 0 9 7 9 15 0 8 -4 15 -9 15 -4 0 -8 -7 -8 -15z
M4130 4320 c0 -7 3 -10 7 -7 3 4 3 10 0 14 -4 3 -7 0 -7 -7z M2445 4310 c-3
-5 1 -10 9 -10 9 0 16 5 16 10 0 6 -4 10 -9 10 -6 0 -13 -4 -16 -10z M3750
4315 c0 -3 2 -5 5 -5 3 0 5 2 5 5 0 3 -2 5 -5 5 -3 0 -5 -2 -5 -5z M3770 4308
c0 -7 7 -22 15 -32 12 -16 15 -17 15 -4 0 24 -11 48 -21 48 -5 0 -9 -6 -9 -12z
M3870 4315 c0 -3 2 -5 5 -5 3 0 5 2 5 5 0 3 -2 5 -5 5 -3 0 -5 -2 -5 -5z
M4040 4305 c0 -3 2 -5 5 -5 3 0 5 2 5 5 0 3 -2 5 -5 5 -3 0 -5 -2 -5 -5z
M4141 4284 c0 -11 3 -14 6 -6 3 7 2 16 -1 19 -3 4 -6 -2 -5 -13z M3360 4280
c0 -7 3 -10 7 -7 3 4 3 10 0 14 -4 3 -7 0 -7 -7z M3511 4274 c0 -11 3 -14 6
-6 3 7 2 16 -1 19 -3 4 -6 -2 -5 -13z M3927 4283 c-4 -3 -7 -16 -7 -27 0 -16
2 -18 9 -7 7 11 9 11 14 0 3 -8 6 -2 6 14 1 26 -8 34 -22 20z M3340 4275 c0
-3 2 -5 5 -5 3 0 5 2 5 5 0 3 -2 5 -5 5 -3 0 -5 -2 -5 -5z M3430 4275 c0 -3 2
-5 5 -5 3 0 5 2 5 5 0 3 -2 5 -5 5 -3 0 -5 -2 -5 -5z M3536 4262 c-4 -13 -5
-26 -2 -29 10 -11 18 4 14 29 l-4 23 -8 -23z M3580 4275 c0 -3 2 -5 5 -5 3 0
5 2 5 5 0 3 -2 5 -5 5 -3 0 -5 -2 -5 -5z M4121 4264 c0 -11 3 -14 6 -6 3 7 2
16 -1 19 -3 4 -6 -2 -5 -13z M3562 4253 c4 -13 -1 -29 -13 -41 -15 -17 -16
-21 -4 -26 8 -3 15 -1 15 5 0 6 4 8 9 4 11 -6 7 63 -5 73 -4 4 -5 -3 -2 -15z
M3820 4265 c0 -3 2 -5 5 -5 3 0 5 2 5 5 0 3 -2 5 -5 5 -3 0 -5 -2 -5 -5z
M3414 4224 c-6 -19 -8 -34 -3 -34 8 0 24 59 17 65 -2 2 -8 -12 -14 -31z M3120
4245 c0 -3 2 -5 5 -5 3 0 5 2 5 5 0 3 -2 5 -5 5 -3 0 -5 -2 -5 -5z M3043 4216
c1 -11 9 -21 17 -23 10 -3 11 -2 4 4 -6 4 -14 15 -17 23 -5 11 -6 9 -4 -4z
M3160 4193 c0 -34 -3 -41 -15 -37 -18 7 -20 -12 -2 -20 6 -3 3 -5 -8 -3 -16 2
-19 8 -17 32 2 17 8 32 13 33 18 7 9 19 -13 18 -19 -1 -24 -8 -26 -39 -3 -38
-4 -38 -23 -21 -10 9 -22 14 -27 9 -4 -4 -1 -10 6 -12 6 -3 12 -10 12 -17 0
-14 55 -67 87 -85 12 -6 36 -12 54 -15 133 -17 200 -93 204 -231 1 -38 7 -82
13 -97 8 -20 8 -36 1 -55 -6 -16 -6 -30 -1 -35 6 -6 13 6 17 29 13 60 14 97 4
103 -11 8 -22 90 -21 164 1 32 -2 56 -5 52 -8 -7 -33 13 -33 26 0 6 7 5 15 -2
12 -10 15 -9 15 4 0 9 -11 21 -25 26 -14 5 -25 14 -25 19 0 5 -9 7 -20 4 -11
-3 -20 0 -20 6 0 6 -7 11 -15 11 -8 0 -15 6 -15 13 0 8 -4 7 -10 -3 -9 -13
-12 -13 -24 3 -8 10 -20 15 -30 11 -9 -3 -16 -1 -16 5 0 6 -7 11 -15 11 -21 0
-40 39 -26 53 14 14 14 47 1 67 -7 11 -10 4 -10 -27z m-10 -78 c0 -3 -2 -5 -5
-5 -3 0 -5 2 -5 5 0 3 2 5 5 5 3 0 5 -2 5 -5z m160 -85 c0 -5 -4 -10 -10 -10
-5 0 -10 5 -10 10 0 6 5 10 10 10 6 0 10 -4 10 -10z m100 -85 c0 -3 -2 -5 -5
-5 -3 0 -5 2 -5 5 0 3 2 5 5 5 3 0 5 -2 5 -5z M3480 4210 c0 -5 5 -10 11 -10
5 0 7 5 4 10 -3 6 -8 10 -11 10 -2 0 -4 -4 -4 -10z M3940 4215 c0 -3 2 -5 5
-5 3 0 5 2 5 5 0 3 -2 5 -5 5 -3 0 -5 -2 -5 -5z M4140 4215 c0 -3 2 -5 5 -5 3
0 5 2 5 5 0 3 -2 5 -5 5 -3 0 -5 -2 -5 -5z M3190 4205 c0 -3 2 -5 5 -5 3 0 5
2 5 5 0 3 -2 5 -5 5 -3 0 -5 -2 -5 -5z M3300 4205 c0 -3 2 -5 5 -5 3 0 5 2 5
5 0 3 -2 5 -5 5 -3 0 -5 -2 -5 -5z M3350 4205 c0 -3 2 -5 5 -5 3 0 5 2 5 5 0
3 -2 5 -5 5 -3 0 -5 -2 -5 -5z M4140 4190 c0 -7 3 -10 7 -7 3 4 3 10 0 14 -4
3 -7 0 -7 -7z M3130 4185 c0 -3 2 -5 5 -5 3 0 5 2 5 5 0 3 -2 5 -5 5 -3 0 -5
-2 -5 -5z M3451 4174 c0 -11 3 -14 6 -6 3 7 2 16 -1 19 -3 4 -6 -2 -5 -13z
M3487 4168 c-8 -30 -1 -35 12 -9 6 11 7 22 2 25 -5 3 -11 -4 -14 -16z M3605
4170 c-3 -5 -1 -10 4 -10 6 0 11 5 11 10 0 6 -2 10 -4 10 -3 0 -8 -4 -11 -10z
M3710 4170 c0 -5 5 -10 10 -10 6 0 10 5 10 10 0 6 -4 10 -10 10 -5 0 -10 -4
-10 -10z M3810 4155 c0 -14 -4 -25 -10 -25 -5 0 -10 -6 -10 -12 0 -19 18 -43
26 -35 4 3 1 14 -7 24 -12 14 -12 16 1 11 13 -5 15 1 12 28 -5 40 -12 45 -12
9z M3900 4175 c0 -3 2 -5 5 -5 3 0 5 2 5 5 0 3 -2 5 -5 5 -3 0 -5 -2 -5 -5z
M3940 4170 c0 -7 3 -10 7 -7 3 4 3 10 0 14 -4 3 -7 0 -7 -7z M2196 4153 c-6
-14 -5 -15 5 -6 7 7 10 15 7 18 -3 3 -9 -2 -12 -12z M3345 4161 c-3 -5 -1 -12
5 -16 5 -3 10 1 10 9 0 18 -6 21 -15 7z M3390 4160 c0 -5 5 -10 10 -10 6 0 10
5 10 10 0 6 -4 10 -10 10 -5 0 -10 -4 -10 -10z M3921 4154 c0 -11 3 -14 6 -6
3 7 2 16 -1 19 -3 4 -6 -2 -5 -13z M3840 4155 c0 -3 2 -5 5 -5 3 0 5 2 5 5 0
3 -2 5 -5 5 -3 0 -5 -2 -5 -5z M3559 4145 c-4 -5 -9 -26 -13 -45 -4 -23 -3
-28 2 -15 8 17 10 15 15 -13 4 -18 11 -32 16 -32 6 0 6 13 1 33 -5 17 -10 43
-12 57 -2 14 -6 21 -9 15z M3893 4143 c4 -3 10 -3 14 0 3 4 0 7 -7 7 -7 0 -10
-3 -7 -7z M3616 4124 c-8 -22 -8 -49 1 -40 5 4 13 -12 20 -36 l13 -43 -6 50
c-3 28 -10 51 -14 53 -5 2 -6 10 -3 18 3 8 3 14 0 14 -3 0 -8 -7 -11 -16z
M2200 4125 c0 -3 2 -5 5 -5 3 0 5 2 5 5 0 3 -2 5 -5 5 -3 0 -5 -2 -5 -5z
M3453 4123 c4 -3 10 -3 14 0 3 4 0 7 -7 7 -7 0 -10 -3 -7 -7z M3530 4125 c0
-3 2 -5 5 -5 3 0 5 2 5 5 0 3 -2 5 -5 5 -3 0 -5 -2 -5 -5z M3850 4123 c0 -13
26 -82 33 -89 4 -4 7 4 7 17 0 32 19 63 21 34 0 -11 3 -15 5 -8 3 7 1 20 -5
30 -6 10 -11 12 -11 6 0 -18 -20 -16 -20 2 0 8 -7 15 -15 15 -8 0 -15 -3 -15
-7z M3670 4113 c0 -4 5 -15 10 -23 8 -13 10 -13 10 2 0 9 -4 20 -10 23 -5 3
-10 3 -10 -2z M3710 4115 c0 -3 2 -5 5 -5 3 0 5 2 5 5 0 3 -2 5 -5 5 -3 0 -5
-2 -5 -5z M3480 4100 c-8 -5 -11 -12 -8 -16 10 -9 38 3 38 16 0 12 -10 13 -30
0z M3765 4100 c3 -5 1 -19 -5 -31 -13 -24 -4 -41 10 -19 13 20 12 60 -1 60 -5
0 -7 -4 -4 -10z M4170 4100 c0 -7 3 -10 7 -7 3 4 3 10 0 14 -4 3 -7 0 -7 -7z
M3950 4095 c0 -3 2 -5 5 -5 3 0 5 2 5 5 0 3 -2 5 -5 5 -3 0 -5 -2 -5 -5z
M4181 4064 c0 -11 3 -14 6 -6 3 7 2 16 -1 19 -3 4 -6 -2 -5 -13z M3785 4060
c-4 -6 -4 -14 -1 -17 3 -4 6 0 7 8 0 8 3 6 8 -5 5 -12 10 -15 14 -9 4 6 0 16
-7 22 -10 9 -16 9 -21 1z M3600 4050 c0 -7 3 -10 7 -7 3 4 3 10 0 14 -4 3 -7
0 -7 -7z M3475 4040 c-3 -6 1 -7 9 -4 18 7 21 14 7 14 -6 0 -13 -4 -16 -10z
M3551 4034 c0 -11 3 -14 6 -6 3 7 2 16 -1 19 -3 4 -6 -2 -5 -13z M3430 4015
c0 -3 2 -5 5 -5 3 0 5 2 5 5 0 3 -2 5 -5 5 -3 0 -5 -2 -5 -5z M3790 4010 c0
-7 3 -10 7 -7 3 4 3 10 0 14 -4 3 -7 0 -7 -7z M3810 4015 c0 -3 2 -5 5 -5 3 0
5 2 5 5 0 3 -2 5 -5 5 -3 0 -5 -2 -5 -5z M4174 3977 c1 -24 6 -44 11 -44 6 0
8 19 6 44 -4 56 -18 56 -17 0z M3763 4003 c4 -3 10 -3 14 0 3 4 0 7 -7 7 -7 0
-10 -3 -7 -7z M2723 3983 c-23 -9 -14 -21 22 -27 60 -12 28 -27 -43 -21 -37 3
-61 2 -55 -1 22 -10 -12 -34 -48 -34 -18 0 -30 -3 -26 -6 3 -3 -7 -17 -24 -31
-16 -14 -27 -29 -23 -34 3 -5 -4 -9 -16 -9 -12 0 -19 -4 -15 -9 3 -5 1 -12 -5
-16 -5 -3 -10 0 -10 7 0 10 -2 10 -9 -1 -5 -8 -7 -20 -4 -27 2 -7 0 -21 -6
-31 -10 -17 -10 -17 -12 0 -1 9 -2 23 -3 29 0 7 -10 14 -21 17 -16 3 -17 1 -8
-11 7 -8 10 -24 6 -36 -4 -16 -1 -22 11 -22 9 0 19 -7 22 -15 4 -8 10 -12 15
-9 5 3 9 0 9 -7 0 -10 3 -10 12 -1 7 7 18 12 25 12 16 0 53 31 53 45 0 5 18
23 40 38 22 16 40 33 40 38 0 5 6 9 13 9 7 0 21 14 30 30 10 17 24 30 30 30 7
0 23 6 37 13 32 16 140 22 140 8 0 -13 56 -15 64 -3 10 17 -12 32 -50 35 -21
1 -41 5 -44 8 -17 20 -121 43 -147 32z m87 -48 c0 -3 -2 -5 -5 -5 -3 0 -5 2
-5 5 0 3 2 5 5 5 3 0 5 -2 5 -5z m-263 -202 c-4 -3 -10 -3 -14 0 -3 4 0 7 7 7
7 0 10 -3 7 -7z M3560 3976 c0 -9 5 -16 10 -16 6 0 10 4 10 9 0 6 -4 13 -10
16 -5 3 -10 -1 -10 -9z M3802 3971 c-12 -10 -18 -22 -14 -27 4 -4 -1 -2 -10 5
-15 11 -18 11 -18 -2 0 -9 5 -19 10 -22 6 -4 8 -16 4 -27 -5 -18 -3 -20 17
-14 13 5 36 10 52 13 36 7 41 18 20 43 -18 20 -39 28 -28 10 3 -6 -4 -10 -17
-10 l-23 1 23 18 c12 11 22 22 22 25 0 11 -17 6 -38 -13z M3850 3980 c0 -7 3
-10 7 -7 3 4 3 10 0 14 -4 3 -7 0 -7 -7z M3667 3966 c-4 -10 -5 -21 -2 -24 9
-9 17 6 13 25 -3 17 -4 17 -11 -1z M3910 3975 c0 -3 2 -5 5 -5 3 0 5 2 5 5 0
3 -2 5 -5 5 -3 0 -5 -2 -5 -5z M3715 3960 c27 -12 43 -12 25 0 -8 5 -22 9 -30
9 -10 0 -8 -3 5 -9z M3880 3965 c0 -3 2 -5 5 -5 3 0 5 2 5 5 0 3 -2 5 -5 5 -3
0 -5 -2 -5 -5z M2333 3953 c4 -3 10 -3 14 0 3 4 0 7 -7 7 -7 0 -10 -3 -7 -7z
M3440 3935 c0 -3 2 -5 5 -5 3 0 5 2 5 5 0 3 -2 5 -5 5 -3 0 -5 -2 -5 -5z
M3590 3930 c0 -7 3 -10 7 -7 3 4 3 10 0 14 -4 3 -7 0 -7 -7z M3894 3914 c3 -8
6 -20 6 -25 0 -5 5 -9 10 -9 16 0 11 37 -6 44 -12 5 -15 2 -10 -10z M3740
3899 c0 -18 -4 -20 -26 -15 -16 4 -23 3 -20 -3 4 -5 -2 -14 -11 -20 -10 -6
-12 -11 -5 -11 6 0 12 -11 12 -25 0 -22 -2 -24 -26 -15 -34 13 -39 13 -25 -4
9 -10 8 -15 -4 -20 -8 -3 -15 -13 -15 -23 0 -14 5 -12 24 10 14 16 29 26 34
23 6 -3 20 8 33 24 13 16 32 30 43 30 14 0 17 5 12 23 -3 12 -6 28 -6 35 0 6
-4 12 -10 12 -5 0 -10 -9 -10 -21z M4151 3903 c-1 -12 4 -25 9 -28 12 -7 12 2
0 30 -8 19 -9 19 -9 -2z M3520 3905 c0 -3 2 -5 5 -5 3 0 5 2 5 5 0 3 -2 5 -5
5 -3 0 -5 -2 -5 -5z M3600 3905 c0 -3 2 -5 5 -5 3 0 5 2 5 5 0 3 -2 5 -5 5 -3
0 -5 -2 -5 -5z M3460 3891 c0 -6 4 -13 10 -16 6 -3 7 1 4 9 -7 18 -14 21 -14
7z M4192 3870 c-1 -19 -5 -46 -7 -60 l-6 -25 11 25 c6 13 9 40 7 60 l-4 35 -1
-35z M3560 3885 c0 -3 2 -5 5 -5 3 0 5 2 5 5 0 3 -2 5 -5 5 -3 0 -5 -2 -5 -5z
M2710 3875 c0 -3 2 -5 5 -5 3 0 5 2 5 5 0 3 -2 5 -5 5 -3 0 -5 -2 -5 -5z
M4171 3844 c0 -11 3 -14 6 -6 3 7 2 16 -1 19 -3 4 -6 -2 -5 -13z M3815 3840
c-3 -5 -2 -10 4 -10 6 0 8 -7 4 -15 -3 -9 -2 -15 3 -13 5 1 26 -4 47 -11 21
-7 41 -11 44 -8 3 3 16 -6 29 -21 19 -22 23 -24 24 -9 0 9 -4 17 -10 17 -5 0
-12 11 -16 25 -10 42 -110 76 -129 45z m115 -25 c0 -3 -2 -5 -5 -5 -3 0 -5 2
-5 5 0 3 2 5 5 5 3 0 5 -2 5 -5z M2187 3752 c-38 -120 -36 -139 18 -204 41
-49 43 -54 27 -66 -15 -12 -14 -13 9 -7 30 7 48 -10 30 -28 -17 -17 -13 -26 8
-20 33 9 20 -65 -24 -139 -56 -93 -55 -162 4 -275 23 -46 45 -100 48 -120 6
-45 35 -128 64 -185 16 -31 20 -55 17 -104 -2 -35 0 -64 4 -64 4 0 3 -12 -3
-26 -5 -15 -7 -29 -4 -32 3 -3 5 1 5 9 0 8 9 -4 20 -27 33 -67 71 -75 220 -49
111 19 127 19 147 -5 10 -11 27 -20 40 -20 12 0 34 -5 49 -10 15 -6 28 -9 30
-7 7 7 -9 46 -17 41 -5 -3 -7 -10 -4 -15 3 -5 -1 -6 -9 -3 -18 7 -11 30 11 38
14 6 14 8 1 24 -23 26 -29 73 -9 70 9 -1 21 0 26 4 6 3 16 0 23 -8 10 -11 10
-14 0 -14 -7 0 0 -11 16 -25 17 -14 36 -23 44 -20 7 3 24 5 37 5 16 0 24 7 27
23 4 20 1 23 -29 23 -18 0 -33 -4 -33 -8 0 -4 -9 -8 -20 -8 -19 0 -24 19 -7
31 4 3 -2 23 -13 45 -17 35 -20 37 -26 17 -3 -11 -14 -23 -24 -26 -16 -4 -18
-1 -13 24 4 22 2 29 -10 29 -8 0 -17 -6 -19 -12 -4 -10 -10 -10 -30 -1 -24 11
-28 8 -57 -26 -27 -32 -36 -37 -64 -33 -18 2 -39 13 -48 25 -21 26 -40 14 -33
-22 7 -32 -18 -48 -55 -36 -11 3 -22 1 -26 -5 -11 -18 -25 -11 -26 13 l0 22
-9 -22 c-12 -28 -30 -30 -37 -3 -3 11 -9 20 -14 20 -5 0 -8 3 -7 8 2 11 -14
46 -26 55 -7 5 -5 12 7 21 18 14 24 31 6 21 -7 -5 -9 8 -5 39 4 43 3 46 -15
41 -17 -6 -19 -1 -19 57 0 89 14 134 45 142 22 6 23 9 15 32 -13 32 3 64 31
64 11 0 31 7 44 16 14 9 34 14 45 11 11 -3 23 -1 26 4 3 5 19 9 36 9 27 0 30
-2 24 -25 -4 -14 -2 -25 4 -25 5 0 10 11 10 25 0 30 43 36 58 9 6 -11 11 -13
16 -5 4 6 23 11 42 11 27 0 34 -4 34 -19 0 -10 7 -22 16 -25 23 -9 27 -8 21 9
-4 8 -2 17 4 21 11 7 3 77 -13 107 -6 12 -16 15 -34 11 -13 -3 -30 -1 -38 5
-23 19 -48 2 -44 -30 5 -31 5 -32 -63 -29 -72 2 -175 -19 -195 -41 -9 -10 -25
-19 -35 -19 -11 0 -19 -9 -21 -22 -2 -17 -10 -23 -28 -23 -31 0 -38 31 -19 89
15 48 29 68 29 42 0 -15 6 -17 28 -13 15 3 54 11 87 17 103 18 104 18 98 40
-5 20 -27 27 -37 11 -7 -10 -56 -2 -73 12 -23 18 -14 27 27 27 47 0 104 26
139 64 13 14 28 23 32 20 5 -3 9 10 9 28 0 35 -51 98 -78 98 -17 0 -15 -17 4
-28 13 -7 15 -19 9 -59 -8 -62 -22 -70 -123 -76 -78 -5 -114 -23 -96 -49 20
-27 17 -68 -4 -68 -15 0 -19 5 -15 20 5 17 0 20 -26 20 -17 0 -31 -4 -31 -10
0 -5 9 -10 20 -10 17 0 19 -3 8 -19 -10 -16 -15 -18 -27 -8 -12 10 -14 9 -8
-5 3 -10 3 -18 -1 -18 -4 0 -13 -14 -21 -30 -15 -34 -34 -35 -39 -2 -2 12 -7
22 -12 22 -15 0 1 124 16 133 8 4 14 13 14 20 0 8 -3 7 -9 -2 -10 -15 -31 -7
-31 13 0 7 11 25 25 40 14 15 23 31 21 35 -3 4 6 43 20 87 14 43 21 80 16 82
-6 2 -8 12 -5 23 3 12 11 18 19 15 22 -8 28 38 13 103 -12 57 -13 58 -32 40
-15 -13 -25 -16 -38 -9 -24 13 -32 27 -19 35 5 3 10 1 10 -5 0 -6 4 -9 9 -6 5
3 7 15 4 27 -4 14 -9 17 -16 10 -14 -14 -37 -14 -37 0 0 5 5 7 12 3 7 -5 8 -3
4 5 -5 7 -10 10 -13 7 -13 -12 -31 19 -19 33 9 12 8 13 -3 7 -10 -7 -12 -3 -6
13 3 11 3 21 -2 21 -4 0 -20 -40 -36 -88z m50 -9 c-4 -3 -10 -3 -14 0 -3 4 0
7 7 7 7 0 10 -3 7 -7z m63 -142 c0 -11 -56 -32 -64 -24 -2 3 1 11 7 19 13 15
57 19 57 5z m14 -79 c2 -4 -2 -16 -10 -27 -13 -18 -14 -18 -14 8 0 25 13 36
24 19z m163 -378 c-3 -3 -12 -4 -19 -1 -8 3 -5 6 6 6 11 1 17 -2 13 -5z m-167
-129 c0 -3 -2 -5 -5 -5 -3 0 -5 2 -5 5 0 3 2 5 5 5 3 0 5 -2 5 -5z m30 -35
c-6 -11 -9 -24 -6 -29 3 -4 1 -21 -4 -37 -8 -29 -8 -28 -9 9 -1 35 13 77 25
77 2 0 0 -9 -6 -20z m-3 -127 c-4 -3 -10 -3 -14 0 -3 4 0 7 7 7 7 0 10 -3 7
-7z m3 -18 c0 -3 -2 -5 -5 -5 -3 0 -5 2 -5 5 0 3 2 5 5 5 3 0 5 -2 5 -5z m470
-330 c0 -3 -2 -5 -5 -5 -3 0 -5 2 -5 5 0 3 2 5 5 5 3 0 5 -2 5 -5z m40 -15 c0
-5 -4 -10 -10 -10 -5 0 -10 5 -10 10 0 6 5 10 10 10 6 0 10 -4 10 -10z m5 -30
c-3 -5 -10 -10 -16 -10 -5 0 -9 5 -9 10 0 6 7 10 16 10 8 0 12 -4 9 -10z m25
-15 c0 -3 -2 -5 -5 -5 -3 0 -5 2 -5 5 0 3 2 5 5 5 3 0 5 -2 5 -5z m-80 -40 c0
-3 -2 -5 -5 -5 -3 0 -5 2 -5 5 0 3 2 5 5 5 3 0 5 -2 5 -5z M3480 3805 c0 -3 2
-5 5 -5 3 0 5 2 5 5 0 3 -2 5 -5 5 -3 0 -5 -2 -5 -5z M2703 3787 c-23 -7 -51
-22 -63 -34 -11 -13 -24 -23 -29 -23 -4 0 -8 -6 -9 -12 -1 -7 -4 -33 -8 -58
-5 -36 -3 -49 11 -60 15 -12 19 -12 29 1 6 9 22 19 36 24 42 12 70 34 70 55 0
23 -4 24 -31 9 -11 -5 -17 -14 -14 -20 4 -5 1 -9 -4 -9 -21 0 -10 37 14 48 14
6 25 18 25 27 0 15 41 14 110 -5 l25 -7 -32 -17 c-48 -24 -40 -29 10 -7 23 11
51 23 62 26 19 6 19 7 -5 20 l-25 14 30 1 c43 1 63 15 39 27 -27 14 -191 14
-241 0z m147 -16 c14 -4 -20 -8 -80 -8 -60 0 -96 3 -85 8 25 10 131 9 165 0z
M3390 3795 c0 -3 2 -5 5 -5 3 0 5 2 5 5 0 3 -2 5 -5 5 -3 0 -5 -2 -5 -5z
M3747 3786 c-30 -31 -14 -64 26 -54 11 2 12 9 3 37 -11 32 -13 33 -29 17z
M3596 3767 c3 -10 9 -15 12 -12 3 3 0 11 -7 18 -10 9 -11 8 -5 -6z M4140 3775
c0 -3 2 -5 5 -5 3 0 5 2 5 5 0 3 -2 5 -5 5 -3 0 -5 -2 -5 -5z M4167 3773 c-4
-3 -7 -11 -7 -17 0 -6 5 -5 12 2 6 6 9 14 7 17 -3 3 -9 2 -12 -2z M3536 3755
c-3 -8 -1 -15 4 -15 6 0 10 -4 10 -10 0 -5 -7 -10 -16 -10 -9 0 -12 -5 -8 -12
5 -9 2 -9 -9 1 -21 17 -25 -7 -5 -27 9 -9 9 -12 0 -12 -7 0 -12 -7 -12 -15 0
-8 4 -15 9 -15 4 0 6 -12 3 -26 -3 -16 -7 -21 -12 -14 -8 14 -30 -40 -30 -74
0 -20 1 -20 20 4 l20 25 0 -32 c0 -17 -5 -33 -10 -35 -7 -2 -5 -11 4 -23 13
-19 15 -18 21 20 4 22 11 45 15 50 8 10 19 88 22 148 0 15 5 27 11 27 5 0 3 8
-4 17 -12 14 -12 16 0 8 11 -6 13 -4 8 9 -4 10 -7 20 -7 22 0 11 -29 2 -34
-11z m4 -80 c0 -3 -2 -5 -5 -5 -3 0 -5 2 -5 5 0 3 2 5 5 5 3 0 5 -2 5 -5z
M2935 3750 c-8 -13 5 -13 25 0 13 8 13 10 -2 10 -9 0 -20 -4 -23 -10z M3962
3716 c7 -8 15 -12 17 -11 5 6 -10 25 -20 25 -5 0 -4 -6 3 -14z M2774 3668 c-4
-7 -3 -8 4 -4 7 4 12 9 12 12 0 8 -9 4 -16 -8z M3720 3635 c0 -38 4 -47 23
-54 12 -5 26 -6 30 -4 5 3 22 -1 39 -8 28 -11 30 -15 25 -53 l-6 -41 14 35 c7
19 14 40 14 47 1 15 -39 54 -96 94 l-43 30 0 -46z M2829 3627 c-55 -37 -125
-59 -161 -52 -31 7 -32 6 -13 -9 11 -8 38 -16 60 -16 48 0 165 52 165 74 0 26
-16 27 -51 3z m31 -2 c0 -3 -2 -5 -5 -5 -3 0 -5 2 -5 5 0 3 2 5 5 5 3 0 5 -2
5 -5z M3463 3635 c-3 -9 -3 -19 1 -22 3 -4 6 1 6 10 0 8 6 18 13 20 9 4 9 6
-1 6 -7 1 -15 -6 -19 -14z M3664 3606 c-3 -9 -2 -22 4 -29 18 -23 23 -94 7
-107 -18 -15 -20 -70 -2 -70 6 1 26 7 42 15 l30 13 -26 1 c-15 1 -29 7 -32 15
-7 16 21 59 33 51 5 -3 11 -1 15 5 3 5 2 10 -3 10 -5 0 -12 17 -16 38 -7 47
-42 85 -52 58z M3395 3563 c-17 -13 -17 -15 -2 -10 12 5 20 0 27 -16 5 -12 9
-15 9 -7 0 8 -3 23 -7 32 -6 15 -9 15 -27 1z M3930 3530 c0 -7 3 -10 7 -7 3 4
3 10 0 14 -4 3 -7 0 -7 -7z M3908 3491 c-9 -10 -24 -24 -34 -29 -21 -12 -13
-27 10 -19 16 7 51 55 44 62 -2 2 -11 -4 -20 -14z M3370 3471 c-13 -24 -13
-51 -1 -51 5 0 13 10 16 21 4 12 10 17 14 12 3 -6 13 -13 21 -16 12 -4 11 -6
-2 -6 -22 -1 -24 -29 -3 -37 8 -4 15 -13 15 -22 0 -12 4 -10 17 7 l16 24 8
-21 c5 -12 14 -22 20 -22 8 0 8 4 -1 15 -6 8 -9 19 -5 25 3 6 -3 10 -15 10
-13 0 -20 5 -17 13 2 6 14 11 25 10 15 -2 20 2 16 12 -4 8 -17 15 -29 15 -13
0 -25 6 -28 13 -2 6 -3 4 -2 -5 2 -10 -3 -18 -12 -18 -8 0 -11 5 -8 10 3 6 -1
10 -10 10 -9 0 -13 5 -10 10 3 6 2 10 -4 10 -6 0 -15 -9 -21 -19z m60 -56 c0
-3 -2 -5 -5 -5 -3 0 -5 2 -5 5 0 3 2 5 5 5 3 0 5 -2 5 -5z M3825 3420 c-3 -5
-2 -10 4 -10 5 0 13 5 16 10 3 6 2 10 -4 10 -5 0 -13 -4 -16 -10z M3650 3361
c0 -11 26 -22 34 -14 3 3 3 10 0 14 -7 12 -34 11 -34 0z M3706 3335 c-4 -10 1
-15 14 -15 11 0 20 7 20 15 0 8 -6 15 -14 15 -8 0 -16 -7 -20 -15z M3423 3333
c4 -3 10 -3 14 0 3 4 0 7 -7 7 -7 0 -10 -3 -7 -7z M3476 3313 c9 -38 11 -40
34 -46 19 -5 19 -4 -3 34 -26 45 -40 51 -31 12z M3336 3295 c7 -33 24 -58 24
-34 -1 7 -7 25 -15 39 l-15 25 6 -30z M3430 3315 c0 -3 2 -5 5 -5 3 0 5 2 5 5
0 3 -2 5 -5 5 -3 0 -5 -2 -5 -5z M2314 3278 c-4 -7 -3 -8 4 -4 7 4 12 9 12 12
0 8 -9 4 -16 -8z M3597 3273 c-4 -3 -7 -20 -7 -36 0 -26 2 -28 16 -16 14 11
18 10 29 -5 8 -10 19 -15 25 -11 7 4 4 13 -10 25 -11 9 -20 25 -20 34 0 16
-21 22 -33 9z M2781 3240 c22 -29 49 -47 49 -31 0 8 -56 61 -65 61 -3 0 4 -13
16 -30z M2340 3251 c0 -5 7 -11 14 -14 10 -4 13 -1 9 9 -6 15 -23 19 -23 5z
M3460 3255 c0 -3 2 -5 5 -5 3 0 5 2 5 5 0 3 -2 5 -5 5 -3 0 -5 -2 -5 -5z
M2293 3226 c-10 -11 -9 -15 2 -20 10 -4 15 1 15 14 0 23 -1 24 -17 6z M2373
3213 c4 -3 10 -3 14 0 3 4 0 7 -7 7 -7 0 -10 -3 -7 -7z M3470 3215 c0 -3 2 -5
5 -5 3 0 5 2 5 5 0 3 -2 5 -5 5 -3 0 -5 -2 -5 -5z M3459 3189 c-10 -6 -7 -9
14 -9 29 0 35 5 14 13 -8 3 -20 1 -28 -4z M2316 3167 c3 -10 9 -15 12 -12 3 3
0 11 -7 18 -10 9 -11 8 -5 -6z M2645 3150 c-3 -5 -2 -10 4 -10 5 0 13 5 16 10
3 6 2 10 -4 10 -5 0 -13 -4 -16 -10z M3510 3115 c0 -3 2 -5 5 -5 3 0 5 2 5 5
0 3 -2 5 -5 5 -3 0 -5 -2 -5 -5z M3550 3115 c0 -3 2 -5 5 -5 3 0 5 2 5 5 0 3
-2 5 -5 5 -3 0 -5 -2 -5 -5z M3573 3083 c4 -3 10 -3 14 0 3 4 0 7 -7 7 -7 0
-10 -3 -7 -7z M3330 3050 c0 -7 3 -10 7 -7 3 4 3 10 0 14 -4 3 -7 0 -7 -7z
M3560 3040 c0 -7 3 -10 7 -7 3 4 3 10 0 14 -4 3 -7 0 -7 -7z M3530 3030 c0 -7
3 -10 7 -7 3 4 3 10 0 14 -4 3 -7 0 -7 -7z M3493 3023 c4 -3 10 -3 14 0 3 4 0
7 -7 7 -7 0 -10 -3 -7 -7z M2550 2993 c-14 -9 -31 -23 -38 -30 -7 -7 -18 -13
-24 -13 -6 0 -9 -2 -6 -5 8 -9 118 47 112 57 -8 12 -17 10 -44 -9z M3520 2977
c-19 -27 -28 -32 -51 -29 -25 4 -29 1 -29 -19 0 -17 3 -20 11 -12 19 19 79
-16 79 -47 0 -13 1 -13 10 0 5 8 9 29 9 45 -1 17 -3 22 -6 13 -5 -22 -30 -24
-30 -3 0 8 4 12 8 9 4 -2 11 10 15 28 7 32 8 33 15 8 l7 -25 1 27 c1 40 -14
42 -39 5z M2630 2943 c0 -5 -45 -32 -100 -59 -90 -44 -100 -52 -100 -76 0 -42
34 -56 71 -29 15 12 34 21 42 21 15 0 37 40 37 66 0 9 14 29 31 45 18 16 29
32 25 36 -3 3 -6 2 -6 -4z M3410 2945 c0 -3 2 -5 5 -5 3 0 5 2 5 5 0 3 -2 5
-5 5 -3 0 -5 -2 -5 -5z M3440 2895 c0 -3 2 -5 5 -5 3 0 5 2 5 5 0 3 -2 5 -5 5
-3 0 -5 -2 -5 -5z M3485 2880 c-18 -8 -17 -9 8 -9 15 -1 27 4 27 9 0 12 -8 12
-35 0z M3850 2875 c0 -3 2 -5 5 -5 3 0 5 2 5 5 0 3 -2 5 -5 5 -3 0 -5 -2 -5
-5z M3470 2856 c0 -9 40 -13 46 -5 3 5 -6 9 -20 9 -14 0 -26 -2 -26 -4z M3493
2823 c9 -9 20 -13 24 -9 4 4 1 11 -7 16 -25 16 -35 11 -17 -7z M3850 2835 c0
-3 2 -5 5 -5 3 0 5 2 5 5 0 3 -2 5 -5 5 -3 0 -5 -2 -5 -5z M2830 2785 c0 -3 2
-5 5 -5 3 0 5 2 5 5 0 3 -2 5 -5 5 -3 0 -5 -2 -5 -5z M3428 2776 c-10 -7 -15
-16 -11 -19 6 -7 -11 -11 -34 -8 -7 1 -13 -3 -13 -9 0 -5 -7 -10 -15 -10 -8 0
-15 -9 -15 -20 0 -12 -12 -26 -30 -35 -35 -18 -36 -21 -11 -28 11 -2 28 3 38
12 20 19 25 21 49 21 10 0 14 6 11 14 -7 18 18 40 34 30 8 -4 9 -3 5 4 -4 6 2
19 13 29 32 27 12 45 -21 19z m-58 -71 c0 -3 -2 -5 -5 -5 -3 0 -5 2 -5 5 0 3
2 5 5 5 3 0 5 -2 5 -5z M3291 2716 c-14 -17 -1 -28 19 -16 11 7 12 12 4 20 -8
8 -14 7 -23 -4z M2760 2705 c0 -3 2 -5 5 -5 3 0 5 2 5 5 0 3 -2 5 -5 5 -3 0
-5 -2 -5 -5z M3405 2700 c3 -5 10 -10 16 -10 5 0 9 5 9 10 0 6 -7 10 -16 10
-8 0 -12 -4 -9 -10z M3270 2685 c0 -3 2 -5 5 -5 3 0 5 2 5 5 0 3 -2 5 -5 5 -3
0 -5 -2 -5 -5z M2650 2660 c0 -19 3 -21 12 -12 9 9 9 15 0 24 -9 9 -12 7 -12
-12z M2776 2671 c-4 -5 -2 -12 3 -15 5 -4 12 -2 15 3 4 5 2 12 -3 15 -5 4 -12
2 -15 -3z M2815 2670 c-3 -5 -1 -10 4 -10 6 0 11 5 11 10 0 6 -2 10 -4 10 -3
0 -8 -4 -11 -10z M2863 2673 c4 -3 10 -3 14 0 3 4 0 7 -7 7 -7 0 -10 -3 -7 -7z
M3084 2654 c3 -9 6 -20 6 -25 0 -14 28 -11 32 3 5 15 -15 38 -32 38 -7 0 -9
-7 -6 -16z M2900 2651 c0 -5 5 -13 10 -16 6 -3 10 -2 10 4 0 5 -4 13 -10 16
-5 3 -10 2 -10 -4z M4014 2653 c4 -7 9 -38 11 -69 3 -47 8 -61 35 -87 51 -50
55 -21 9 69 -22 43 -45 84 -51 89 -8 7 -9 6 -4 -2z m36 -88 c0 -3 -2 -5 -5 -5
-3 0 -5 2 -5 5 0 3 2 5 5 5 3 0 5 -2 5 -5z m0 -40 c0 -3 -2 -5 -5 -5 -3 0 -5
2 -5 5 0 3 2 5 5 5 3 0 5 -2 5 -5z m37 -42 c-4 -3 -7 0 -7 7 0 7 3 10 7 7 3
-4 3 -10 0 -14z M2863 2643 c4 -3 10 -3 14 0 3 4 0 7 -7 7 -7 0 -10 -3 -7 -7z
M2680 2615 c0 -3 2 -5 5 -5 3 0 5 2 5 5 0 3 -2 5 -5 5 -3 0 -5 -2 -5 -5z
M3007 2613 c-11 -10 28 -73 45 -73 9 0 20 -4 23 -10 9 -15 51 -12 65 5 7 8 23
15 36 15 14 0 41 15 62 35 l37 34 -52 1 c-47 0 -79 -13 -52 -22 5 -2 7 -11 4
-20 -6 -16 -9 -16 -31 -1 -19 12 -24 13 -24 2 0 -11 -3 -11 -11 1 -8 11 -12
12 -15 3 -6 -13 -54 3 -54 18 0 9 -26 19 -33 12z M2440 2605 c0 -3 2 -5 5 -5
3 0 5 2 5 5 0 3 -2 5 -5 5 -3 0 -5 -2 -5 -5z M2680 2595 c0 -3 2 -5 5 -5 3 0
5 2 5 5 0 3 -2 5 -5 5 -3 0 -5 -2 -5 -5z M2967 2594 c-4 -4 -7 -14 -7 -23 0
-11 3 -12 11 -4 6 6 10 16 7 23 -2 6 -7 8 -11 4z M2470 2515 c0 -3 2 -5 5 -5
3 0 5 2 5 5 0 3 -2 5 -5 5 -3 0 -5 -2 -5 -5z M4148 2471 c8 -4 14 -12 15 -17
1 -5 12 -7 24 -6 17 3 20 -1 17 -16 -6 -21 20 -47 37 -36 8 5 7 10 -5 16 -13
7 -14 13 -6 23 8 10 1 16 -36 29 -53 18 -66 20 -46 7z m22 -16 c0 -3 -2 -5 -5
-5 -3 0 -5 2 -5 5 0 3 2 5 5 5 3 0 5 -2 5 -5z M2900 2435 c0 -3 2 -5 5 -5 3 0
5 2 5 5 0 3 -2 5 -5 5 -3 0 -5 -2 -5 -5z M4080 2420 c0 -7 3 -10 7 -7 3 4 3
10 0 14 -4 3 -7 0 -7 -7z M4240 2425 c0 -3 2 -5 5 -5 3 0 5 2 5 5 0 3 -2 5 -5
5 -3 0 -5 -2 -5 -5z M4270 2404 c0 -12 11 -24 29 -31 23 -8 28 -8 25 2 -3 7
-15 16 -27 20 -13 4 -17 8 -10 11 7 3 25 -4 39 -15 15 -12 23 -21 18 -21 -5 0
4 -11 20 -25 33 -29 54 -32 63 -10 5 14 8 14 25 -2 20 -18 23 -19 72 -21 24
-2 27 -4 16 -17 -11 -13 -10 -14 4 -9 9 3 16 10 16 15 0 5 7 9 15 9 22 0 18
18 -6 31 -32 16 -147 48 -153 42 -3 -3 -21 2 -41 11 -59 28 -105 32 -105 10z
m139 -44 c-6 -5 -18 -6 -26 -3 -19 8 -16 11 13 11 17 0 22 -3 13 -8z M4100
2400 c0 -7 3 -10 7 -7 3 4 3 10 0 14 -4 3 -7 0 -7 -7z M2913 2393 c4 -3 10 -3
14 0 3 4 0 7 -7 7 -7 0 -10 -3 -7 -7z M3070 2380 c0 -5 5 -10 10 -10 6 0 10 5
10 10 0 6 -4 10 -10 10 -5 0 -10 -4 -10 -10z M2975 2370 c-3 -5 0 -13 9 -16
22 -8 62 -1 56 11 -7 14 -57 18 -65 5z M4240 2375 c0 -3 2 -5 5 -5 3 0 5 2 5
5 0 3 -2 5 -5 5 -3 0 -5 -2 -5 -5z M4090 2365 c0 -3 2 -5 5 -5 3 0 5 2 5 5 0
3 -2 5 -5 5 -3 0 -5 -2 -5 -5z M4285 2360 c3 -5 8 -10 11 -10 3 0 2 5 -1 10
-3 6 -8 10 -11 10 -3 0 -2 -4 1 -10z M2691 2342 c-19 -3 -21 -6 -10 -13 11 -7
10 -11 -9 -24 -12 -9 -20 -21 -17 -26 9 -13 45 8 45 26 0 8 9 15 20 15 11 0
20 6 20 13 0 14 -7 15 -49 9z M2751 2311 c-29 -56 -26 -65 4 -12 14 24 23 46
21 48 -3 3 -14 -13 -25 -36z M2820 2300 c-6 -25 -15 -61 -21 -80 -13 -51 -12
-63 7 -56 18 7 18 19 -2 -259 -7 -92 1 -114 12 -34 7 52 11 59 19 33 14 -43
55 -124 64 -124 5 0 17 -3 26 -7 23 -8 12 30 -16 58 -25 25 -24 37 6 51 31 14
33 60 6 139 -10 30 -30 108 -46 174 -35 152 -40 162 -55 105z M4162 2268 c2
-43 9 -83 16 -90 16 -16 28 -2 12 17 -10 12 -10 15 1 15 12 0 12 2 1 9 -8 5
-16 33 -19 62 -7 83 -16 73 -11 -13z M4435 2300 c3 -5 8 -10 11 -10 2 0 4 5 4
10 0 6 -5 10 -11 10 -5 0 -7 -4 -4 -10z M4604 2277 c-5 -12 -7 -26 -5 -31 1
-5 -4 -13 -11 -17 -10 -7 -10 -11 0 -21 10 -10 14 -10 21 1 5 7 14 10 20 7 6
-4 8 -13 4 -19 -5 -9 -3 -9 8 0 12 10 18 10 28 0 8 -7 15 -8 17 -2 2 6 30 9
65 7 68 -4 73 9 11 28 -20 7 -63 25 -94 41 l-57 28 -7 -22z M2628 2273 c17 -7
15 -28 -3 -43 -13 -11 -14 -10 -10 3 9 22 -16 33 -30 14 -7 -10 -21 -17 -31
-17 -30 0 -64 -12 -64 -21 0 -5 10 -9 23 -9 12 0 29 -4 37 -10 9 -6 17 -5 22
3 5 8 8 6 8 -5 0 -21 16 -24 23 -5 4 9 8 9 15 -2 8 -11 12 -10 23 8 8 11 19
21 25 21 6 0 17 7 25 16 17 21 -8 39 -31 21 -8 -6 -12 -7 -8 -3 9 11 -10 36
-26 35 -7 0 -6 -2 2 -6z m52 -38 c0 -3 -2 -5 -5 -5 -3 0 -5 2 -5 5 0 3 2 5 5
5 3 0 5 -2 5 -5z m-60 -30 c0 -3 -2 -5 -5 -5 -3 0 -5 2 -5 5 0 3 2 5 5 5 3 0
5 -2 5 -5z m20 -10 c0 -3 -2 -5 -5 -5 -3 0 -5 2 -5 5 0 3 2 5 5 5 3 0 5 -2 5
-5z M2500 2265 c0 -3 2 -5 5 -5 3 0 5 2 5 5 0 3 -2 5 -5 5 -3 0 -5 -2 -5 -5z
M2463 2253 c4 -3 10 -3 14 0 3 4 0 7 -7 7 -7 0 -10 -3 -7 -7z M2540 2250 c0
-7 3 -10 7 -7 3 4 3 10 0 14 -4 3 -7 0 -7 -7z M2418 2243 c7 -3 16 -2 19 1 4
3 -2 6 -13 5 -11 0 -14 -3 -6 -6z M2716 2235 c-9 -26 -7 -32 5 -12 6 10 9 21
6 23 -2 3 -7 -2 -11 -11z M2262 2210 c-34 -9 -64 -19 -65 -21 -1 -2 -15 -19
-32 -37 -25 -28 -27 -33 -11 -30 11 1 31 13 44 26 28 25 44 29 36 8 -6 -16 32
-11 41 5 3 4 12 6 20 2 11 -3 15 2 16 18 0 22 1 22 8 4 8 -19 8 -19 20 3 11
21 8 43 -7 41 -4 -1 -35 -9 -70 -19z M3633 2203 c4 -3 10 -3 14 0 3 4 0 7 -7
7 -7 0 -10 -3 -7 -7z M2700 2190 c0 -7 3 -10 7 -7 3 4 3 10 0 14 -4 3 -7 0 -7
-7z M4867 2193 c-9 -2 -15 -8 -12 -13 4 -7 -37 -22 -67 -24 -3 -1 -10 -4 -14
-8 -4 -5 -14 -8 -22 -8 -8 0 -22 -9 -32 -20 -12 -14 -26 -18 -49 -15 -18 2
-29 0 -26 -6 4 -5 15 -9 25 -9 12 0 17 -5 14 -14 -6 -14 22 -30 37 -20 5 3 9
12 9 19 0 15 34 38 43 29 3 -3 16 2 30 11 14 8 29 15 33 14 5 -1 23 3 39 10
69 27 111 45 120 53 9 8 -96 9 -128 1z m-150 -110 c-4 -3 -10 -3 -14 0 -3 4 0
7 7 7 7 0 10 -3 7 -7z M2441 2176 c12 -10 60 -16 54 -6 -3 5 -18 10 -32 10
-15 0 -24 -2 -22 -4z M4480 2175 c0 -3 2 -5 5 -5 3 0 5 2 5 5 0 3 -2 5 -5 5
-3 0 -5 -2 -5 -5z M2420 2165 c0 -3 2 -5 5 -5 3 0 5 2 5 5 0 3 -2 5 -5 5 -3 0
-5 -2 -5 -5z M2555 2160 c-19 -7 -19 -8 -2 -15 10 -4 23 -3 29 3 14 14 -3 21
-27 12z M2064 2144 c-18 -15 -18 -15 6 -10 14 3 29 6 33 6 5 0 5 5 2 10 -9 14
-18 13 -41 -6z M2681 2143 c-1 -6 -4 -20 -7 -30 -5 -17 -5 -17 6 0 6 10 9 23
6 30 -3 9 -5 9 -5 0z M4240 2140 c0 -5 5 -10 11 -10 5 0 7 5 4 10 -3 6 -8 10
-11 10 -2 0 -4 -4 -4 -10z M2505 2130 c-3 -5 3 -10 14 -10 11 0 23 -5 27 -12
5 -8 0 -9 -17 -4 -89 25 -148 15 -203 -33 -15 -13 -40 -16 -144 -13 l-126 2
-41 -39 c-22 -21 -56 -46 -75 -56 -40 -19 -107 -92 -95 -103 4 -4 10 -1 12 6
9 25 56 73 87 89 17 8 50 33 74 55 l43 40 117 -7 c116 -7 117 -7 156 20 57 39
85 47 136 40 43 -7 43 -7 21 -19 -21 -12 -22 -14 -5 -20 15 -6 16 -9 4 -16 -8
-5 -17 -7 -21 -4 -4 2 -10 0 -14 -6 -4 -6 -10 -8 -15 -5 -5 3 -8 -7 -7 -22 2
-24 -2 -28 -26 -31 -23 -3 -26 -6 -16 -18 6 -8 16 -14 22 -14 6 0 19 -7 29
-17 17 -15 18 -15 18 8 0 18 3 20 9 10 5 -8 7 -20 4 -27 -3 -9 9 -11 46 -9 28
1 51 0 51 -4 0 -4 11 -8 25 -9 24 -2 24 -1 7 17 -9 10 -20 16 -23 15 -3 -2
-29 6 -58 16 -63 24 -71 25 -72 3 0 -11 -3 -13 -6 -5 -2 6 -12 12 -21 12 -9 0
4 13 29 28 54 35 134 102 122 102 -5 0 -16 11 -23 25 -14 26 -34 33 -45 15z
m52 -207 c-4 -3 -10 -3 -14 0 -3 4 0 7 7 7 7 0 10 -3 7 -7z M4180 2121 c0 -10
6 -24 14 -31 8 -6 13 -17 11 -23 -3 -7 2 -30 10 -52 8 -22 14 -34 15 -27 0 7
4 11 9 7 5 -3 12 -1 16 5 3 5 1 10 -6 10 -8 0 -8 4 -1 13 7 8 6 18 -4 31 -7
10 -11 23 -7 29 3 6 1 7 -4 4 -6 -4 -19 3 -29 15 -17 19 -17 21 -2 15 12 -4
15 -2 11 9 -8 21 -33 17 -33 -5z m60 -82 c0 -18 -18 -9 -23 12 -4 16 -3 18 9
8 8 -6 14 -15 14 -20z M1980 2112 c-19 -10 -34 -24 -32 -31 2 -9 -3 -11 -14
-7 -12 5 -26 -3 -46 -24 -37 -41 -36 -48 5 -18 17 13 40 27 50 31 10 4 15 12
11 18 -4 8 0 9 15 4 12 -4 21 -2 21 4 0 6 5 11 11 11 5 0 7 -5 3 -12 -4 -7 -3
-8 5 -4 6 4 8 12 5 18 -5 7 -1 9 9 5 11 -4 17 -1 17 8 0 20 -17 19 -60 -3z
M4466 2121 c-4 -5 3 -7 14 -4 23 6 26 13 6 13 -8 0 -17 -4 -20 -9z M2050 2115
c0 -3 2 -5 5 -5 3 0 5 2 5 5 0 3 -2 5 -5 5 -3 0 -5 -2 -5 -5z M2324 2108 c-4
-7 -3 -8 4 -4 7 4 12 9 12 12 0 8 -9 4 -16 -8z M3590 2115 c0 -3 2 -5 5 -5 3
0 5 2 5 5 0 3 -2 5 -5 5 -3 0 -5 -2 -5 -5z M4270 2110 c0 -5 5 -10 11 -10 5 0
7 5 4 10 -3 6 -8 10 -11 10 -2 0 -4 -4 -4 -10z M4543 2113 c4 -3 10 -3 14 0 3
4 0 7 -7 7 -7 0 -10 -3 -7 -7z M4575 2110 c3 -4 14 -10 25 -13 11 -3 18 -2 15
3 -3 4 -14 10 -25 13 -11 3 -18 2 -15 -3z M2160 2095 c0 -3 2 -5 5 -5 3 0 5 2
5 5 0 3 -2 5 -5 5 -3 0 -5 -2 -5 -5z M2203 2093 c9 -2 23 -2 30 0 6 3 -1 5
-18 5 -16 0 -22 -2 -12 -5z M3600 2095 c0 -3 2 -5 5 -5 3 0 5 2 5 5 0 3 -2 5
-5 5 -3 0 -5 -2 -5 -5z M4460 2095 c-1 -5 -2 -13 -2 -17 1 -3 -5 -12 -13 -18
-8 -7 -15 -17 -15 -23 0 -34 -83 -48 -134 -22 -33 18 -44 14 -20 -6 10 -8 43
-15 83 -15 50 -1 65 -5 63 -15 -2 -8 -1 -11 3 -7 4 3 6 9 5 13 -1 3 6 17 14
31 9 13 14 24 10 24 -4 0 -1 7 7 16 14 18 42 15 103 -11 25 -11 35 -19 27 -24
-6 -4 -9 -15 -6 -23 6 -16 50 -40 58 -32 3 3 38 7 78 10 41 2 103 8 139 13
l65 9 -70 -4 c-38 -2 -96 -7 -128 -10 -41 -4 -63 -2 -74 8 -14 11 -16 11 -9
-1 6 -8 -1 -7 -18 4 -15 10 -24 20 -22 23 3 3 12 -1 21 -8 11 -9 15 -9 15 -1
0 7 4 10 9 6 5 -3 12 -1 15 4 3 5 -3 11 -14 14 -11 3 -18 1 -14 -4 8 -14 0
-11 -61 21 -31 17 -67 30 -80 30 -13 0 -26 6 -28 13 -3 6 -6 8 -7 2z m-30 -90
c0 -3 -2 -5 -5 -5 -3 0 -5 2 -5 5 0 3 2 5 5 5 3 0 5 -2 5 -5z M4530 2085 c0
-3 2 -5 5 -5 3 0 5 2 5 5 0 3 -2 5 -5 5 -3 0 -5 -2 -5 -5z M4657 2060 c15 -16
31 -30 36 -30 4 0 -6 14 -23 30 -17 17 -33 30 -36 30 -3 0 7 -13 23 -30z
M4310 2065 c0 -3 2 -5 5 -5 3 0 5 2 5 5 0 3 -2 5 -5 5 -3 0 -5 -2 -5 -5z
M4268 2048 c9 -9 15 -9 24 0 9 9 7 12 -12 12 -19 0 -21 -3 -12 -12z M2627
2037 c-11 -29 -9 -43 4 -30 6 6 9 19 7 29 -3 18 -4 18 -11 1z M4913 2033 c4
-3 10 -3 14 0 3 4 0 7 -7 7 -7 0 -10 -3 -7 -7z M4320 2025 c0 -3 2 -5 5 -5 3
0 5 2 5 5 0 3 -2 5 -5 5 -3 0 -5 -2 -5 -5z M2258 2013 c6 -2 18 -2 25 0 6 3 1
5 -13 5 -14 0 -19 -2 -12 -5z M1807 1993 c-23 -27 -64 -113 -79 -166 -11 -41
-10 -49 2 -57 13 -8 12 -10 -3 -10 -10 0 -15 -5 -12 -10 4 -6 1 -18 -7 -27
-12 -15 -11 -15 8 -5 21 11 21 10 18 -76 -3 -98 12 -188 52 -312 15 -47 28
-87 29 -90 0 -3 4 -10 7 -16 20 -31 71 -188 93 -287 36 -155 35 -154 46 -134
12 21 10 30 -45 221 -25 88 -46 164 -46 170 0 6 -13 38 -30 71 -16 32 -26 62
-22 65 4 3 8 21 9 40 2 35 2 35 -8 8 -16 -42 -24 -35 -44 40 -13 47 -19 100
-18 182 0 122 20 293 33 285 6 -4 50 39 50 50 0 13 -30 3 -40 -12 -9 -15 -10
-14 -4 7 3 14 12 32 19 40 31 39 25 59 -8 23z M2740 2000 c0 -7 3 -10 7 -7 3
4 3 10 0 14 -4 3 -7 0 -7 -7z M1920 1995 c0 -3 2 -5 5 -5 3 0 5 2 5 5 0 3 -2
5 -5 5 -3 0 -5 -2 -5 -5z M2003 1975 c-10 -15 -26 -35 -35 -46 -10 -11 -15
-26 -11 -35 5 -13 3 -15 -7 -9 -8 5 -11 4 -6 -3 3 -6 2 -13 -4 -17 -5 -3 -10
-14 -9 -23 0 -14 2 -13 9 3 5 11 24 37 43 58 32 36 54 83 43 94 -2 2 -12 -8
-23 -22z M2140 1980 c0 -7 3 -10 7 -7 3 4 3 10 0 14 -4 3 -7 0 -7 -7z M2610
1985 c0 -3 2 -5 5 -5 3 0 5 2 5 5 0 3 -2 5 -5 5 -3 0 -5 -2 -5 -5z M4948 1983
c12 -2 30 -2 40 0 9 3 -1 5 -23 4 -22 0 -30 -2 -17 -4z M3630 1968 c0 -18 12
-33 33 -41 43 -16 1 -94 -73 -133 -68 -36 -116 -78 -137 -120 -14 -26 -17 -41
-10 -40 29 6 69 27 90 47 12 11 38 29 58 39 19 10 41 26 48 34 8 9 19 16 27
16 7 0 19 6 26 13 27 28 68 50 68 37 0 -7 8 -10 20 -7 13 3 20 0 20 -9 0 -11
11 -13 53 -8 28 4 59 7 67 7 8 0 21 4 28 10 10 8 16 7 24 -4 7 -11 11 -11 15
-2 3 10 8 9 20 -2 11 -12 18 -13 29 -4 7 6 18 8 23 5 5 -4 13 -1 17 5 4 7 21
9 44 5 25 -4 42 -1 56 10 10 8 12 12 4 8 -10 -5 -12 -4 -5 4 6 6 30 12 54 14
27 2 46 9 49 17 3 10 -3 12 -24 8 -16 -3 -60 -10 -99 -17 -38 -6 -99 -16 -134
-22 -36 -6 -66 -7 -70 -2 -3 5 -34 10 -68 11 -81 2 -140 29 -189 87 -37 45
-64 59 -64 34z m57 -145 c-4 -3 -10 -3 -14 0 -3 4 0 7 7 7 7 0 10 -3 7 -7z
M4548 1973 c-27 -7 -17 -47 13 -52 23 -3 23 -2 7 16 -14 15 -15 22 -6 31 7 7
10 11 8 11 -3 -1 -13 -3 -22 -6z M4843 1973 c4 -3 10 -3 14 0 3 4 0 7 -7 7 -7
0 -10 -3 -7 -7z M2330 1960 c-18 -12 -2 -12 25 0 13 6 15 9 5 9 -8 0 -22 -4
-30 -9z M4380 1965 c0 -3 2 -5 5 -5 3 0 5 2 5 5 0 3 -2 5 -5 5 -3 0 -5 -2 -5
-5z M2120 1955 c0 -3 2 -5 5 -5 3 0 5 2 5 5 0 3 -2 5 -5 5 -3 0 -5 -2 -5 -5z
M2590 1955 c0 -3 2 -5 5 -5 3 0 5 2 5 5 0 3 -2 5 -5 5 -3 0 -5 -2 -5 -5z
M4240 1951 c0 -13 28 -33 33 -24 3 5 3 13 -1 18 -9 13 -32 17 -32 6z M4392
1934 c-7 -13 -12 -33 -11 -42 0 -14 2 -13 9 3 8 18 9 18 10 -5 l1 -25 15 28
c13 23 13 30 1 47 -13 19 -14 19 -25 -6z M2150 1945 c0 -3 2 -5 5 -5 3 0 5 2
5 5 0 3 -2 5 -5 5 -3 0 -5 -2 -5 -5z M2336 1941 c-4 -5 -4 -16 0 -24 3 -8 -2
-17 -11 -21 -9 -3 -14 -10 -10 -15 6 -11 36 -3 46 12 4 5 22 12 40 16 l34 8
-39 16 c-44 19 -53 21 -60 8z M3123 1943 c4 -3 10 -3 14 0 3 4 0 7 -7 7 -7 0
-10 -3 -7 -7z M4978 1943 c7 -3 16 -2 19 1 4 3 -2 6 -13 5 -11 0 -14 -3 -6 -6z
M2110 1930 c0 -5 5 -10 10 -10 6 0 10 5 10 10 0 6 -4 10 -10 10 -5 0 -10 -4
-10 -10z M4910 1935 c0 -3 2 -5 5 -5 3 0 5 2 5 5 0 3 -2 5 -5 5 -3 0 -5 -2 -5
-5z M3310 1920 c0 -7 3 -10 7 -7 3 4 3 10 0 14 -4 3 -7 0 -7 -7z M3350 1925
c0 -3 2 -5 5 -5 3 0 5 2 5 5 0 3 -2 5 -5 5 -3 0 -5 -2 -5 -5z M3435 1920 c3
-5 8 -10 11 -10 3 0 2 5 -1 10 -3 6 -8 10 -11 10 -3 0 -2 -4 1 -10z M2233
1913 c4 -3 10 -3 14 0 3 4 0 7 -7 7 -7 0 -10 -3 -7 -7z M3280 1915 c0 -3 2 -5
5 -5 3 0 5 2 5 5 0 3 -2 5 -5 5 -3 0 -5 -2 -5 -5z M4286 1907 c3 -10 9 -15 12
-12 3 3 0 11 -7 18 -10 9 -11 8 -5 -6z M4753 1901 c-21 -10 -32 -23 -32 -36 1
-15 2 -16 6 -4 2 9 21 23 41 31 20 7 32 16 27 20 -6 3 -25 -2 -42 -11z M2210
1905 c0 -3 2 -5 5 -5 3 0 5 2 5 5 0 3 -2 5 -5 5 -3 0 -5 -2 -5 -5z M3344 1900
c-12 -4 -24 -17 -28 -27 -6 -17 -5 -17 8 0 10 13 21 16 42 11 26 -7 28 -6 15
9 -7 10 -14 17 -15 16 0 0 -10 -4 -22 -9z M4940 1900 c0 -5 5 -10 10 -10 6 0
10 5 10 10 0 6 -4 10 -10 10 -5 0 -10 -4 -10 -10z M2017 1885 c-4 -8 -3 -16 1
-19 4 -3 9 4 9 15 2 23 -3 25 -10 4z M2110 1895 c0 -3 2 -5 5 -5 3 0 5 2 5 5
0 3 -2 5 -5 5 -3 0 -5 -2 -5 -5z M2263 1893 c-7 -2 -13 -11 -13 -19 0 -8 -6
-14 -14 -14 -8 0 -16 -7 -20 -15 -3 -9 -12 -12 -22 -8 -13 5 -16 3 -11 -10 3
-9 3 -17 -2 -17 -19 0 -50 -37 -40 -47 8 -8 7 -13 0 -17 -6 -4 -11 -2 -11 3 0
6 -5 11 -11 11 -6 0 -9 -6 -6 -14 7 -19 -25 -27 -41 -10 -6 7 -9 20 -6 29 5
11 2 14 -10 9 -26 -10 -19 6 19 42 42 40 47 64 6 35 -47 -34 -60 -82 -47 -178
13 -97 20 -107 40 -58 25 58 139 205 161 205 7 0 20 15 29 34 9 19 22 37 29
39 8 4 7 5 -3 5 -8 0 -21 -2 -27 -5z m-83 -97 c0 -3 -5 -8 -12 -12 -7 -4 -8
-3 -4 4 7 12 16 16 16 8z M2637 1889 c7 -7 15 -10 18 -7 3 3 -2 9 -12 12 -14
6 -15 5 -6 -5z M2720 1875 c0 -3 2 -5 5 -5 3 0 5 2 5 5 0 3 -2 5 -5 5 -3 0 -5
-2 -5 -5z M3287 1849 c7 -7 15 -10 18 -7 3 3 -2 9 -12 12 -14 6 -15 5 -6 -5z
M3340 1852 c0 -42 60 -85 85 -61 8 8 -6 14 -28 10 -5 -1 -6 2 -3 7 3 5 -8 19
-24 31 -17 12 -30 18 -30 13z m40 -37 c0 -3 -2 -5 -5 -5 -3 0 -5 2 -5 5 0 3 2
5 5 5 3 0 5 -2 5 -5z M4383 1845 c-7 -8 -10 -21 -7 -30 4 -9 -2 -29 -15 -45
-30 -41 -26 -43 14 -6 26 24 35 41 35 64 0 35 -8 39 -27 17z M1817 1815 c-22
-47 -22 -62 2 -41 22 20 32 49 22 65 -4 7 -14 -3 -24 -24z M1978 1826 c-6 -12
-16 -24 -22 -28 -7 -5 -6 -8 4 -8 19 1 44 20 52 41 9 24 -21 19 -34 -5z M3286
1813 c-6 -14 -5 -15 5 -6 7 7 10 15 7 18 -3 3 -9 -2 -12 -12z M4585 1800 c3
-5 8 -10 11 -10 2 0 4 5 4 10 0 6 -5 10 -11 10 -5 0 -7 -4 -4 -10z M4480 1795
c0 -3 2 -5 5 -5 3 0 5 2 5 5 0 3 -2 5 -5 5 -3 0 -5 -2 -5 -5z M4865 1790 c-3
-5 -1 -10 4 -10 6 0 11 5 11 10 0 6 -2 10 -4 10 -3 0 -8 -4 -11 -10z M1933
1750 c4 -14 0 -20 -11 -21 -11 0 -12 -2 -4 -6 6 -2 12 -14 11 -26 0 -21 -1
-21 -8 -2 -7 17 -9 15 -16 -15 -5 -19 -10 -48 -11 -65 -1 -16 -5 -43 -10 -60
-7 -28 -6 -29 10 -12 10 10 19 29 20 42 0 14 7 27 14 30 7 2 12 17 10 32 -1
16 2 39 6 53 4 14 10 32 12 41 3 9 -3 19 -12 23 -13 5 -15 2 -11 -14z m-13
-95 c0 -3 -2 -5 -5 -5 -3 0 -5 2 -5 5 0 3 2 5 5 5 3 0 5 -2 5 -5z M2950 1765
c0 -3 2 -5 5 -5 3 0 5 2 5 5 0 3 -2 5 -5 5 -3 0 -5 -2 -5 -5z M4760 1749 c0
-5 -9 -9 -20 -9 -11 0 -20 -5 -20 -11 0 -6 -7 -17 -15 -25 -8 -9 -15 -24 -15
-35 0 -17 -41 -133 -59 -169 -11 -21 -43 -130 -47 -160 -2 -14 -10 -59 -18
-100 -17 -86 -19 -111 -8 -108 4 0 15 -2 25 -7 25 -11 29 -2 13 29 -9 19 -11
37 -5 59 64 249 85 315 94 306 2 -2 -1 -25 -6 -51 -11 -48 -8 -116 3 -88 3 8
16 77 29 153 13 78 27 137 33 137 15 0 61 69 52 77 -10 11 -36 12 -36 2z
M1810 1729 c-15 -28 -7 -34 14 -10 11 12 13 21 7 25 -5 4 -15 -3 -21 -15z
M2196 1723 c9 -37 9 -37 36 -19 12 9 17 16 10 16 -8 0 -10 5 -6 13 5 7 2 7
-10 -2 -13 -11 -16 -11 -14 -1 2 7 -3 15 -10 17 -10 4 -11 -2 -6 -24z M4370
1740 c0 -5 5 -10 10 -10 6 0 10 5 10 10 0 6 -4 10 -10 10 -5 0 -10 -4 -10 -10z
M2260 1725 c7 -8 19 -15 27 -15 12 0 12 2 -1 15 -8 8 -20 15 -27 15 -9 0 -8
-4 1 -15z M4150 1725 c0 -3 2 -5 5 -5 3 0 5 2 5 5 0 3 -2 5 -5 5 -3 0 -5 -2
-5 -5z M4828 1703 c-6 -16 -19 -47 -29 -70 -11 -24 -19 -50 -19 -58 0 -8 -5
-15 -11 -15 -8 0 -8 -4 0 -14 7 -8 8 -16 3 -18 -14 -5 -24 -58 -12 -58 6 0 9
4 5 9 -3 5 1 15 8 23 15 15 42 76 43 98 2 36 17 100 24 100 4 0 10 7 14 15 10
28 -14 15 -26 -12z m-18 -111 c0 -5 -7 -17 -15 -28 -14 -18 -14 -17 -4 9 12
27 19 34 19 19z M2310 1715 c0 -3 2 -5 5 -5 3 0 5 2 5 5 0 3 -2 5 -5 5 -3 0
-5 -2 -5 -5z M4370 1715 c0 -3 2 -5 5 -5 3 0 5 2 5 5 0 3 -2 5 -5 5 -3 0 -5
-2 -5 -5z M2330 1696 c0 -9 5 -16 10 -16 6 0 10 4 10 9 0 6 -4 13 -10 16 -5 3
-10 -1 -10 -9z M3060 1702 c1 -25 156 -87 188 -75 10 4 13 2 8 -5 -4 -7 -3
-12 3 -12 22 0 20 20 -3 26 -13 3 -27 13 -31 21 -5 14 -3 14 11 2 16 -13 16
-12 5 9 l-13 24 -22 -21 c-26 -25 -34 -26 -55 -7 -20 18 -91 47 -91 38z M4145
1700 c3 -5 8 -10 11 -10 2 0 4 5 4 10 0 6 -5 10 -11 10 -5 0 -7 -4 -4 -10z
M2303 1693 c-7 -3 -13 -12 -13 -21 0 -15 2 -15 17 1 18 18 16 27 -4 20z M3240
1695 c0 -3 2 -5 5 -5 3 0 5 2 5 5 0 3 -2 5 -5 5 -3 0 -5 -2 -5 -5z M4360 1695
c0 -3 2 -5 5 -5 3 0 5 2 5 5 0 3 -2 5 -5 5 -3 0 -5 -2 -5 -5z M3260 1685 c0
-3 2 -5 5 -5 3 0 5 2 5 5 0 3 -2 5 -5 5 -3 0 -5 -2 -5 -5z M4330 1670 c0 -5 5
-10 10 -10 6 0 10 5 10 10 0 6 -4 10 -10 10 -5 0 -10 -4 -10 -10z M4500 1654
c-15 -38 -12 -46 9 -32 15 9 17 15 9 25 -7 9 -7 13 1 13 6 0 11 5 11 10 0 20
-21 9 -30 -16z M1656 1644 c-18 -25 -18 -25 3 -12 12 7 21 18 21 25 0 18 -2
16 -24 -13z M4150 1665 c0 -3 2 -5 5 -5 3 0 5 2 5 5 0 3 -2 5 -5 5 -3 0 -5 -2
-5 -5z M4905 1660 c-8 -13 5 -13 25 0 13 8 13 10 -2 10 -9 0 -20 -4 -23 -10z
M2413 1643 c4 -3 10 -3 14 0 3 4 0 7 -7 7 -7 0 -10 -3 -7 -7z M2630 1645 c0
-3 2 -5 5 -5 3 0 5 2 5 5 0 3 -2 5 -5 5 -3 0 -5 -2 -5 -5z M3310 1635 c0 -3 2
-5 5 -5 3 0 5 2 5 5 0 3 -2 5 -5 5 -3 0 -5 -2 -5 -5z M1664 1619 c-3 -6 -2
-15 3 -20 5 -5 9 -1 9 11 0 23 -2 24 -12 9z M2150 1625 c0 -3 2 -5 5 -5 3 0 5
2 5 5 0 3 -2 5 -5 5 -3 0 -5 -2 -5 -5z M2148 1599 c-16 -15 -28 -35 -28 -44 0
-9 -4 -14 -9 -11 -5 4 -7 -4 -3 -16 3 -14 2 -19 -6 -14 -7 4 -12 3 -12 -2 0
-5 -13 -8 -30 -7 -25 2 -30 -1 -30 -19 0 -26 36 -86 51 -86 8 0 9 -14 5 -44
-5 -28 -3 -47 4 -51 8 -5 7 -11 -2 -23 -8 -10 -9 -13 -1 -9 13 8 26 -23 18
-45 -3 -7 5 -24 18 -36 l23 -22 -4 38 c-3 20 -10 40 -16 44 -7 5 -3 8 8 8 17
0 16 5 -12 33 -18 18 -32 37 -32 41 0 5 9 -3 21 -18 27 -34 35 -33 33 7 -2 62
-4 68 -15 61 -8 -4 -8 -9 0 -17 16 -16 14 -32 -2 -18 -8 6 -17 8 -20 4 -23
-22 -1 78 32 149 30 65 51 134 38 127 -1 -1 -14 -14 -29 -30z m-13 -278 c-6
-5 -25 10 -25 20 0 5 6 4 14 -3 8 -7 12 -15 11 -17z M4400 1599 c0 -19 4 -40
8 -46 5 -8 8 4 7 27 -1 48 -15 67 -15 19z M4921 1580 c-29 -27 -57 -50 -62
-50 -5 0 -9 -6 -9 -13 0 -8 -9 -22 -19 -31 -17 -16 -61 -96 -61 -112 0 -3 13
7 29 22 17 15 28 30 26 33 -1 3 9 15 23 25 14 11 22 14 18 8 -4 -7 -2 -12 3
-12 6 0 11 5 11 11 0 6 16 27 35 47 74 79 85 93 85 107 0 27 -25 16 -79 -35z
M1770 1590 c0 -18 4 -29 10 -25 6 3 10 15 10 25 0 10 -4 22 -10 25 -6 4 -10
-7 -10 -25z M3290 1615 c0 -3 2 -5 5 -5 3 0 5 2 5 5 0 3 -2 5 -5 5 -3 0 -5 -2
-5 -5z M4320 1610 c0 -7 3 -10 7 -7 3 4 3 10 0 14 -4 3 -7 0 -7 -7z M4451
1591 c-8 -17 -11 -34 -8 -38 8 -7 29 46 24 60 -2 6 -9 -4 -16 -22z M1629 1585
c-3 -11 -3 -31 1 -45 5 -22 7 -23 13 -7 4 11 5 23 1 28 -3 5 0 9 5 9 6 0 11 5
11 11 0 5 -4 8 -9 5 -5 -4 -11 -1 -13 6 -3 7 -7 4 -9 -7z M2960 1595 c0 -3 2
-5 5 -5 3 0 5 2 5 5 0 3 -2 5 -5 5 -3 0 -5 -2 -5 -5z M1860 1586 c-3 -3 -2
-42 3 -88 4 -46 9 -110 11 -143 3 -68 15 -129 23 -121 3 3 9 41 14 83 4 43 11
89 15 102 7 22 6 23 -8 10 -9 -7 -14 -17 -11 -21 2 -5 0 -8 -6 -8 -11 0 -30
84 -34 148 -1 24 -4 41 -7 38z M3333 1562 c-12 -9 -41 -46 -63 -81 -27 -41
-44 -60 -49 -52 -5 8 -13 6 -26 -9 -22 -24 -13 -39 12 -19 17 13 17 13 0 -11
-9 -14 -26 -42 -37 -62 -11 -20 -24 -39 -30 -43 -15 -9 -12 -25 5 -25 8 0 15
-4 15 -10 0 -5 -6 -7 -13 -4 -8 3 -13 -6 -15 -26 -2 -20 3 -33 13 -36 14 -6
14 -9 -2 -26 -14 -16 -15 -23 -5 -38 14 -23 -14 -159 -44 -208 -25 -43 -16
-54 88 -107 51 -27 101 -53 110 -59 14 -8 23 -5 46 18 l30 27 28 -29 c16 -17
63 -58 104 -92 41 -33 87 -71 102 -83 28 -24 77 -64 268 -219 69 -56 127 -105
130 -108 25 -26 194 -162 218 -174 38 -19 48 -20 33 -3 -8 10 -7 17 1 25 9 9
9 12 0 12 -7 0 -12 -4 -12 -10 0 -5 -7 -10 -15 -10 -13 0 -20 23 -16 57 1 7
-7 9 -19 6 -13 -4 -26 1 -34 12 -9 12 -18 15 -27 10 -12 -8 -12 -6 0 8 12 15
9 19 -22 32 -20 8 -46 29 -59 45 -12 17 -28 28 -34 26 -7 -3 -15 5 -18 17 -3
12 -19 30 -35 40 -16 9 -33 27 -37 39 -6 21 -7 21 -20 3 -8 -10 -17 -15 -21
-11 -4 4 -1 11 6 15 9 6 10 11 2 15 -6 4 -9 11 -6 16 3 4 -2 13 -10 20 -12 10
-15 9 -15 -5 0 -12 -5 -15 -16 -11 -9 3 -18 6 -21 6 -3 0 0 6 6 14 8 10 9 16
1 21 -5 3 -10 3 -10 -1 0 -17 -29 33 -30 51 l-1 20 -9 -20 c-7 -18 -8 -19 -15
-3 -4 10 -11 16 -15 13 -4 -3 -10 2 -14 10 -3 8 -10 15 -16 15 -6 0 -18 7 -27
15 -8 8 -18 13 -23 10 -4 -3 -6 4 -3 15 4 14 0 20 -10 20 -21 0 -78 50 -71 61
3 6 -5 7 -20 3 -14 -3 -26 -2 -26 3 0 14 -82 93 -97 93 -7 0 -13 5 -13 11 0 6
-7 9 -15 5 -37 -14 -63 104 -30 138 8 8 15 20 15 26 0 6 18 19 41 29 25 11 36
21 27 24 -9 4 -8 6 3 6 30 2 62 45 191 256 44 72 54 123 29 149 -12 13 -18 26
-14 29 3 4 1 7 -6 7 -7 0 -11 6 -8 14 3 8 -1 17 -9 20 -22 8 -26 7 -19 -4 3
-5 1 -10 -5 -10 -16 0 -173 81 -167 86 3 3 19 -2 37 -11 18 -9 34 -15 36 -12
2 2 -13 12 -34 21 -31 14 -48 16 -90 8 -28 -5 -53 -6 -54 -1 -2 4 -13 0 -25
-9z m133 -94 c4 -5 16 -8 26 -8 10 0 21 -7 24 -15 4 -8 14 -15 23 -15 24 -1
66 -36 52 -44 -6 -4 -11 -18 -11 -32 0 -13 -4 -24 -10 -24 -5 0 -10 -6 -10
-13 0 -18 -24 -67 -32 -67 -5 0 -8 5 -8 11 0 7 -11 -5 -25 -25 -30 -45 -31
-49 -5 -41 32 10 23 -2 -22 -29 -34 -20 -46 -23 -62 -14 -18 10 -19 9 -8 -4
10 -13 10 -17 0 -20 -7 -3 -1 -7 14 -10 15 -3 25 -2 23 2 -3 4 2 13 10 20 12
10 13 8 10 -9 -2 -12 -7 -26 -10 -31 -14 -22 8 -8 51 34 28 28 43 50 38 57 -5
8 -3 9 6 4 8 -5 11 -3 8 6 -3 8 -11 13 -17 12 -6 -2 -11 1 -11 7 0 5 10 9 22
7 21 -2 46 25 131 143 39 55 -1 -12 -80 -132 -46 -71 -88 -128 -93 -128 -5 0
-16 -7 -25 -16 -14 -14 -22 -15 -60 -4 -24 7 -47 10 -52 7 -5 -3 -15 -1 -23 5
-12 8 -12 9 3 4 40 -13 10 6 -95 61 -61 32 -105 59 -96 61 9 2 33 -6 54 -17
35 -19 40 -19 61 -5 21 13 26 13 45 -1 l22 -15 -21 0 c-31 0 -19 -22 23 -41
36 -17 54 -10 29 11 -8 7 -15 21 -15 31 0 11 -5 19 -11 19 -6 0 -8 7 -5 16 3
9 2 12 -5 9 -6 -4 -26 -4 -45 -1 -27 6 -34 11 -34 31 0 32 14 65 40 95 12 14
24 37 27 53 6 27 34 52 46 40 4 -3 9 1 12 9 6 15 77 20 91 6z m229 -58 c3 -5
1 -10 -4 -10 -6 0 -11 5 -11 10 0 6 2 10 4 10 3 0 8 -4 11 -10z m-75 -15 c0
-3 -2 -5 -5 -5 -3 0 -5 2 -5 5 0 3 2 5 5 5 3 0 5 -2 5 -5z m-38 -97 c-7 -7
-12 -8 -12 -2 0 14 12 26 19 19 2 -3 -1 -11 -7 -17z m-307 -78 c-3 -5 -12 -7
-20 -3 -21 7 -19 13 6 13 11 0 18 -4 14 -10z m-25 -15 c0 -3 -2 -5 -5 -5 -3 0
-5 2 -5 5 0 3 2 5 5 5 3 0 5 -2 5 -5z m80 -30 c0 -3 -2 -5 -5 -5 -3 0 -5 2 -5
5 0 3 2 5 5 5 3 0 5 -2 5 -5z m35 -25 c3 -5 4 -10 1 -10 -3 0 -8 5 -11 10 -3
6 -4 10 -1 10 3 0 8 -4 11 -10z m-177 -21 c-9 -6 -5 -9 13 -9 15 0 32 -7 39
-15 7 -9 15 -14 17 -11 8 8 118 -60 113 -69 -6 -13 -25 -8 -80 19 -75 37 -136
79 -122 84 6 2 10 8 7 13 -4 5 1 6 10 2 13 -5 14 -7 3 -14z m309 14 c-4 -3
-10 -3 -14 0 -3 4 0 7 7 7 7 0 10 -3 7 -7z m-217 -8 c0 -3 -2 -5 -5 -5 -3 0
-5 2 -5 5 0 3 2 5 5 5 3 0 5 -2 5 -5z m20 -10 c0 -3 -2 -5 -5 -5 -3 0 -5 2 -5
5 0 3 2 5 5 5 3 0 5 -2 5 -5z m20 -10 c0 -3 -2 -5 -5 -5 -3 0 -5 2 -5 5 0 3 2
5 5 5 3 0 5 -2 5 -5z m90 -40 c0 -3 -2 -5 -5 -5 -3 0 -5 2 -5 5 0 3 2 5 5 5 3
0 5 -2 5 -5z m-15 -25 c3 -5 4 -10 1 -10 -3 0 -8 5 -11 10 -3 6 -4 10 -1 10 3
0 8 -4 11 -10z m-105 -30 c0 -5 -8 -6 -17 -3 -16 6 -16 5 -5 -10 8 -8 19 -14
25 -11 18 6 35 -39 25 -65 -4 -13 -13 -19 -19 -15 -6 3 -15 0 -20 -7 -6 -9 -9
-10 -9 -2 0 6 5 15 10 18 6 3 10 11 10 17 0 7 -4 7 -14 -1 -10 -8 -19 -6 -40
10 -34 27 -34 55 2 67 36 14 52 14 52 2z m40 -15 c0 -3 -2 -5 -5 -5 -3 0 -5 2
-5 5 0 3 2 5 5 5 3 0 5 -2 5 -5z m-100 -180 c0 -8 -39 4 -79 24 -22 12 -41 26
-41 31 0 5 27 -4 60 -21 33 -16 60 -31 60 -34z m100 -30 c0 -3 -2 -5 -5 -5 -3
0 -5 2 -5 5 0 3 2 5 5 5 3 0 5 -2 5 -5z m240 -130 c0 -3 -2 -5 -5 -5 -3 0 -5
2 -5 5 0 3 2 5 5 5 3 0 5 -2 5 -5z m220 -180 c0 -3 -2 -5 -5 -5 -3 0 -5 2 -5
5 0 3 2 5 5 5 3 0 5 -2 5 -5z M3520 1410 c0 -7 3 -10 7 -7 3 4 3 10 0 14 -4 3
-7 0 -7 -7z M3361 1364 c0 -11 3 -14 6 -6 3 7 2 16 -1 19 -3 4 -6 -2 -5 -13z
M3420 1370 c0 -7 3 -10 7 -7 3 4 3 10 0 14 -4 3 -7 0 -7 -7z M3380 1350 c0 -5
5 -10 10 -10 6 0 10 5 10 10 0 6 -4 10 -10 10 -5 0 -10 -4 -10 -10z M3270
1325 c0 -3 2 -5 5 -5 3 0 5 2 5 5 0 3 -2 5 -5 5 -3 0 -5 -2 -5 -5z M3564 1218
c-4 -7 -3 -8 4 -4 12 7 16 16 8 16 -3 0 -8 -5 -12 -12z M3270 1185 c0 -3 2 -5
5 -5 3 0 5 2 5 5 0 3 -2 5 -5 5 -3 0 -5 -2 -5 -5z M3440 1125 c0 -3 2 -5 5 -5
3 0 5 2 5 5 0 3 -2 5 -5 5 -3 0 -5 -2 -5 -5z M3246 1001 c-4 -7 -5 -15 -2 -18
9 -9 19 4 14 18 -4 11 -6 11 -12 0z M1680 1565 c0 -3 2 -5 5 -5 3 0 5 2 5 5 0
3 -2 5 -5 5 -3 0 -5 -2 -5 -5z M4970 1565 c0 -3 2 -5 5 -5 3 0 5 2 5 5 0 3 -2
5 -5 5 -3 0 -5 -2 -5 -5z M4160 1555 c0 -3 2 -5 5 -5 3 0 5 2 5 5 0 3 -2 5 -5
5 -3 0 -5 -2 -5 -5z M1775 1539 c-10 -15 4 -101 16 -94 12 8 12 92 0 100 -5 3
-13 0 -16 -6z M1944 1525 c-5 -20 -9 -23 -15 -13 -7 10 -9 10 -9 -2 0 -38 18
-42 30 -6 7 21 10 40 6 43 -3 3 -8 -7 -12 -22z M4823 1543 c4 -3 10 -3 14 0 3
4 0 7 -7 7 -7 0 -10 -3 -7 -7z M3550 1535 c0 -3 2 -5 5 -5 3 0 5 2 5 5 0 3 -2
5 -5 5 -3 0 -5 -2 -5 -5z M4390 1535 c0 -3 2 -5 5 -5 3 0 5 2 5 5 0 3 -2 5 -5
5 -3 0 -5 -2 -5 -5z M3570 1526 c0 -2 7 -7 16 -10 8 -3 12 -2 9 4 -6 10 -25
14 -25 6z M1601 1503 c3 -32 -1 -44 -11 -38 -5 3 -10 0 -10 -9 0 -8 -3 -21 -6
-29 -7 -19 37 -17 61 3 20 16 19 40 -1 40 -8 0 -13 4 -10 9 8 12 -4 41 -16 41
-5 0 -8 -8 -7 -17z M2723 1513 c4 -3 10 -3 14 0 3 4 0 7 -7 7 -7 0 -10 -3 -7
-7z M3610 1505 c0 -3 2 -5 5 -5 3 0 5 2 5 5 0 3 -2 5 -5 5 -3 0 -5 -2 -5 -5z
M4390 1500 c0 -7 3 -10 7 -7 3 4 3 10 0 14 -4 3 -7 0 -7 -7z M4985 1497 c-4
-10 -5 -21 -1 -24 10 -10 18 4 13 24 -4 17 -4 17 -12 0z M2185 1490 c3 -5 10
-10 16 -10 5 0 9 5 9 10 0 6 -7 10 -16 10 -8 0 -12 -4 -9 -10z M1910 1475 c0
-3 2 -5 5 -5 3 0 5 2 5 5 0 3 -2 5 -5 5 -3 0 -5 -2 -5 -5z M4367 1460 c-3 -11
-1 -20 4 -20 5 0 9 2 9 4 0 2 3 11 6 20 3 9 2 16 -4 16 -5 0 -12 -9 -15 -20z
M1665 1450 c-3 -5 -2 -10 4 -10 5 0 13 5 16 10 3 6 2 10 -4 10 -5 0 -13 -4
-16 -10z M1700 1455 c0 -3 2 -5 5 -5 3 0 5 2 5 5 0 3 -2 5 -5 5 -3 0 -5 -2 -5
-5z M3690 1455 c0 -3 2 -5 5 -5 3 0 5 2 5 5 0 3 -2 5 -5 5 -3 0 -5 -2 -5 -5z
M4410 1456 c0 -2 7 -6 15 -10 8 -3 15 -1 15 4 0 6 -7 10 -15 10 -8 0 -15 -2
-15 -4z M4740 1428 c-6 -18 -14 -73 -16 -123 -3 -49 -11 -103 -17 -119 -13
-34 -11 -81 4 -149 14 -59 7 -86 -18 -66 -14 12 -16 12 -9 -1 4 -8 1 -7 -7 3
-8 10 -25 19 -37 20 -13 1 -26 11 -32 27 -10 24 -11 24 -18 5 -4 -11 -6 -23
-4 -26 2 -3 -8 -11 -22 -18 -15 -6 -23 -7 -19 -1 3 5 -3 10 -14 10 -12 0 -21
5 -21 10 0 6 -11 16 -25 22 -14 6 -25 17 -25 25 0 7 -6 13 -12 14 -7 1 -28 2
-46 4 -37 3 -134 42 -144 59 -5 7 -8 7 -8 -3 0 -8 -8 -4 -20 10 -11 14 -19 18
-20 11 0 -7 -4 -10 -10 -7 -5 3 -10 3 -10 -2 0 -8 91 -53 265 -133 50 -22 97
-45 107 -50 9 -5 32 -7 51 -3 22 3 45 -1 66 -11 17 -9 78 -22 136 -28 97 -11
107 -11 123 6 16 17 16 18 -18 14 -19 -3 -43 -8 -53 -13 -16 -7 -18 -2 -15 56
3 54 6 64 20 63 10 -1 15 3 12 8 -4 6 2 8 15 3 12 -4 21 -2 21 4 0 6 8 10 18
9 48 -4 62 2 62 27 0 33 -38 43 -81 21 -17 -9 -53 -19 -80 -22 -40 -5 -49 -10
-51 -28 0 -11 -2 -33 -3 -49 -3 -41 -10 -42 -35 -2 -35 57 -23 153 35 288 9
22 11 36 6 32 -6 -3 -11 -13 -11 -21 0 -8 -4 -12 -10 -9 -5 3 -7 0 -5 -7 3 -8
-1 -22 -9 -33 -15 -19 -15 -18 -16 15 0 37 15 138 25 171 11 33 -13 20 -25
-13z M4960 1449 c0 -5 -4 -7 -10 -4 -5 3 -10 -1 -10 -9 0 -10 -6 -13 -15 -10
-9 4 -15 0 -15 -10 0 -10 9 -16 25 -16 16 0 25 6 25 15 0 9 10 15 23 16 20 1
20 2 2 7 l-20 5 20 8 c19 7 19 8 -2 8 -13 1 -23 -4 -23 -10z M2000 1435 c0 -3
2 -5 5 -5 3 0 5 2 5 5 0 3 -2 5 -5 5 -3 0 -5 -2 -5 -5z M3740 1425 c0 -3 2 -5
5 -5 3 0 5 2 5 5 0 3 -2 5 -5 5 -3 0 -5 -2 -5 -5z M4390 1425 c0 -3 2 -5 5 -5
3 0 5 2 5 5 0 3 -2 5 -5 5 -3 0 -5 -2 -5 -5z M4415 1420 c3 -5 10 -10 16 -10
5 0 9 5 9 10 0 6 -7 10 -16 10 -8 0 -12 -4 -9 -10z M4850 1425 c0 -3 2 -5 5
-5 3 0 5 2 5 5 0 3 -2 5 -5 5 -3 0 -5 -2 -5 -5z M2120 1415 c0 -3 2 -5 5 -5 3
0 5 2 5 5 0 3 -2 5 -5 5 -3 0 -5 -2 -5 -5z M1700 1405 c0 -3 2 -5 5 -5 3 0 5
2 5 5 0 3 -2 5 -5 5 -3 0 -5 -2 -5 -5z M2000 1405 c0 -3 2 -5 5 -5 3 0 5 2 5
5 0 3 -2 5 -5 5 -3 0 -5 -2 -5 -5z M2470 1405 c0 -3 2 -5 5 -5 3 0 5 2 5 5 0
3 -2 5 -5 5 -3 0 -5 -2 -5 -5z M3053 1403 c4 -3 10 -3 14 0 3 4 0 7 -7 7 -7 0
-10 -3 -7 -7z M4360 1405 c0 -3 2 -5 5 -5 3 0 5 2 5 5 0 3 -2 5 -5 5 -3 0 -5
-2 -5 -5z M1570 1395 c0 -3 2 -5 5 -5 3 0 5 2 5 5 0 3 -2 5 -5 5 -3 0 -5 -2
-5 -5z M4420 1390 c0 -7 3 -10 7 -7 3 4 3 10 0 14 -4 3 -7 0 -7 -7z M1543
1357 c-23 -67 -26 -97 -8 -97 9 0 14 4 10 10 -10 17 33 51 60 46 17 -3 25 0
25 10 0 8 9 14 20 14 11 0 20 -4 20 -9 0 -11 19 -9 38 2 20 13 3 27 -27 21
-29 -6 -112 12 -122 27 -3 5 -10 -6 -16 -24z m4 -54 c-4 -3 -7 0 -7 7 0 7 3
10 7 7 3 -4 3 -10 0 -14z M2860 1385 c0 -3 2 -5 5 -5 3 0 5 2 5 5 0 3 -2 5 -5
5 -3 0 -5 -2 -5 -5z M3120 1385 c0 -3 2 -5 5 -5 3 0 5 2 5 5 0 3 -2 5 -5 5 -3
0 -5 -2 -5 -5z M4355 1380 c3 -5 8 -10 11 -10 2 0 4 5 4 10 0 6 -5 10 -11 10
-5 0 -7 -4 -4 -10z M4895 1380 c3 -5 8 -10 11 -10 3 0 2 5 -1 10 -3 6 -8 10
-11 10 -3 0 -2 -4 1 -10z M3735 1370 c3 -5 8 -10 11 -10 3 0 2 5 -1 10 -3 6
-8 10 -11 10 -3 0 -2 -4 1 -10z M4940 1375 c0 -3 2 -5 5 -5 3 0 5 2 5 5 0 3
-2 5 -5 5 -3 0 -5 -2 -5 -5z M4400 1365 c0 -3 2 -5 5 -5 3 0 5 2 5 5 0 3 -2 5
-5 5 -3 0 -5 -2 -5 -5z M4860 1365 c0 -3 2 -5 5 -5 3 0 5 2 5 5 0 3 -2 5 -5 5
-3 0 -5 -2 -5 -5z M3790 1340 c8 -5 20 -10 25 -10 6 0 3 5 -5 10 -8 5 -19 10
-25 10 -5 0 -3 -5 5 -10z M4350 1345 c0 -3 2 -5 5 -5 3 0 5 2 5 5 0 3 -2 5 -5
5 -3 0 -5 -2 -5 -5z M4670 1336 c0 -9 5 -16 10 -16 6 0 10 4 10 9 0 6 -4 13
-10 16 -5 3 -10 -1 -10 -9z M4910 1345 c0 -3 2 -5 5 -5 3 0 5 2 5 5 0 3 -2 5
-5 5 -3 0 -5 -2 -5 -5z M2770 1315 c0 -3 2 -5 5 -5 3 0 5 2 5 5 0 3 -2 5 -5 5
-3 0 -5 -2 -5 -5z M3863 1303 c4 -3 10 -3 14 0 3 4 0 7 -7 7 -7 0 -10 -3 -7
-7z M3890 1295 c0 -3 2 -5 5 -5 3 0 5 2 5 5 0 3 -2 5 -5 5 -3 0 -5 -2 -5 -5z
M1608 1283 c7 -3 16 -2 19 1 4 3 -2 6 -13 5 -11 0 -14 -3 -6 -6z M2185 1281
c-6 -11 9 -23 19 -14 9 9 7 23 -3 23 -6 0 -12 -4 -16 -9z M2690 1285 c0 -3 2
-5 5 -5 3 0 5 2 5 5 0 3 -2 5 -5 5 -3 0 -5 -2 -5 -5z M3915 1280 c3 -5 11 -10
16 -10 6 0 7 5 4 10 -3 6 -11 10 -16 10 -6 0 -7 -4 -4 -10z M4310 1270 c0 -7
3 -10 7 -7 3 4 3 10 0 14 -4 3 -7 0 -7 -7z M2030 1260 c22 -7 21 -8 -13 -9
-22 -1 -36 -5 -32 -11 3 -5 0 -7 -8 -4 -22 8 -48 -55 -41 -102 3 -21 7 -55 9
-74 1 -19 10 -53 19 -75 40 -102 74 -268 70 -355 -5 -114 -22 -237 -39 -277
-14 -34 -35 -45 -35 -18 0 8 -3 15 -7 15 -5 0 -13 11 -20 25 -9 21 -8 27 5 35
15 8 15 11 2 20 -8 5 -10 10 -4 10 7 0 12 6 11 13 -1 36 4 57 13 52 27 -17
-37 311 -67 341 -8 8 -11 19 -7 25 3 6 -3 24 -15 40 -14 19 -20 37 -16 49 3
11 3 25 -2 32 -9 14 -9 19 -12 103 l-1 59 -19 -37 c-10 -20 -22 -58 -26 -84
-6 -45 -6 -46 12 -33 10 8 15 10 11 6 -4 -5 -3 -15 4 -23 6 -7 8 -16 5 -20 -4
-3 -2 -12 4 -19 5 -7 12 -33 14 -57 3 -25 11 -64 19 -88 18 -54 36 -201 36
-291 0 -39 4 -68 10 -68 6 0 10 -8 10 -17 0 -14 -2 -15 -9 -5 -5 9 -9 -10 -10
-49 -3 -140 -47 -293 -76 -269 -9 8 -15 8 -20 0 -11 -17 -28 -11 -22 9 3 13 0
18 -8 15 -7 -3 -19 -32 -27 -65 l-15 -59 47 0 47 0 45 77 c57 98 78 139 78
154 0 30 72 119 103 127 30 8 32 7 38 -20 9 -41 19 -47 19 -12 0 17 -5 35 -10
40 -19 19 -35 168 -23 219 10 42 7 62 -34 213 -57 214 -64 255 -51 316 10 48
42 88 81 101 9 4 17 15 17 25 0 14 -5 18 -17 13 -11 -4 -14 -3 -9 5 5 8 -3 12
-26 11 -31 -1 -32 -1 -8 -9z m-70 -75 c0 -3 -2 -5 -5 -5 -3 0 -5 2 -5 5 0 3 2
5 5 5 3 0 5 -2 5 -5z m-130 -160 c0 -3 -2 -5 -5 -5 -3 0 -5 2 -5 5 0 3 2 5 5
5 3 0 5 -2 5 -5z m17 -52 c-4 -3 -7 0 -7 7 0 7 3 10 7 7 3 -4 3 -10 0 -14z
m23 -68 c0 -3 -2 -5 -5 -5 -3 0 -5 2 -5 5 0 3 2 5 5 5 3 0 5 -2 5 -5z m57
-332 c-4 -3 -7 0 -7 7 0 7 3 10 7 7 3 -4 3 -10 0 -14z m6 -84 c-7 -7 -12 -3
-15 16 -5 25 -4 25 10 11 12 -11 13 -19 5 -27z m-3 -24 c0 -3 -2 -5 -5 -5 -3
0 -5 2 -5 5 0 3 2 5 5 5 3 0 5 -2 5 -5z m-140 -430 c0 -3 -2 -5 -5 -5 -3 0 -5
2 -5 5 0 3 2 5 5 5 3 0 5 -2 5 -5z M2400 1255 c0 -3 2 -5 5 -5 3 0 5 2 5 5 0
3 -2 5 -5 5 -3 0 -5 -2 -5 -5z M3810 1255 c0 -3 2 -5 5 -5 3 0 5 2 5 5 0 3 -2
5 -5 5 -3 0 -5 -2 -5 -5z M3853 1253 c4 -3 10 -3 14 0 3 4 0 7 -7 7 -7 0 -10
-3 -7 -7z M1620 1245 c0 -3 2 -5 5 -5 3 0 5 2 5 5 0 3 -2 5 -5 5 -3 0 -5 -2
-5 -5z M2220 1240 c-22 -6 -23 -8 -7 -15 11 -4 23 -3 30 4 15 15 7 19 -23 11z
M1710 1215 c0 -14 2 -25 4 -25 2 0 6 11 8 25 3 14 1 25 -3 25 -5 0 -9 -11 -9
-25z M2400 1235 c0 -3 2 -5 5 -5 3 0 5 2 5 5 0 3 -2 5 -5 5 -3 0 -5 -2 -5 -5z
M3990 1235 c0 -3 2 -5 5 -5 3 0 5 2 5 5 0 3 -2 5 -5 5 -3 0 -5 -2 -5 -5z
M4940 1231 c0 -5 7 -14 15 -21 16 -14 18 -10 9 14 -6 17 -24 22 -24 7z M1512
1218 c-5 -7 -13 -24 -17 -38 -4 -13 -14 -30 -21 -38 -16 -16 -19 -36 -4 -27 6
4 20 28 32 53 12 26 23 50 25 55 7 12 -4 8 -15 -5z M2391 1194 c0 -11 3 -14 6
-6 3 7 2 16 -1 19 -3 4 -6 -2 -5 -13z M4020 1205 c0 -3 2 -5 5 -5 3 0 5 2 5 5
0 3 -2 5 -5 5 -3 0 -5 -2 -5 -5z M4050 1203 c5 -2 8 -9 4 -14 -3 -5 0 -9 6 -9
15 0 7 23 -8 26 -7 1 -8 0 -2 -3z M4868 1203 c-10 -2 -18 -11 -18 -19 0 -18
47 -11 69 11 14 13 13 15 -9 14 -14 -1 -33 -3 -42 -6z M2361 1184 c0 -11 3
-14 6 -6 3 7 2 16 -1 19 -3 4 -6 -2 -5 -13z M2464 1191 c-2 -2 -4 -9 -4 -14 0
-6 3 -7 7 -4 3 4 12 2 19 -4 16 -13 34 -4 34 16 0 14 -44 18 -56 6z M2915
1190 c-3 -5 3 -10 15 -10 12 0 18 5 15 10 -3 6 -10 10 -15 10 -5 0 -12 -4 -15
-10z M3990 1195 c0 -3 2 -5 5 -5 3 0 5 2 5 5 0 3 -2 5 -5 5 -3 0 -5 -2 -5 -5z
M4273 1183 c-3 -10 -8 -21 -10 -25 -2 -4 3 -5 11 -2 9 3 16 15 16 25 0 24 -9
25 -17 2z M4830 1195 c0 -3 2 -5 5 -5 3 0 5 2 5 5 0 3 -2 5 -5 5 -3 0 -5 -2
-5 -5z M1583 1183 c4 -3 10 -3 14 0 3 4 0 7 -7 7 -7 0 -10 -3 -7 -7z M1820
1185 c0 -3 2 -5 5 -5 3 0 5 2 5 5 0 3 -2 5 -5 5 -3 0 -5 -2 -5 -5z M4014 1178
c-4 -7 -3 -8 4 -4 12 7 16 16 8 16 -3 0 -8 -5 -12 -12z M4083 1173 c4 -3 10
-3 14 0 3 4 0 7 -7 7 -7 0 -10 -3 -7 -7z M1510 1165 c0 -3 2 -5 5 -5 3 0 5 2
5 5 0 3 -2 5 -5 5 -3 0 -5 -2 -5 -5z M2157 1163 c-8 -12 11 -104 24 -119 12
-15 133 -44 184 -44 35 0 105 29 137 57 14 13 24 12 80 -1 120 -29 193 -39
313 -40 90 -2 127 -6 149 -19 55 -30 54 -9 -2 51 -7 7 -10 17 -8 21 3 4 -10 6
-29 4 -19 -2 -50 -4 -69 -6 -27 -3 -36 1 -40 16 -3 13 -9 16 -18 11 -24 -15
-88 -13 -88 3 0 10 -6 12 -22 7 -13 -4 -50 -5 -83 -3 -129 7 -190 4 -187 -9 3
-15 -118 -11 -160 6 -15 6 -34 9 -42 6 -7 -3 -27 7 -44 21 -18 15 -33 21 -37
15 -9 -15 -35 -12 -35 4 0 17 -16 30 -23 19z m840 -100 c-4 -3 -10 -3 -14 0
-3 4 0 7 7 7 7 0 10 -3 7 -7z m-7 -18 c0 -3 -2 -5 -5 -5 -3 0 -5 2 -5 5 0 3 2
5 5 5 3 0 5 -2 5 -5z M3760 1165 c0 -3 2 -5 5 -5 3 0 5 2 5 5 0 3 -2 5 -5 5
-3 0 -5 -2 -5 -5z M4050 1165 c0 -3 2 -5 5 -5 3 0 5 2 5 5 0 3 -2 5 -5 5 -3 0
-5 -2 -5 -5z M1720 1150 c0 -7 3 -10 7 -7 3 4 3 10 0 14 -4 3 -7 0 -7 -7z
M2250 1150 c0 -7 3 -10 7 -7 3 4 3 10 0 14 -4 3 -7 0 -7 -7z M2283 1146 c-10
-11 -9 -15 2 -20 10 -4 15 1 15 14 0 23 -1 24 -17 6z M4120 1155 c0 -3 2 -5 5
-5 3 0 5 2 5 5 0 3 -2 5 -5 5 -3 0 -5 -2 -5 -5z M4155 1140 c3 -5 8 -10 11
-10 2 0 4 5 4 10 0 6 -5 10 -11 10 -5 0 -7 -4 -4 -10z M4240 1145 c0 -3 2 -5
5 -5 3 0 5 2 5 5 0 3 -2 5 -5 5 -3 0 -5 -2 -5 -5z M4060 1120 c0 -5 5 -10 10
-10 6 0 10 5 10 10 0 6 -4 10 -10 10 -5 0 -10 -4 -10 -10z M1492 1104 c-12 -8
-27 -12 -34 -8 -7 4 -8 3 -4 -4 4 -7 3 -12 -1 -12 -5 0 -9 -9 -10 -21 -2 -22
2 -20 55 29 30 26 25 38 -6 16z M3890 1115 c0 -3 2 -5 5 -5 3 0 5 2 5 5 0 3
-2 5 -5 5 -3 0 -5 -2 -5 -5z M1594 1085 c8 -8 17 -15 20 -15 3 0 3 7 0 15 -4
8 -13 15 -21 15 -12 0 -12 -2 1 -15z M2470 1095 c0 -3 2 -5 5 -5 3 0 5 2 5 5
0 3 -2 5 -5 5 -3 0 -5 -2 -5 -5z M3860 1095 c0 -3 2 -5 5 -5 3 0 5 2 5 5 0 3
-2 5 -5 5 -3 0 -5 -2 -5 -5z M3683 1063 c4 -3 10 -3 14 0 3 4 0 7 -7 7 -7 0
-10 -3 -7 -7z M4770 1055 c0 -3 2 -5 5 -5 3 0 5 2 5 5 0 3 -2 5 -5 5 -3 0 -5
-2 -5 -5z M1600 1030 c0 -7 3 -10 7 -7 3 4 3 10 0 14 -4 3 -7 0 -7 -7z M3750
1025 c0 -3 2 -5 5 -5 3 0 5 2 5 5 0 3 -2 5 -5 5 -3 0 -5 -2 -5 -5z M1422 1008
c-22 -22 -13 -28 38 -28 30 0 50 4 50 11 0 7 -12 10 -29 7 -21 -3 -28 -1 -24
9 6 16 -19 17 -35 1z M3935 990 c3 -5 8 -10 11 -10 2 0 4 5 4 10 0 6 -5 10
-11 10 -5 0 -7 -4 -4 -10z M4560 995 c0 -3 2 -5 5 -5 3 0 5 2 5 5 0 3 -2 5 -5
5 -3 0 -5 -2 -5 -5z M4770 995 c0 -3 2 -5 5 -5 3 0 5 2 5 5 0 3 -2 5 -5 5 -3
0 -5 -2 -5 -5z M1403 953 c3 -13 1 -23 -3 -23 -8 0 -25 -77 -19 -82 2 -2 -4
-14 -14 -28 -23 -32 -22 -40 6 -39 12 1 30 -2 40 -6 22 -9 22 2 -3 50 -23 45
-25 66 -7 63 16 -4 22 61 6 76 -9 8 -10 6 -6 -11z M4330 965 c0 -3 2 -5 5 -5
3 0 5 2 5 5 0 3 -2 5 -5 5 -3 0 -5 -2 -5 -5z M1560 955 c0 -3 2 -5 5 -5 3 0 5
2 5 5 0 3 -2 5 -5 5 -3 0 -5 -2 -5 -5z M3803 953 c4 -3 10 -3 14 0 3 4 0 7 -7
7 -7 0 -10 -3 -7 -7z M4390 955 c0 -3 2 -5 5 -5 3 0 5 2 5 5 0 3 -2 5 -5 5 -3
0 -5 -2 -5 -5z M1495 930 c4 -6 11 -8 16 -5 14 9 11 15 -7 15 -8 0 -12 -5 -9
-10z M2905 917 c-4 -10 -5 -21 -1 -24 10 -10 18 4 13 24 -4 17 -4 17 -12 0z
M3990 925 c0 -3 2 -5 5 -5 3 0 5 2 5 5 0 3 -2 5 -5 5 -3 0 -5 -2 -5 -5z M4612
913 c12 -14 16 -47 17 -153 0 -74 1 -142 1 -150 0 -8 -2 -31 -4 -50 -5 -34
-15 -126 -20 -183 -2 -16 -7 -32 -12 -35 -10 -8 -12 -72 -2 -87 5 -9 3 -110
-5 -181 -4 -37 -15 -56 -28 -49 -5 4 -9 -1 -9 -9 0 -12 10 -16 35 -16 30 0 35
4 40 28 4 15 8 36 11 47 13 51 27 363 25 580 -1 236 -1 240 -23 257 -30 23
-45 23 -26 1z M1772 880 c-2 -25 -33 -156 -47 -195 -5 -16 -4 -17 3 -5 25 38
53 141 49 182 -2 24 -4 32 -5 18z M2872 889 c2 -7 10 -15 17 -17 8 -3 12 1 9
9 -2 7 -10 15 -17 17 -8 3 -12 -1 -9 -9z M4943 893 c4 -3 10 -3 14 0 3 4 0 7
-7 7 -7 0 -10 -3 -7 -7z M1450 879 c0 -5 6 -9 14 -9 8 0 22 -7 31 -16 19 -19
33 -11 16 10 -13 16 -61 28 -61 15z M1590 875 c0 -3 2 -5 5 -5 3 0 5 2 5 5 0
3 -2 5 -5 5 -3 0 -5 -2 -5 -5z M1590 841 c-24 -10 -26 -71 -2 -78 30 -7 58
-83 31 -83 -11 0 -3 -38 11 -54 14 -15 31 31 21 56 -5 13 -12 40 -16 61 -3 21
-10 35 -15 32 -5 -3 -10 12 -12 33 -2 30 -6 38 -18 33z M4550 825 c0 -3 2 -5
5 -5 3 0 5 2 5 5 0 3 -2 5 -5 5 -3 0 -5 -2 -5 -5z M1705 810 c3 -5 8 -10 11
-10 2 0 4 5 4 10 0 6 -5 10 -11 10 -5 0 -7 -4 -4 -10z M1500 805 c0 -3 2 -5 5
-5 3 0 5 2 5 5 0 3 -2 5 -5 5 -3 0 -5 -2 -5 -5z M4785 790 c3 -5 8 -10 11 -10
2 0 4 5 4 10 0 6 -5 10 -11 10 -5 0 -7 -4 -4 -10z M4150 775 c0 -3 2 -5 5 -5
3 0 5 2 5 5 0 3 -2 5 -5 5 -3 0 -5 -2 -5 -5z M3933 763 c4 -3 10 -3 14 0 3 4
0 7 -7 7 -7 0 -10 -3 -7 -7z M1303 675 c-24 -47 -39 -85 -33 -85 5 0 14 16 21
35 9 23 16 31 21 22 5 -8 8 -4 8 11 0 13 7 37 16 53 8 17 14 34 12 39 -2 5
-22 -29 -45 -75z M2880 755 c0 -3 2 -5 5 -5 3 0 5 2 5 5 0 3 -2 5 -5 5 -3 0
-5 -2 -5 -5z M4537 740 c-3 -11 -1 -20 4 -20 5 0 9 9 9 20 0 11 -2 20 -4 20
-2 0 -6 -9 -9 -20z M1453 743 c4 -3 10 -3 14 0 3 4 0 7 -7 7 -7 0 -10 -3 -7
-7z M1467 696 c-6 -15 1 -26 15 -26 4 0 8 9 8 20 0 23 -15 27 -23 6z M3020
704 c0 -4 11 -15 24 -25 25 -19 26 -55 2 -71 -19 -13 -63 -9 -76 7 -14 17 -8
51 9 47 7 -1 9 2 5 9 -4 8 1 9 17 5 13 -3 18 -3 11 0 -6 3 -10 10 -6 15 12 19
-24 8 -45 -15 -34 -37 -25 -68 25 -85 72 -25 118 24 78 84 -14 22 -44 41 -44
29z M3413 610 c0 -47 2 -66 4 -42 2 23 2 61 0 85 -2 23 -4 4 -4 -43z M4110
685 c0 -3 2 -5 5 -5 3 0 5 2 5 5 0 3 -2 5 -5 5 -3 0 -5 -2 -5 -5z M2861 664
c0 -11 3 -14 6 -6 3 7 2 16 -1 19 -3 4 -6 -2 -5 -13z M4320 675 c0 -3 2 -5 5
-5 3 0 5 2 5 5 0 3 -2 5 -5 5 -3 0 -5 -2 -5 -5z M1685 563 c-36 -130 -47 -163
-85 -263 -17 -47 -47 -125 -65 -175 -18 -50 -36 -98 -40 -109 -6 -13 -4 -17 5
-14 7 2 19 22 27 44 7 21 21 45 30 52 10 7 12 12 5 12 -9 0 -9 4 0 19 7 11 15
18 18 16 3 -2 14 27 24 63 11 37 23 72 28 79 6 7 7 17 3 23 -3 5 -2 10 4 10 8
0 17 27 28 85 15 90 21 113 31 131 11 22 28 124 20 124 -3 0 -18 -44 -33 -97z
m-15 -118 c0 -3 -2 -5 -5 -5 -3 0 -5 2 -5 5 0 3 2 5 5 5 3 0 5 -2 5 -5z M3000
655 c0 -3 2 -5 5 -5 3 0 5 2 5 5 0 3 -2 5 -5 5 -3 0 -5 -2 -5 -5z M3033 643
c-7 -2 -13 -12 -12 -21 0 -11 2 -12 6 -4 2 6 9 10 14 6 5 -3 9 2 9 10 0 9 -1
16 -2 15 -2 0 -9 -3 -15 -6z M2986 632 c-3 -5 1 -9 9 -9 8 0 12 4 9 9 -3 4 -7
8 -9 8 -2 0 -6 -4 -9 -8z M2848 600 c2 -16 6 -30 8 -30 2 0 4 14 4 30 0 17 -4
30 -8 30 -5 0 -7 -13 -4 -30z M3750 605 c0 -3 2 -5 5 -5 3 0 5 2 5 5 0 3 -2 5
-5 5 -3 0 -5 -2 -5 -5z M4190 605 c0 -3 2 -5 5 -5 3 0 5 2 5 5 0 3 -2 5 -5 5
-3 0 -5 -2 -5 -5z M1255 570 c3 -5 8 -10 11 -10 3 0 2 5 -1 10 -3 6 -8 10 -11
10 -3 0 -2 -4 1 -10z M1232 544 c-7 -7 -13 -17 -14 -21 -2 -10 -18 -30 -40
-51 -10 -9 -18 -22 -18 -29 0 -7 -4 -13 -8 -13 -4 0 -13 -12 -20 -27 -6 -16
-21 -43 -32 -62 -24 -39 -50 -131 -50 -178 l0 -34 30 23 c17 12 37 32 45 45
14 21 14 25 -5 45 -29 32 -34 56 -15 84 17 26 35 24 35 -4 0 -9 5 -24 10 -32
8 -11 10 -4 7 27 -3 29 1 48 12 60 9 10 15 29 13 42 -2 15 0 21 7 17 6 -4 11
1 11 11 0 11 14 38 30 60 29 39 30 67 2 37z m-65 -141 c-4 -3 -7 0 -7 7 0 7 3
10 7 7 3 -4 3 -10 0 -14z M1606 545 c-4 -10 1 -15 14 -15 13 0 18 5 14 15 -4
8 -10 15 -14 15 -4 0 -10 -7 -14 -15z M2841 550 c-1 -3 -4 -27 -6 -55 -4 -47
-3 -48 6 -16 8 26 8 91 0 71z M1280 535 c0 -3 2 -5 5 -5 3 0 5 2 5 5 0 3 -2 5
-5 5 -3 0 -5 -2 -5 -5z M1710 525 c0 -3 2 -5 5 -5 3 0 5 2 5 5 0 3 -2 5 -5 5
-3 0 -5 -2 -5 -5z M1280 510 c0 -7 3 -10 7 -7 3 4 3 10 0 14 -4 3 -7 0 -7 -7z
M2860 515 c0 -3 2 -5 5 -5 3 0 5 2 5 5 0 3 -2 5 -5 5 -3 0 -5 -2 -5 -5z M3810
515 c0 -3 2 -5 5 -5 3 0 5 2 5 5 0 3 -2 5 -5 5 -3 0 -5 -2 -5 -5z M1610 480
c0 -7 3 -10 7 -7 3 4 3 10 0 14 -4 3 -7 0 -7 -7z M2214 471 c4 -6 13 -11 21
-11 7 0 16 -6 19 -12 3 -7 5 -4 3 7 -1 12 -11 21 -26 23 -15 2 -21 0 -17 -7z
M2832 420 c0 -14 2 -19 5 -12 2 6 2 18 0 25 -3 6 -5 1 -5 -13z M1600 415 c0
-3 2 -5 5 -5 3 0 5 2 5 5 0 3 -2 5 -5 5 -3 0 -5 -2 -5 -5z M4160 360 c0 -7 3
-10 7 -7 3 4 3 10 0 14 -4 3 -7 0 -7 -7z M3990 355 c0 -3 2 -5 5 -5 3 0 5 2 5
5 0 3 -2 5 -5 5 -3 0 -5 -2 -5 -5z M4716 349 c-22 -5 -41 -11 -43 -13 -2 -1
71 -2 162 -2 153 1 198 7 143 19 -41 8 -222 6 -262 -4z M3401 334 c0 -11 3
-14 6 -6 3 7 2 16 -1 19 -3 4 -6 -2 -5 -13z M4480 340 c0 -7 3 -10 7 -7 3 4 3
10 0 14 -4 3 -7 0 -7 -7z M2850 325 c0 -3 2 -5 5 -5 3 0 5 2 5 5 0 3 -2 5 -5
5 -3 0 -5 -2 -5 -5z M4050 320 c0 -7 3 -10 7 -7 3 4 3 10 0 14 -4 3 -7 0 -7
-7z M3402 280 c0 -14 2 -19 5 -12 2 6 2 18 0 25 -3 6 -5 1 -5 -13z M4835 295
c-5 -2 -37 -7 -70 -10 -44 -5 -55 -9 -42 -16 27 -15 277 1 277 17 0 13 -133
20 -165 9z M2165 255 c8 -37 25 -57 25 -30 0 11 -8 29 -17 40 -15 19 -15 19
-8 -10z M4050 276 c0 -2 7 -7 16 -10 8 -3 12 -2 9 4 -6 10 -25 14 -25 6z
M4260 270 c0 -7 3 -10 7 -7 3 4 3 10 0 14 -4 3 -7 0 -7 -7z M1980 230 c-1 -25
-4 -58 -6 -75 -7 -51 6 -157 19 -152 15 5 18 137 4 155 -5 6 -7 24 -5 40 3 15
2 38 -2 52 -7 21 -8 17 -10 -20z m20 -85 c0 -3 -2 -5 -5 -5 -3 0 -5 2 -5 5 0
3 2 5 5 5 3 0 5 -2 5 -5z M2079 253 c-13 -15 -12 -15 9 -4 23 12 28 21 13 21
-5 0 -15 -7 -22 -17z M1355 250 c3 -5 8 -10 11 -10 2 0 4 5 4 10 0 6 -5 10
-11 10 -5 0 -7 -4 -4 -10z M1800 235 c0 -3 2 -5 5 -5 3 0 5 2 5 5 0 3 -2 5 -5
5 -3 0 -5 -2 -5 -5z M1250 225 c0 -3 2 -5 5 -5 3 0 5 2 5 5 0 3 -2 5 -5 5 -3
0 -5 -2 -5 -5z M2850 220 c0 -7 3 -10 7 -7 3 4 3 10 0 14 -4 3 -7 0 -7 -7z
M2323 203 c4 -3 10 -3 14 0 3 4 0 7 -7 7 -7 0 -10 -3 -7 -7z M1302 176 c-1
-21 2 -25 28 -24 33 1 43 28 10 28 -11 0 -20 5 -20 10 0 21 -16 9 -18 -14z
M1370 180 c0 -19 3 -21 12 -12 9 9 9 15 0 24 -9 9 -12 7 -12 -12z M2860 190
c0 -7 3 -10 7 -7 3 4 3 10 0 14 -4 3 -7 0 -7 -7z M1280 185 c0 -3 2 -5 5 -5 3
0 5 2 5 5 0 3 -2 5 -5 5 -3 0 -5 -2 -5 -5z M1801 176 c-9 -10 -8 -15 4 -20 10
-4 15 1 15 14 0 24 -4 25 -19 6z M1093 138 c-97 -53 -148 -98 -110 -98 29 1
93 26 90 36 -2 7 12 13 34 16 91 12 185 -6 197 -38 6 -16 -5 -19 -20 -4 -5 5
-15 6 -24 0 -12 -7 -11 -12 4 -29 15 -17 31 -21 80 -21 l61 0 -35 28 c-19 15
-44 36 -55 47 -74 75 -156 98 -222 63z M1403 136 c1 -11 9 -21 17 -23 10 -3
11 -2 4 4 -6 4 -14 15 -17 23 -5 11 -6 9 -4 -4z M2400 145 c0 -3 2 -5 5 -5 3
0 5 2 5 5 0 3 -2 5 -5 5 -3 0 -5 -2 -5 -5z M4520 145 c0 -3 2 -5 5 -5 3 0 5 2
5 5 0 3 -2 5 -5 5 -3 0 -5 -2 -5 -5z M3150 115 c0 -3 2 -5 5 -5 3 0 5 2 5 5 0
3 -2 5 -5 5 -3 0 -5 -2 -5 -5z M3240 115 c0 -3 2 -5 5 -5 3 0 5 2 5 5 0 3 -2
5 -5 5 -3 0 -5 -2 -5 -5z M4565 100 c-4 -12 -5 -24 -2 -27 3 -2 8 5 12 17 4
12 5 24 2 27 -3 2 -8 -5 -12 -17z M2020 90 c0 -29 26 -76 46 -84 23 -9 32 3
14 17 -8 7 -16 19 -18 27 -9 47 -42 79 -42 40z M4310 105 c0 -3 2 -5 5 -5 3 0
5 2 5 5 0 3 -2 5 -5 5 -3 0 -5 -2 -5 -5z M3151 84 c0 -11 3 -14 6 -6 3 7 2 16
-1 19 -3 4 -6 -2 -5 -13z M2470 85 c0 -3 2 -5 5 -5 3 0 5 2 5 5 0 3 -2 5 -5 5
-3 0 -5 -2 -5 -5z M1440 75 c0 -3 2 -5 5 -5 3 0 5 2 5 5 0 3 -2 5 -5 5 -3 0
-5 -2 -5 -5z M2500 71 c0 -5 5 -13 10 -16 6 -3 10 -2 10 4 0 5 -4 13 -10 16
-5 3 -10 2 -10 -4z M1190 55 c0 -3 2 -5 5 -5 3 0 5 2 5 5 0 3 -2 5 -5 5 -3 0
-5 -2 -5 -5z M4350 50 c0 -5 5 -10 10 -10 6 0 10 -7 10 -15 0 -8 5 -15 10 -15
17 0 11 25 -10 38 -12 7 -20 8 -20 2z M1055 30 c-11 -5 -39 -9 -62 -9 -24 -1
-43 -5 -43 -11 0 -14 114 -12 128 2 25 25 13 34 -23 18z M4275 10 c-3 -5 1
-10 9 -10 9 0 16 5 16 10 0 6 -4 10 -9 10 -6 0 -13 -4 -16 -10z M1123 3 c15
-2 39 -2 55 0 15 2 2 4 -28 4 -30 0 -43 -2 -27 -4z M2820 5 c0 -3 2 -5 5 -5 3
0 5 2 5 5 0 3 -2 5 -5 5 -3 0 -5 -2 -5 -5z"/>
</g>
</svg>
