<?xml version="1.0" standalone="no"?>
<!DOCTYPE svg PUBLIC "-//W3C//DTD SVG 20010904//EN"
 "http://www.w3.org/TR/2001/REC-SVG-20010904/DTD/svg10.dtd">
<svg version="1.0" xmlns="http://www.w3.org/2000/svg"
 width="293.000000pt" height="300.000000pt" viewBox="0 0 293.000000 300.000000"
 preserveAspectRatio="xMidYMid meet">
<metadata>
Created by potrace 1.14, written by Peter Selinger 2001-2017
</metadata>
<g transform="translate(0.000000,300.000000) scale(0.100000,-0.100000)"
fill="#b763fc" stroke="none">
<path d="M1468 2878 c-16 -5 -28 -14 -28 -18 0 -5 -22 -6 -49 -3 -59 7 -158
-14 -142 -30 18 -18 13 -55 -8 -67 -30 -16 -39 -12 -33 15 5 31 -3 31 -60 1
-25 -13 -60 -27 -79 -31 -35 -8 -49 -20 -49 -44 0 -8 6 -11 16 -7 12 4 14 1 9
-14 -4 -12 -2 -20 5 -20 6 0 9 -4 5 -9 -7 -12 65 -72 77 -65 5 3 2 15 -8 25
-9 10 -13 19 -8 19 5 0 4 4 -1 8 -17 12 -55 69 -55 83 0 10 3 10 11 2 6 -6 18
-9 26 -6 11 4 13 -1 11 -22 -2 -17 2 -30 11 -33 11 -4 12 4 7 34 l-7 39 20
-25 c12 -14 21 -31 21 -37 0 -7 9 -13 19 -13 11 0 22 -6 25 -12 3 -7 3 -3 1 9
-3 12 -1 24 5 28 5 3 10 1 10 -6 0 -8 7 -5 20 6 10 9 26 15 35 12 8 -4 15 -2
15 4 0 6 7 8 17 5 9 -4 19 -2 23 4 8 12 30 18 73 19 18 1 27 6 27 17 0 38 59
52 83 20 5 -6 6 -2 2 10 -6 24 16 39 32 23 11 -11 43 -2 43 13 0 5 8 2 18 -8
16 -16 17 -16 20 -1 5 23 16 21 36 -5 15 -21 16 -21 11 -3 -4 18 0 20 46 20
42 0 49 -3 45 -17 -3 -14 0 -16 12 -9 16 8 111 5 140 -5 9 -2 11 -11 7 -25 -5
-15 -4 -19 4 -15 6 4 11 2 11 -3 0 -6 9 -11 20 -11 16 0 20 7 21 33 1 17 3 25
6 16 3 -12 11 -15 25 -11 17 4 20 2 15 -11 -4 -11 -1 -17 7 -17 9 0 12 7 10
18 -4 14 2 17 41 17 27 0 49 -6 54 -14 6 -9 11 -10 15 -2 5 8 12 6 24 -5 15
-15 15 -17 -1 -29 -24 -17 -21 -22 13 -30 17 -4 28 -10 25 -15 -3 -5 -1 -11 5
-15 5 -3 10 1 10 9 0 9 7 16 15 16 8 0 15 -7 15 -15 0 -8 5 -14 11 -13 13 3
21 -29 13 -54 -5 -18 -34 -25 -34 -9 0 5 -9 7 -20 4 -29 -8 -24 -23 8 -24 66
-3 103 -1 109 5 14 13 25 5 12 -10 -10 -12 -10 -20 -1 -34 7 -12 8 -21 2 -25
-6 -3 -10 -2 -10 4 0 6 -7 8 -16 4 -11 -4 -5 -10 23 -23 l38 -17 -27 -13 c-29
-14 -40 -34 -13 -24 8 4 15 1 15 -5 0 -6 7 -11 15 -11 8 0 12 -6 9 -14 -3 -8
-1 -17 5 -21 6 -3 11 -1 11 6 0 7 3 9 6 6 4 -4 1 -14 -7 -23 -11 -14 -11 -18
5 -29 10 -8 15 -18 11 -24 -3 -6 -1 -11 6 -11 8 0 6 -5 -5 -13 -17 -13 -32
-92 -15 -81 5 3 9 -2 9 -10 0 -8 -6 -13 -13 -10 -8 3 -13 -3 -13 -14 0 -14 6
-18 21 -15 20 4 20 4 1 -11 -11 -9 -15 -16 -9 -16 7 0 10 -10 7 -25 -3 -20 0
-25 16 -25 16 0 20 -7 20 -30 0 -16 -5 -30 -11 -30 -6 0 -8 8 -4 19 6 21 -22
35 -66 32 -18 -1 -31 6 -42 23 -12 18 -24 24 -44 22 -18 -1 -32 4 -38 16 -10
18 -12 17 -32 -2 -12 -11 -26 -28 -32 -37 -9 -17 -11 -17 -27 -1 -16 16 -11
44 7 32 5 -3 6 -10 3 -16 -5 -7 -2 -8 5 -4 7 5 10 14 7 21 -2 7 1 18 7 25 8 8
4 8 -11 -1 -19 -12 -24 -12 -32 1 -10 17 -6 -45 5 -72 4 -10 3 -18 -3 -18 -6
0 -13 6 -15 13 -3 6 -6 2 -6 -11 -1 -22 -36 -45 -53 -35 -5 2 -8 -1 -8 -7 0
-6 -6 -8 -12 -4 -7 4 -4 -2 7 -13 30 -30 66 -27 103 7 18 17 42 30 53 30 10 0
19 4 19 8 0 5 18 7 40 6 74 -4 150 -83 150 -157 0 -35 -13 -75 -30 -87 -3 -3
-17 -32 -30 -65 -27 -70 -76 -135 -124 -165 -19 -11 -34 -29 -34 -38 1 -9 -5
-44 -12 -77 -7 -33 -12 -82 -11 -109 1 -27 -2 -61 -7 -75 -22 -59 -25 -67 -28
-90 -2 -13 4 -37 12 -53 8 -16 13 -32 10 -36 -2 -4 2 -13 10 -20 11 -10 14
-10 15 0 1 18 58 -103 59 -125 0 -21 91 -67 133 -67 17 0 39 -12 59 -30 17
-16 26 -30 20 -30 -12 0 -12 -27 0 -46 24 -38 34 -262 15 -354 -8 -41 -25
-131 -37 -200 -12 -69 -31 -143 -41 -166 -30 -64 -26 -84 16 -84 28 0 35 4 35
19 0 11 4 22 9 25 4 3 6 -6 3 -21 -3 -19 -1 -24 7 -18 19 11 30 49 17 58 -8 5
-6 11 7 21 18 14 24 42 7 31 -11 -7 -14 8 -3 18 3 4 12 -1 20 -11 8 -9 11 -11
7 -3 -5 10 -3 13 8 8 11 -4 18 1 21 15 7 27 0 45 -20 45 -13 0 -12 -3 3 -14
25 -18 0 -37 -27 -20 -12 7 -14 14 -7 18 6 4 7 12 4 18 -4 6 0 14 8 17 9 3 16
10 16 16 0 5 6 16 14 23 12 12 15 12 20 0 3 -8 1 -15 -4 -15 -6 0 -10 -7 -10
-15 0 -8 4 -15 10 -15 5 0 8 -15 5 -34 -3 -28 0 -36 16 -41 21 -7 27 -53 9
-71 -14 -14 -21 -54 -10 -54 4 0 11 6 13 13 4 9 8 9 15 -2 9 -12 18 -11 60 7
28 12 62 22 77 22 20 0 27 6 32 30 4 25 26 46 22 22 -3 -20 3 -32 17 -32 8 0
13 4 9 9 -3 5 4 12 15 16 16 5 18 10 10 26 -13 23 11 27 29 5 18 -22 52 -17
40 5 -12 24 -12 49 1 29 6 -10 9 -2 8 28 0 23 -5 42 -10 42 -6 0 -8 6 -5 14 3
8 1 17 -6 20 -9 5 -9 7 0 12 7 3 10 11 7 19 -3 7 -1 16 5 20 21 12 11 27 -14
23 -19 -4 -25 -1 -23 11 3 15 -1 17 -37 20 -8 0 -15 6 -15 12 0 6 6 9 14 6 23
-9 7 35 -23 62 -25 22 -25 23 -3 17 12 -4 22 -3 22 3 0 5 -9 13 -21 16 -11 4
-18 12 -16 19 7 19 -19 48 -40 44 -10 -2 -17 -11 -17 -21 2 -22 -9 -22 -28 1
-27 31 -33 48 -10 28 30 -26 28 -5 -2 23 l-24 23 -7 -48 c-4 -27 -11 -64 -15
-82 -7 -25 -5 -32 6 -32 15 0 17 -23 5 -54 -7 -19 -8 -18 -24 4 -10 15 -21 20
-33 16 -11 -4 -24 1 -36 14 -17 18 -18 24 -7 55 7 19 16 32 21 29 4 -3 1 -16
-8 -30 -11 -16 -12 -24 -5 -24 7 0 10 -4 7 -9 -10 -16 18 -30 31 -16 10 11 10
17 -2 28 -8 8 -11 17 -8 21 13 13 -55 343 -76 370 -5 6 -11 27 -15 46 -3 20
-15 52 -26 73 -11 20 -16 37 -10 37 5 0 10 -6 10 -14 0 -8 20 -34 44 -59 45
-45 69 -101 79 -191 3 -25 16 -49 36 -70 17 -18 31 -37 31 -44 0 -7 5 -12 10
-12 15 0 12 11 -10 47 -10 18 -15 35 -10 38 6 3 5 16 0 31 -13 34 -13 37 5 30
8 -3 15 -3 15 0 0 16 -37 73 -67 102 -19 18 -41 48 -49 67 -12 30 -104 108
-104 89 0 -4 -9 5 -21 20 -29 36 -61 51 -154 70 -44 9 -82 20 -86 24 -4 4 -3
42 2 85 10 89 51 202 109 301 22 37 40 73 40 79 0 5 11 25 25 43 13 17 27 52
31 75 9 66 64 199 103 247 18 23 44 71 57 107 23 63 23 67 8 127 -9 35 -25 78
-36 96 -17 28 -18 38 -9 82 11 49 8 73 -13 98 -5 8 -9 32 -7 54 3 45 -12 68
-45 68 -27 0 -40 16 -25 33 19 23 1 59 -25 53 -13 -4 -24 -2 -24 4 0 5 -25 21
-55 35 -30 14 -65 39 -78 55 -36 42 -135 93 -169 86 -16 -3 -28 -1 -28 4 0 17
-38 11 -49 -7 -6 -10 -11 -12 -11 -5 0 7 -15 12 -41 12 -22 0 -50 5 -62 12
-27 14 -49 16 -252 21 -91 3 -172 1 -187 -5z m-78 -38 c0 -5 -5 -10 -11 -10
-8 0 -8 -4 1 -15 10 -12 7 -15 -17 -20 -15 -4 -33 -8 -38 -10 -18 -5 -48 23
-42 39 3 8 22 16 44 19 21 2 44 4 51 5 6 1 12 -2 12 -8z m230 -25 c0 -3 -2 -5
-5 -5 -3 0 -5 2 -5 5 0 3 2 5 5 5 3 0 5 -2 5 -5z m230 0 c0 -3 -2 -5 -5 -5 -3
0 -5 2 -5 5 0 3 2 5 5 5 3 0 5 -2 5 -5z m-440 -60 c0 -3 -2 -5 -5 -5 -3 0 -5
2 -5 5 0 3 2 5 5 5 3 0 5 -2 5 -5z m560 0 c0 -3 -2 -5 -5 -5 -3 0 -5 2 -5 5 0
3 2 5 5 5 3 0 5 -2 5 -5z m240 -30 c0 -3 -2 -5 -5 -5 -3 0 -5 2 -5 5 0 3 2 5
5 5 3 0 5 -2 5 -5z m7 -22 c-4 -3 -10 -3 -14 0 -3 4 0 7 7 7 7 0 10 -3 7 -7z
m121 -80 c-3 -26 -38 -48 -38 -24 0 6 7 8 15 5 8 -4 15 -2 15 4 0 5 -7 12 -15
16 -22 8 -18 26 6 26 16 0 20 -5 17 -27z m39 -70 c-4 -3 -10 -3 -14 0 -3 4 0
7 7 7 7 0 10 -3 7 -7z m119 -35 c9 -31 -10 -43 -45 -28 -17 7 -31 15 -31 19 0
30 66 38 76 9z m-30 -65 c7 -10 18 -18 25 -18 6 0 14 -10 15 -22 5 -30 -31
-32 -46 -3 -6 11 -16 17 -22 14 -8 -5 -9 -1 -5 10 4 10 7 22 7 27 0 14 12 11
26 -8z m-46 -8 c0 -3 -2 -5 -5 -5 -3 0 -5 2 -5 5 0 3 2 5 5 5 3 0 5 -2 5 -5z
m40 -90 c0 -3 -2 -5 -5 -5 -3 0 -5 2 -5 5 0 3 2 5 5 5 3 0 5 -2 5 -5z m46 -52
c27 -31 28 -34 44 -114 11 -56 8 -88 -12 -142 -19 -51 -33 -25 -30 56 2 48 -2
88 -11 109 -9 21 -11 42 -6 55 5 15 3 23 -7 27 -14 5 -20 36 -8 36 4 0 17 -12
30 -27z m-279 -171 c-10 -10 -18 -27 -18 -38 -1 -18 -2 -18 -6 -1 -4 16 21 57
35 57 3 0 -2 -8 -11 -18z m23 -22 c0 -5 -5 -10 -11 -10 -5 0 -7 5 -4 10 3 6 8
10 11 10 2 0 4 -4 4 -10z m27 -7 c-4 -3 -7 0 -7 7 0 7 3 10 7 7 3 -4 3 -10 0
-14z m163 12 c0 -3 -2 -5 -5 -5 -3 0 -5 2 -5 5 0 3 2 5 5 5 3 0 5 -2 5 -5z
m-253 -42 c-4 -3 -10 -3 -14 0 -3 4 0 7 7 7 7 0 10 -3 7 -7z m-27 -14 c0 -5
-4 -8 -9 -5 -5 4 -12 0 -14 -6 -3 -8 -6 -6 -6 5 -1 9 6 17 14 17 8 0 15 -5 15
-11z m-40 -24 c0 -3 -2 -5 -5 -5 -3 0 -5 2 -5 5 0 3 2 5 5 5 3 0 5 -2 5 -5z
m327 -22 c-4 -3 -7 0 -7 7 0 7 3 10 7 7 3 -4 3 -10 0 -14z m213 -1248 c0 -3
-2 -5 -5 -5 -3 0 -5 2 -5 5 0 3 2 5 5 5 3 0 5 -2 5 -5z m130 -260 c0 -12 -19
-12 -23 0 -4 9 -1 12 9 8 7 -3 14 -7 14 -8z m-10 -31 c0 -2 -9 -4 -21 -4 -11
0 -18 4 -14 10 5 8 35 3 35 -6z m-93 -16 c-3 -8 -6 -5 -6 6 -1 11 2 17 5 13 3
-3 4 -12 1 -19z m40 -6 c1 -10 -7 -24 -18 -30 -21 -13 -26 -3 -7 16 7 7 8 12
3 12 -7 0 8 15 20 20 1 0 1 -8 2 -18z m23 -27 c0 -3 -2 -5 -5 -5 -3 0 -5 2 -5
5 0 3 2 5 5 5 3 0 5 -2 5 -5z m-190 -25 c0 -5 -4 -10 -10 -10 -5 0 -10 5 -10
10 0 6 5 10 10 10 6 0 10 -4 10 -10z m46 -29 c23 4 23 -3 0 -25 -15 -13 -26
-28 -26 -35 0 -6 -4 -11 -10 -11 -5 0 -10 9 -10 20 0 11 4 20 9 20 5 0 12 7
15 16 4 11 2 15 -8 11 -10 -4 -13 -1 -9 9 4 10 9 12 18 4 7 -6 17 -10 21 -9z
m-56 -32 c0 -29 -13 -38 -25 -19 -3 6 -1 10 4 10 6 0 11 7 11 16 0 8 -4 12
-10 9 -5 -3 -10 1 -10 9 0 10 6 13 15 10 9 -4 15 -19 15 -35z m258 -3 c106
-58 64 -224 -56 -226 -92 -1 -152 101 -106 179 33 55 108 77 162 47z m-263
-46 c3 -5 12 -7 19 -4 18 7 27 -8 15 -26 -5 -10 -9 -11 -9 -3 0 7 -16 15 -35
19 -19 3 -32 10 -29 15 7 12 31 11 39 -1z m-25 -30 c0 -5 -5 -10 -11 -10 -5 0
-7 5 -4 10 3 6 8 10 11 10 2 0 4 -4 4 -10z m77 -107 c-4 -3 -10 -3 -14 0 -3 4
0 7 7 7 7 0 10 -3 7 -7z m43 -58 c0 -3 -2 -5 -5 -5 -3 0 -5 2 -5 5 0 3 2 5 5
5 3 0 5 -2 5 -5z m6 -39 c9 -19 9 -26 -1 -30 -8 -3 -15 6 -17 25 -5 35 3 37
18 5z m34 -2 c0 -8 -5 -12 -10 -9 -6 4 -8 11 -5 16 9 14 15 11 15 -7z m-63
-11 c-4 -3 -7 0 -7 7 0 7 3 10 7 7 3 -4 3 -10 0 -14z M2720 278 c0 -6 7 -20
17 -30 15 -17 15 -19 -1 -37 -10 -11 -15 -25 -11 -31 5 -8 17 0 35 22 l28 33
-26 28 c-28 29 -42 34 -42 15z M1460 2765 c0 -3 2 -5 5 -5 3 0 5 2 5 5 0 3 -2
5 -5 5 -3 0 -5 -2 -5 -5z M1604 2758 c-4 -7 -3 -8 4 -4 12 7 16 16 8 16 -3 0
-8 -5 -12 -12z M1715 2760 c3 -5 8 -10 11 -10 3 0 2 5 -1 10 -3 6 -8 10 -11
10 -3 0 -2 -4 1 -10z M1824 2744 c-6 -22 -10 -24 -35 -19 -18 4 -29 2 -29 -4
0 -6 6 -11 13 -11 8 0 7 -3 -3 -9 -17 -12 -32 -4 -24 12 3 7 -2 3 -12 -8 -13
-16 -16 -17 -11 -3 3 10 2 20 -3 23 -5 3 -12 -4 -15 -15 -5 -17 -10 -19 -21
-10 -25 22 -34 6 -14 -25 13 -19 20 -24 20 -14 0 20 44 31 59 16 8 -8 11 -8
11 1 0 6 16 14 35 18 21 4 35 12 35 20 0 12 4 12 21 4 11 -6 25 -9 32 -7 7 2
20 0 30 -5 11 -6 17 -5 17 2 0 10 -42 31 -58 29 -24 -4 -36 2 -24 10 11 7 11
9 -2 14 -11 4 -18 -1 -22 -19z M1890 2765 c0 -3 2 -5 5 -5 3 0 5 2 5 5 0 3 -2
5 -5 5 -3 0 -5 -2 -5 -5z M2070 2751 c0 -6 4 -13 10 -16 6 -3 7 1 4 9 -7 18
-14 21 -14 7z M1460 2740 c0 -7 3 -10 7 -7 3 4 3 10 0 14 -4 3 -7 0 -7 -7z
M1788 2743 c7 -3 16 -2 19 1 4 3 -2 6 -13 5 -11 0 -14 -3 -6 -6z M1730 2735
c0 -3 2 -5 5 -5 3 0 5 2 5 5 0 3 -2 5 -5 5 -3 0 -5 -2 -5 -5z M2118 2733 c7
-3 16 -2 19 1 4 3 -2 6 -13 5 -11 0 -14 -3 -6 -6z M1440 2720 c0 -7 3 -10 7
-7 3 4 3 10 0 14 -4 3 -7 0 -7 -7z M1973 2720 c-32 -13 -29 -16 16 -15 26 0
37 4 34 13 -6 14 -19 14 -50 2z M2052 2696 c1 -16 8 -24 18 -23 13 1 14 5 6
24 -14 30 -26 29 -24 -1z M1355 2700 c-3 -5 -1 -10 4 -10 6 0 11 5 11 10 0 6
-2 10 -4 10 -3 0 -8 -4 -11 -10z M1390 2700 c0 -7 3 -10 7 -7 3 4 3 10 0 14
-4 3 -7 0 -7 -7z M1500 2705 c0 -3 2 -5 5 -5 3 0 5 2 5 5 0 3 -2 5 -5 5 -3 0
-5 -2 -5 -5z M1520 2700 c0 -5 7 -10 15 -10 8 0 15 5 15 10 0 6 -7 10 -15 10
-8 0 -15 -4 -15 -10z M1570 2700 c0 -7 3 -10 7 -7 3 4 3 10 0 14 -4 3 -7 0 -7
-7z M2090 2699 c0 -5 5 -7 10 -4 6 3 10 8 10 11 0 2 -4 4 -10 4 -5 0 -10 -5
-10 -11z M990 2690 c0 -5 5 -10 10 -10 6 0 10 5 10 10 0 6 -4 10 -10 10 -5 0
-10 -4 -10 -10z M1834 2688 c-4 -7 -3 -8 4 -4 12 7 16 16 8 16 -3 0 -8 -5 -12
-12z M1260 2685 c0 -3 2 -5 5 -5 3 0 5 2 5 5 0 3 -2 5 -5 5 -3 0 -5 -2 -5 -5z
M1300 2685 c0 -3 2 -5 5 -5 3 0 5 2 5 5 0 3 -2 5 -5 5 -3 0 -5 -2 -5 -5z
M1480 2685 c0 -3 2 -5 5 -5 3 0 5 2 5 5 0 3 -2 5 -5 5 -3 0 -5 -2 -5 -5z
M1625 2680 c3 -5 11 -10 16 -10 6 0 7 5 4 10 -3 6 -11 10 -16 10 -6 0 -7 -4
-4 -10z M1920 2685 c0 -3 2 -5 5 -5 3 0 5 2 5 5 0 3 -2 5 -5 5 -3 0 -5 -2 -5
-5z M2141 2681 c-7 -5 -11 -15 -9 -22 3 -10 8 -7 17 9 13 24 12 26 -8 13z
M2170 2685 c0 -3 2 -5 5 -5 3 0 5 2 5 5 0 3 -2 5 -5 5 -3 0 -5 -2 -5 -5z
M2102 2660 c0 -14 2 -19 5 -12 2 6 2 18 0 25 -3 6 -5 1 -5 -13z M970 2655 c0
-8 2 -15 4 -15 2 0 6 7 10 15 3 8 1 15 -4 15 -6 0 -10 -7 -10 -15z M1850 2665
c0 -3 2 -5 5 -5 3 0 5 2 5 5 0 3 -2 5 -5 5 -3 0 -5 -2 -5 -5z M1908 2663 c7
-3 16 -2 19 1 4 3 -2 6 -13 5 -11 0 -14 -3 -6 -6z M2170 2665 c0 -3 2 -5 5 -5
3 0 5 2 5 5 0 3 -2 5 -5 5 -3 0 -5 -2 -5 -5z M1963 2653 c4 -3 10 -3 14 0 3 4
0 7 -7 7 -7 0 -10 -3 -7 -7z M1995 2650 c3 -5 8 -10 11 -10 3 0 2 5 -1 10 -3
6 -8 10 -11 10 -3 0 -2 -4 1 -10z M2037 2646 c-9 -7 -17 -17 -17 -21 0 -4 8
-1 17 6 15 12 16 12 10 -3 -3 -10 -3 -18 2 -18 11 0 22 38 12 44 -3 2 -14 -1
-24 -8z M1000 2646 c0 -3 14 -14 30 -26 l30 -22 -11 26 c-10 21 -49 38 -49 22z
M1140 2645 c0 -3 2 -5 5 -5 3 0 5 2 5 5 0 3 -2 5 -5 5 -3 0 -5 -2 -5 -5z
M2222 2630 c0 -14 2 -19 5 -12 2 6 2 18 0 25 -3 6 -5 1 -5 -13z M2240 2645 c0
-3 2 -5 5 -5 3 0 5 2 5 5 0 3 -2 5 -5 5 -3 0 -5 -2 -5 -5z M1940 2629 c0 -18
18 -29 37 -22 7 2 9 11 6 19 -5 13 -7 13 -14 2 -7 -11 -11 -10 -19 2 -8 13
-10 13 -10 -1z M2151 2618 c0 -16 -6 -28 -12 -28 -5 0 -7 -5 -3 -11 10 -17 26
17 21 44 -4 18 -4 18 -6 -5z M2170 2635 c0 -3 2 -5 5 -5 3 0 5 2 5 5 0 3 -2 5
-5 5 -3 0 -5 -2 -5 -5z M860 2623 c-23 -9 -35 -26 -38 -53 -2 -14 0 -20 5 -14
12 18 46 25 63 13 12 -8 10 -9 -7 -4 -18 5 -22 3 -17 -8 6 -16 42 -29 56 -21
5 4 7 13 4 21 -4 10 -2 13 8 10 10 -4 13 -1 9 9 -6 15 2 17 32 5 18 -7 17 -10
-14 -25 -34 -18 -27 -42 8 -28 14 5 14 4 1 -10 -11 -12 -20 -13 -34 -6 -13 7
-16 7 -12 -1 4 -6 1 -11 -8 -11 -8 0 -18 -5 -22 -11 -8 -14 14 -29 33 -22 34
13 8 -18 -32 -37 -24 -12 -43 -26 -42 -32 3 -15 -53 -33 -62 -20 -4 6 -14 4
-28 -7 -24 -20 -16 -48 11 -38 25 10 19 -7 -6 -18 -14 -6 -24 -21 -26 -37 -3
-24 0 -28 21 -28 25 0 37 -16 37 -51 0 -20 41 -69 58 -69 5 0 15 19 22 43 21
67 60 159 73 171 27 26 68 46 93 46 21 0 25 4 21 19 -4 15 2 20 33 25 21 3 40
11 42 18 3 7 12 9 22 5 9 -4 14 -12 11 -18 -5 -7 7 -9 35 -6 23 2 45 9 49 15
5 8 17 9 45 1 20 -6 43 -8 49 -5 7 2 4 5 -5 5 -10 1 -18 7 -18 15 0 9 -20 15
-62 20 -35 3 -64 11 -66 16 -2 5 -15 2 -28 -7 -32 -21 -46 -8 -53 48 -2 10
-52 30 -62 24 -5 -4 -9 1 -9 9 0 9 -6 13 -14 10 -8 -3 -21 4 -30 18 -16 25
-74 32 -68 9 3 -17 -28 -13 -34 4 -6 16 -18 18 -44 8z m197 -100 c-4 -3 -7 0
-7 7 0 7 3 10 7 7 3 -4 3 -10 0 -14z m50 0 c-4 -3 -7 0 -7 7 0 7 3 10 7 7 3
-4 3 -10 0 -14z m-52 -43 c14 0 25 -4 25 -10 0 -5 -12 -10 -27 -10 -16 0 -38
-3 -50 -6 -29 -8 -37 27 -8 43 16 9 22 9 28 -3 4 -8 19 -14 32 -14z m-95 -15
c0 -3 -2 -5 -5 -5 -3 0 -5 2 -5 5 0 3 2 5 5 5 3 0 5 -2 5 -5z m137 -21 c-3 -3
-12 -4 -19 -1 -8 3 -5 6 6 6 11 1 17 -2 13 -5z m-100 -11 c-4 -3 -10 -3 -14 0
-3 4 0 7 7 7 7 0 10 -3 7 -7z m-180 -80 c-4 -3 -10 -3 -14 0 -3 4 0 7 7 7 7 0
10 -3 7 -7z m-37 -68 c0 -3 -2 -5 -5 -5 -3 0 -5 2 -5 5 0 3 2 5 5 5 3 0 5 -2
5 -5z m50 -37 c0 -4 -4 -8 -9 -8 -6 0 -12 4 -15 8 -3 5 1 9 9 9 8 0 15 -4 15
-9z m14 -34 c5 -14 4 -15 -9 -4 -17 14 -19 20 -6 20 5 0 12 -7 15 -16z M1150
2625 c0 -3 2 -5 5 -5 3 0 5 2 5 5 0 3 -2 5 -5 5 -3 0 -5 -2 -5 -5z M1920 2615
c0 -3 2 -5 5 -5 3 0 5 2 5 5 0 3 -2 5 -5 5 -3 0 -5 -2 -5 -5z M2105 2610 c27
-12 35 -12 35 0 0 6 -12 10 -27 9 -25 0 -26 -1 -8 -9z M2015 2594 c19 -14 19
-28 0 -20 -8 3 -15 1 -15 -4 0 -16 27 -11 62 10 18 11 31 20 28 21 -3 0 -24 1
-48 2 -33 2 -39 0 -27 -9z M2176 2595 c4 -8 7 -15 9 -15 2 0 5 7 9 15 3 9 0
15 -9 15 -9 0 -12 -6 -9 -15z M1880 2589 c0 -5 -4 -8 -8 -5 -4 2 -14 1 -22 -5
-11 -6 -9 -9 11 -9 15 0 29 7 33 15 3 8 1 15 -4 15 -6 0 -10 -5 -10 -11z
M1906 2583 c-6 -14 -5 -15 5 -6 7 7 10 15 7 18 -3 3 -9 -2 -12 -12z M1930
2582 c0 -9 -9 -28 -20 -42 -19 -24 -19 -24 -13 -2 3 13 1 22 -6 22 -6 0 -11
-7 -11 -15 0 -16 -8 -18 -52 -15 -14 1 -28 -2 -31 -7 -3 -4 18 -8 46 -7 72 1
87 3 86 12 -1 4 -1 14 0 22 1 13 2 13 11 0 8 -11 9 -7 4 15 -4 21 -3 26 4 16
6 -8 17 -11 26 -8 26 10 18 24 -14 25 -22 0 -30 -4 -30 -16z M836 2553 c-4 -5
-13 -8 -19 -8 -7 0 -11 -13 -9 -30 1 -17 2 -39 2 -49 1 -18 4 -17 26 7 14 15
31 27 38 27 8 0 17 7 20 16 4 11 2 15 -6 11 -15 -5 -40 17 -31 27 4 3 2 6 -4
6 -5 0 -13 -3 -17 -7z M1520 2550 c0 -5 9 -10 20 -10 11 0 20 5 20 10 0 6 -9
10 -20 10 -11 0 -20 -4 -20 -10z M1630 2555 c0 -3 2 -5 5 -5 3 0 5 2 5 5 0 3
-2 5 -5 5 -3 0 -5 -2 -5 -5z M2110 2555 c0 -3 2 -5 5 -5 3 0 5 2 5 5 0 3 -2 5
-5 5 -3 0 -5 -2 -5 -5z M2200 2555 c0 -3 2 -5 5 -5 3 0 5 2 5 5 0 3 -2 5 -5 5
-3 0 -5 -2 -5 -5z M2312 2546 c7 -8 15 -12 17 -11 5 6 -10 25 -20 25 -5 0 -4
-6 3 -14z M1778 2543 c6 -2 18 -2 25 0 6 3 1 5 -13 5 -14 0 -19 -2 -12 -5z
M1850 2545 c0 -3 2 -5 5 -5 3 0 5 2 5 5 0 3 -2 5 -5 5 -3 0 -5 -2 -5 -5z
M2080 2539 c0 -9 48 -24 55 -17 2 2 -9 9 -25 15 -17 6 -30 7 -30 2z M2170
2540 c0 -7 3 -10 7 -7 3 4 3 10 0 14 -4 3 -7 0 -7 -7z M1956 2523 c-6 -14 -5
-15 5 -6 7 7 10 15 7 18 -3 3 -9 -2 -12 -12z M2200 2530 c0 -7 3 -10 7 -7 3 4
3 10 0 14 -4 3 -7 0 -7 -7z M1163 2523 c4 -3 10 -3 14 0 3 4 0 7 -7 7 -7 0
-10 -3 -7 -7z M2285 2520 c-3 -6 1 -7 9 -4 18 7 21 14 7 14 -6 0 -13 -4 -16
-10z M1263 2513 c4 -3 10 -3 14 0 3 4 0 7 -7 7 -7 0 -10 -3 -7 -7z M1560 2515
c0 -3 2 -5 5 -5 3 0 5 2 5 5 0 3 -2 5 -5 5 -3 0 -5 -2 -5 -5z M1696 2513 c-4
-4 -15 -8 -23 -8 -9 0 -18 -6 -20 -12 -3 -9 6 -12 29 -10 22 2 34 8 36 20 4
17 -9 23 -22 10z M1760 2510 c0 -7 3 -10 7 -7 3 4 3 10 0 14 -4 3 -7 0 -7 -7z
M2020 2509 c0 -5 5 -7 10 -4 6 3 10 8 10 11 0 2 -4 4 -10 4 -5 0 -10 -5 -10
-11z M2150 2516 c0 -2 7 -6 15 -10 8 -3 15 -1 15 4 0 6 -7 10 -15 10 -8 0 -15
-2 -15 -4z M2240 2515 c0 -3 2 -5 5 -5 3 0 5 2 5 5 0 3 -2 5 -5 5 -3 0 -5 -2
-5 -5z M1930 2500 c0 -7 3 -10 7 -7 3 4 3 10 0 14 -4 3 -7 0 -7 -7z M2059
2507 c-4 -12 -6 -49 -3 -39 3 6 12 12 20 12 19 0 18 16 -1 24 -8 3 -15 4 -16
3z M2110 2500 c0 -5 5 -10 10 -10 6 0 10 5 10 10 0 6 -4 10 -10 10 -5 0 -10
-4 -10 -10z M1386 2491 c-11 -18 13 -54 28 -42 7 6 16 8 19 4 13 -12 62 -10
90 4 25 13 36 31 20 34 -33 7 -73 6 -73 -1 0 -18 -42 -22 -60 -5 -11 10 -20
13 -24 6z m131 -17 c-3 -3 -12 -4 -19 -1 -8 3 -5 6 6 6 11 1 17 -2 13 -5z
M1980 2495 c0 -3 2 -5 5 -5 3 0 5 2 5 5 0 3 -2 5 -5 5 -3 0 -5 -2 -5 -5z
M2226 2487 c3 -10 9 -15 12 -12 3 3 0 11 -7 18 -10 9 -11 8 -5 -6z M1585 2480
c-19 -8 -19 -9 3 -9 12 -1 22 4 22 9 0 6 -1 10 -2 9 -2 0 -12 -4 -23 -9z
M2163 2479 c19 -11 24 -39 6 -39 -5 0 -7 -5 -3 -12 5 -8 11 -5 17 10 10 23 -5
52 -27 52 -6 0 -3 -5 7 -11z M2267 2474 c6 -15 23 -19 23 -5 0 5 -7 11 -14 14
-10 4 -13 1 -9 -9z M2340 2480 c0 -5 5 -10 10 -10 6 0 10 5 10 10 0 6 -4 10
-10 10 -5 0 -10 -4 -10 -10z M1853 2473 c4 -3 10 -3 14 0 3 4 0 7 -7 7 -7 0
-10 -3 -7 -7z M1927 2468 c2 -5 13 -8 24 -8 10 0 19 3 19 8 0 4 -11 7 -24 7
-13 0 -22 -3 -19 -7z M2013 2473 c4 -3 10 -3 14 0 3 4 0 7 -7 7 -7 0 -10 -3
-7 -7z M2200 2470 c0 -7 3 -10 7 -7 3 4 3 10 0 14 -4 3 -7 0 -7 -7z M2046
2438 c-20 -20 -24 -28 -13 -28 9 0 22 10 28 22 12 22 12 22 20 3 5 -13 8 -15
8 -5 1 32 -14 35 -43 8z M880 2455 c0 -3 2 -5 5 -5 3 0 5 2 5 5 0 3 -2 5 -5 5
-3 0 -5 -2 -5 -5z M2130 2450 c0 -5 5 -10 10 -10 6 0 10 5 10 10 0 6 -4 10
-10 10 -5 0 -10 -4 -10 -10z M1913 2443 c4 -3 10 -3 14 0 3 4 0 7 -7 7 -7 0
-10 -3 -7 -7z M2020 2445 c0 -3 2 -5 5 -5 3 0 5 2 5 5 0 3 -2 5 -5 5 -3 0 -5
-2 -5 -5z M2240 2440 c0 -7 3 -10 7 -7 3 4 3 10 0 14 -4 3 -7 0 -7 -7z M1850
2425 c0 -8 2 -15 4 -15 2 0 6 7 10 15 3 8 1 15 -4 15 -6 0 -10 -7 -10 -15z
M1950 2430 c0 -7 3 -10 7 -7 3 4 3 10 0 14 -4 3 -7 0 -7 -7z M1980 2435 c0 -3
2 -5 5 -5 3 0 5 2 5 5 0 3 -2 5 -5 5 -3 0 -5 -2 -5 -5z M2200 2430 c0 -5 5
-10 10 -10 6 0 10 5 10 10 0 6 -4 10 -10 10 -5 0 -10 -4 -10 -10z M2278 2433
c-10 -2 -18 -9 -18 -14 0 -13 12 -11 34 6 20 15 16 17 -16 8z M2350 2425 c0
-3 2 -5 5 -5 3 0 5 2 5 5 0 3 -2 5 -5 5 -3 0 -5 -2 -5 -5z M1920 2405 c0 -3 2
-5 5 -5 3 0 5 2 5 5 0 3 -2 5 -5 5 -3 0 -5 -2 -5 -5z M1955 2400 c4 -6 11 -8
16 -5 14 9 11 15 -7 15 -8 0 -12 -5 -9 -10z M2046 2397 c-11 -8 -17 -19 -15
-25 2 -6 14 -1 28 13 25 27 17 34 -13 12z M2097 2391 c-5 -21 10 -31 44 -31
21 0 26 25 7 36 -8 5 -9 2 -5 -9 5 -13 1 -17 -14 -17 -15 0 -19 5 -16 15 4 8
2 17 -2 20 -5 2 -11 -4 -14 -14z M2172 2401 c4 -13 18 -16 19 -4 0 4 -5 9 -11
12 -7 2 -11 -2 -8 -8z M1896 2391 c-4 -7 -5 -15 -2 -18 9 -9 19 4 14 18 -4 11
-6 11 -12 0z M1930 2374 c0 -7 10 -9 25 -6 36 7 40 19 5 18 -17 -1 -30 -6 -30
-12z M2220 2374 c0 -8 5 -12 10 -9 6 4 8 11 5 16 -9 14 -15 11 -15 -7z M2260
2385 c0 -3 2 -5 5 -5 3 0 5 2 5 5 0 3 -2 5 -5 5 -3 0 -5 -2 -5 -5z M1582 2359
c-17 -34 -9 -107 14 -124 19 -13 70 -29 89 -27 6 1 30 -4 55 -12 34 -10 48
-21 63 -49 10 -21 22 -37 25 -37 4 0 8 -23 9 -50 1 -28 -2 -50 -7 -50 -6 0
-10 -7 -10 -15 0 -8 4 -15 9 -15 5 0 13 -9 16 -20 3 -11 10 -20 15 -20 5 0 12
9 15 20 3 11 15 20 26 20 30 0 22 17 -11 24 -31 6 -37 22 -31 85 1 13 -3 28
-10 32 -10 6 -10 11 0 22 10 13 8 16 -8 22 -20 6 -25 16 -22 41 1 6 -17 14
-39 18 -22 3 -40 10 -40 15 0 5 -19 11 -42 14 -24 3 -44 11 -46 17 -2 6 -15
15 -27 20 -19 7 -24 18 -27 51 -3 41 -3 42 -16 18z M2070 2375 c0 -3 2 -5 5
-5 3 0 5 2 5 5 0 3 -2 5 -5 5 -3 0 -5 -2 -5 -5z M1840 2365 c0 -3 2 -5 5 -5 3
0 5 2 5 5 0 3 -2 5 -5 5 -3 0 -5 -2 -5 -5z M2010 2365 c0 -3 2 -5 5 -5 3 0 5
2 5 5 0 3 -2 5 -5 5 -3 0 -5 -2 -5 -5z M2203 2352 c11 -12 16 -26 11 -33 -4
-8 -3 -10 4 -5 19 11 14 30 -10 45 -23 14 -23 14 -5 -7z M2060 2350 c-8 -5
-24 -7 -35 -4 -20 5 -20 5 0 -11 12 -9 21 -12 23 -5 2 5 11 10 19 10 13 0 14
-2 2 -17 -13 -16 -12 -17 3 -5 9 8 14 20 11 28 -6 16 -4 16 -23 4z M1870 2340
c0 -5 5 -10 11 -10 5 0 7 5 4 10 -3 6 -8 10 -11 10 -2 0 -4 -4 -4 -10z M1960
2345 c0 -3 2 -5 5 -5 3 0 5 2 5 5 0 3 -2 5 -5 5 -3 0 -5 -2 -5 -5z M2111 2334
c0 -11 3 -14 6 -6 3 7 2 16 -1 19 -3 4 -6 -2 -5 -13z M2141 2334 c0 -11 5 -29
13 -40 14 -18 15 -18 13 4 -1 12 -4 22 -8 22 -4 0 -10 8 -12 18 -4 14 -5 13
-6 -4z M2165 2340 c3 -5 8 -10 11 -10 3 0 2 5 -1 10 -3 6 -8 10 -11 10 -3 0
-2 -4 1 -10z M2270 2345 c0 -3 2 -5 5 -5 3 0 5 2 5 5 0 3 -2 5 -5 5 -3 0 -5
-2 -5 -5z M1910 2335 c0 -3 2 -5 5 -5 3 0 5 2 5 5 0 3 -2 5 -5 5 -3 0 -5 -2
-5 -5z M2300 2325 c0 -3 2 -5 5 -5 3 0 5 2 5 5 0 3 -2 5 -5 5 -3 0 -5 -2 -5
-5z M2090 2308 c0 -11 -5 -15 -15 -12 -8 4 -15 2 -15 -3 0 -6 12 -9 28 -8 39
3 42 4 42 16 0 5 -5 7 -11 3 -6 -3 -15 0 -20 7 -7 11 -9 10 -9 -3z M2400 2315
c0 -3 2 -5 5 -5 3 0 5 2 5 5 0 3 -2 5 -5 5 -3 0 -5 -2 -5 -5z M1960 2290 c0
-5 5 -10 10 -10 6 0 10 5 10 10 0 6 -4 10 -10 10 -5 0 -10 -4 -10 -10z M2234
2289 c-3 -6 -1 -16 5 -22 8 -8 11 -5 11 11 0 24 -5 28 -16 11z M2310 2295 c0
-3 2 -5 5 -5 3 0 5 2 5 5 0 3 -2 5 -5 5 -3 0 -5 -2 -5 -5z M1840 2280 c0 -7 3
-10 7 -7 3 4 3 10 0 14 -4 3 -7 0 -7 -7z M1870 2285 c0 -3 2 -5 5 -5 3 0 5 2
5 5 0 3 -2 5 -5 5 -3 0 -5 -2 -5 -5z M1917 2279 c7 -7 15 -10 18 -7 3 3 -2 9
-12 12 -14 6 -15 5 -6 -5z M2185 2280 c-3 -5 -2 -10 4 -10 5 0 13 5 16 10 3 6
2 10 -4 10 -5 0 -13 -4 -16 -10z M2370 2285 c0 -3 2 -5 5 -5 3 0 5 2 5 5 0 3
-2 5 -5 5 -3 0 -5 -2 -5 -5z M2124 2268 c-4 -7 -3 -8 4 -4 7 4 12 9 12 12 0 8
-9 4 -16 -8z M2090 2265 c0 -3 2 -5 5 -5 3 0 5 2 5 5 0 3 -2 5 -5 5 -3 0 -5
-2 -5 -5z M2160 2265 c0 -3 2 -5 5 -5 3 0 5 2 5 5 0 3 -2 5 -5 5 -3 0 -5 -2
-5 -5z M2273 2263 c4 -3 10 -3 14 0 3 4 0 7 -7 7 -7 0 -10 -3 -7 -7z M2310
2261 c0 -6 5 -13 10 -16 6 -3 10 1 10 9 0 9 -4 16 -10 16 -5 0 -10 -4 -10 -9z
M1915 2249 c-4 -6 -5 -12 -2 -15 2 -3 7 2 10 11 7 17 1 20 -8 4z M2140 2255
c0 -3 2 -5 5 -5 3 0 5 2 5 5 0 3 -2 5 -5 5 -3 0 -5 -2 -5 -5z M1840 2245 c0
-3 2 -5 5 -5 3 0 5 2 5 5 0 3 -2 5 -5 5 -3 0 -5 -2 -5 -5z M2040 2240 c-8 -5
-10 -10 -5 -10 6 0 17 5 25 10 8 5 11 10 5 10 -5 0 -17 -5 -25 -10z M2180
2245 c0 -3 2 -5 5 -5 3 0 5 2 5 5 0 3 -2 5 -5 5 -3 0 -5 -2 -5 -5z M2220 2246
c0 -2 7 -7 16 -10 8 -3 12 -2 9 4 -6 10 -25 14 -25 6z M2270 2228 c0 -19 2
-20 10 -8 13 19 13 30 0 30 -5 0 -10 -10 -10 -22z M2380 2245 c0 -3 2 -5 5 -5
3 0 5 2 5 5 0 3 -2 5 -5 5 -3 0 -5 -2 -5 -5z M1980 2229 c0 -5 5 -7 10 -4 6 3
10 8 10 11 0 2 -4 4 -10 4 -5 0 -10 -5 -10 -11z M2150 2220 c-8 -16 -8 -20 2
-18 7 2 12 -3 10 -10 -1 -8 2 -11 8 -7 6 3 8 10 5 15 -3 4 -1 10 4 12 5 1 3 9
-5 16 -11 10 -15 8 -24 -8z m20 -5 c0 -3 -2 -5 -5 -5 -3 0 -5 2 -5 5 0 3 2 5
5 5 3 0 5 -2 5 -5z M1933 2223 c4 -3 10 -3 14 0 3 4 0 7 -7 7 -7 0 -10 -3 -7
-7z M2085 2210 c6 -32 21 -45 28 -26 4 9 1 15 -5 13 -7 -1 -12 3 -13 10 0 6
-3 15 -7 19 -4 3 -5 -4 -3 -16z M2110 2225 c0 -3 2 -5 5 -5 3 0 5 2 5 5 0 3
-2 5 -5 5 -3 0 -5 -2 -5 -5z M2005 2210 c3 -5 8 -10 11 -10 2 0 4 5 4 10 0 6
-5 10 -11 10 -5 0 -7 -4 -4 -10z M2220 2215 c0 -3 2 -5 5 -5 3 0 5 2 5 5 0 3
-2 5 -5 5 -3 0 -5 -2 -5 -5z M1835 2200 c-3 -5 -1 -10 4 -10 6 0 11 5 11 10 0
6 -2 10 -4 10 -3 0 -8 -4 -11 -10z M1910 2200 c-9 -6 -10 -10 -3 -10 6 0 15 5
18 10 8 12 4 12 -15 0z M2041 2194 c0 -11 3 -14 6 -6 3 7 2 16 -1 19 -3 4 -6
-2 -5 -13z M2240 2200 c0 -7 3 -10 7 -7 3 4 3 10 0 14 -4 3 -7 0 -7 -7z M1948
2193 c7 -3 16 -2 19 1 4 3 -2 6 -13 5 -11 0 -14 -3 -6 -6z M2206 2185 c4 -8
10 -12 15 -9 11 6 2 24 -11 24 -5 0 -7 -7 -4 -15z M2280 2195 c0 -3 2 -5 5 -5
3 0 5 2 5 5 0 3 -2 5 -5 5 -3 0 -5 -2 -5 -5z M2317 2169 c4 -13 8 -18 11 -10
2 7 -1 18 -6 23 -8 8 -9 4 -5 -13z M2010 2175 c0 -3 2 -5 5 -5 3 0 5 2 5 5 0
3 -2 5 -5 5 -3 0 -5 -2 -5 -5z M2060 2175 c0 -3 2 -5 5 -5 3 0 5 2 5 5 0 3 -2
5 -5 5 -3 0 -5 -2 -5 -5z M1233 2158 c-13 -6 -23 -14 -23 -18 0 -4 -17 -11
-37 -15 -21 -4 -48 -16 -60 -27 -12 -11 -33 -21 -47 -22 -15 0 -29 -8 -31 -17
-3 -9 -17 -21 -30 -27 -28 -13 -31 -27 -10 -48 8 -8 12 -22 9 -32 -4 -10 -2
-13 3 -7 9 11 28 15 89 18 29 1 40 6 37 15 -3 6 -10 12 -16 12 -7 0 0 11 15
25 15 14 32 25 37 25 5 0 17 10 25 22 9 12 16 18 16 13 0 -6 4 -5 8 1 11 17
94 34 166 34 36 0 68 5 71 11 10 16 0 21 -42 21 -21 1 -63 7 -93 14 -62 16
-58 16 -87 2z m61 -17 c6 -10 -63 -26 -71 -17 -6 6 34 24 54 25 6 1 14 -3 17
-8z m-197 -147 c-9 -9 -28 6 -21 18 4 6 10 6 17 -1 6 -6 8 -13 4 -17z m-97 11
c0 -3 -2 -5 -5 -5 -3 0 -5 2 -5 5 0 3 2 5 5 5 3 0 5 -2 5 -5z M1890 2160 c-8
-5 -10 -10 -5 -10 6 0 17 5 25 10 8 5 11 10 5 10 -5 0 -17 -5 -25 -10z M1990
2150 c0 -7 3 -10 7 -7 3 4 3 10 0 14 -4 3 -7 0 -7 -7z M2350 2156 c0 -2 7 -9
15 -16 9 -7 15 -8 15 -2 0 5 -7 12 -15 16 -8 3 -15 4 -15 2z M2063 2143 c4 -3
10 -3 14 0 3 4 0 7 -7 7 -7 0 -10 -3 -7 -7z M2090 2145 c0 -3 2 -5 5 -5 3 0 5
2 5 5 0 3 -2 5 -5 5 -3 0 -5 -2 -5 -5z M1923 2123 c4 -3 10 -3 14 0 3 4 0 7
-7 7 -7 0 -10 -3 -7 -7z M2030 2121 c0 -16 18 -22 26 -10 4 8 9 7 16 -2 8 -12
9 -12 6 0 -4 16 -48 26 -48 12z M2102 2110 c0 -14 2 -19 5 -12 2 6 2 18 0 25
-3 6 -5 1 -5 -13z M2340 2125 c0 -3 2 -5 5 -5 3 0 5 2 5 5 0 3 -2 5 -5 5 -3 0
-5 -2 -5 -5z M1895 2110 c-3 -5 -1 -10 4 -10 6 0 11 5 11 10 0 6 -2 10 -4 10
-3 0 -8 -4 -11 -10z M2355 2110 c-3 -5 1 -10 9 -10 9 0 16 5 16 10 0 6 -4 10
-9 10 -6 0 -13 -4 -16 -10z M1933 2103 c4 -3 10 -3 14 0 3 4 0 7 -7 7 -7 0
-10 -3 -7 -7z M2000 2105 c0 -3 2 -5 5 -5 3 0 5 2 5 5 0 3 -2 5 -5 5 -3 0 -5
-2 -5 -5z M1880 2085 c0 -3 2 -5 5 -5 3 0 5 2 5 5 0 3 -2 5 -5 5 -3 0 -5 -2
-5 -5z M1920 2080 c0 -7 3 -10 7 -7 3 4 3 10 0 14 -4 3 -7 0 -7 -7z M2060
2085 c0 -3 2 -5 5 -5 3 0 5 2 5 5 0 3 -2 5 -5 5 -3 0 -5 -2 -5 -5z M1964 2065
c8 -8 20 -15 27 -15 7 0 4 6 -7 15 -25 19 -40 19 -20 0z M2018 2063 c7 -3 16
-2 19 1 4 3 -2 6 -13 5 -11 0 -14 -3 -6 -6z M906 2053 c-3 -3 -6 -14 -6 -24 0
-15 -5 -16 -32 -8 -18 5 -34 9 -35 9 -2 0 -10 -16 -18 -36 -21 -51 -19 -88 9
-128 42 -62 74 -86 61 -45 -4 13 -3 19 3 15 10 -6 33 16 51 52 10 18 10 39 1
93 -11 67 -20 86 -34 72z m-65 -166 c-1 -12 -15 -9 -19 4 -3 6 1 10 8 8 6 -3
11 -8 11 -12z m59 -27 c0 -5 -4 -10 -10 -10 -5 0 -10 5 -10 10 0 6 5 10 10 10
6 0 10 -4 10 -10z M960 2045 c0 -3 2 -5 5 -5 3 0 5 2 5 5 0 3 -2 5 -5 5 -3 0
-5 -2 -5 -5z M1820 2045 c0 -3 2 -5 5 -5 3 0 5 2 5 5 0 3 -2 5 -5 5 -3 0 -5
-2 -5 -5z M1940 2039 c0 -5 5 -7 10 -4 6 3 10 8 10 11 0 2 -4 4 -10 4 -5 0
-10 -5 -10 -11z M1990 2035 c0 -3 2 -5 5 -5 3 0 5 2 5 5 0 3 -2 5 -5 5 -3 0
-5 -2 -5 -5z M1280 2021 c0 -6 15 -11 33 -12 17 -1 43 -5 57 -10 18 -6 8 -7
-37 -6 -102 5 -78 -11 41 -27 27 -4 86 10 86 21 0 12 -28 29 -50 29 -14 1 -49
4 -77 9 -37 5 -53 4 -53 -4z M1400 2025 c0 -3 2 -5 5 -5 3 0 5 2 5 5 0 3 -2 5
-5 5 -3 0 -5 -2 -5 -5z M1970 2025 c0 -3 2 -5 5 -5 3 0 5 2 5 5 0 3 -2 5 -5 5
-3 0 -5 -2 -5 -5z M2010 2010 c0 -25 -29 -38 -41 -19 -7 11 -9 11 -9 -3 0 -9
-8 -19 -17 -21 -17 -4 -17 -5 0 -6 24 -1 22 -21 -3 -21 -11 0 -20 5 -20 10 0
6 -9 10 -20 10 -11 0 -20 -5 -20 -11 0 -6 6 -9 13 -6 7 3 24 -4 38 -15 l24
-20 -27 6 c-26 6 -28 4 -28 -23 0 -16 5 -33 10 -36 6 -3 10 -1 10 5 0 6 5 8
11 4 8 -5 8 -9 -1 -14 -7 -4 -10 -12 -6 -18 3 -5 -2 -16 -11 -23 -14 -12 -15
-11 -9 9 4 12 5 22 1 22 -9 0 -37 -71 -31 -78 3 -3 6 1 6 8 0 11 3 11 12 2 15
-15 7 -22 -29 -25 -23 -1 -29 -6 -25 -19 2 -10 0 -18 -6 -18 -20 0 -23 19 -8
54 19 46 8 53 -26 16 -27 -31 -38 -57 -18 -45 6 4 15 -7 21 -24 10 -29 39 -44
39 -21 0 6 5 10 10 10 6 0 10 -15 10 -32 1 -31 2 -32 15 -15 7 11 11 26 8 35
-5 12 -1 14 15 10 22 -6 27 4 23 40 -1 7 4 11 11 10 7 -2 13 6 14 17 0 12 6
30 12 41 6 11 11 40 10 64 0 30 5 47 17 56 9 7 14 17 10 23 -5 10 15 16 38 12
5 -1 6 3 2 9 -3 5 1 10 9 10 24 0 19 16 -9 34 -24 16 -25 16 -25 -4z m-80
-115 c0 -3 -2 -5 -5 -5 -3 0 -5 2 -5 5 0 3 2 5 5 5 3 0 5 -2 5 -5z m-10 -120
c0 -3 -2 -5 -5 -5 -3 0 -5 2 -5 5 0 3 2 5 5 5 3 0 5 -2 5 -5z m-35 -55 c3 -5
-1 -10 -9 -10 -9 0 -16 5 -16 10 0 6 4 10 9 10 6 0 13 -4 16 -10z M2250 2014
c0 -8 -11 -11 -29 -9 -20 3 -35 -3 -48 -18 -34 -37 -34 -52 0 -54 28 -2 29 -1
24 32 -3 19 -2 35 4 35 5 0 9 -4 9 -9 0 -4 18 -5 40 -1 22 4 37 3 34 -1 -3 -5
3 -9 14 -9 22 0 55 -63 55 -104 0 -26 11 -34 21 -17 11 17 -14 115 -35 137
-23 25 -89 38 -89 18z M1230 2015 c0 -3 2 -5 5 -5 3 0 5 2 5 5 0 3 -2 5 -5 5
-3 0 -5 -2 -5 -5z M1253 2013 c4 -3 10 -3 14 0 3 4 0 7 -7 7 -7 0 -10 -3 -7
-7z M1990 2010 c0 -7 3 -10 7 -7 3 4 3 10 0 14 -4 3 -7 0 -7 -7z M1940 2005
c0 -3 2 -5 5 -5 3 0 5 2 5 5 0 3 -2 5 -5 5 -3 0 -5 -2 -5 -5z M1237 1994 c-3
-4 -23 -6 -45 -6 -37 1 -39 -1 -57 -50 -15 -42 -16 -52 -4 -60 31 -21 80 -38
111 -38 38 1 115 34 100 44 -13 8 -73 -4 -67 -14 5 -8 -71 -4 -86 5 -18 12 -8
23 25 29 36 7 42 17 45 69 1 26 -8 34 -22 21z m-17 -39 c0 -8 -4 -15 -10 -15
-5 0 -10 7 -10 15 0 8 5 15 10 15 6 0 10 -7 10 -15z M1841 1898 c1 -19 2 -19
6 -5 5 18 5 18 19 0 13 -17 13 -17 14 5 0 15 -6 22 -20 22 -14 0 -20 -6 -19
-22z M2308 1903 c-3 -13 -2 -23 3 -23 5 0 9 -8 9 -17 0 -15 2 -16 10 -3 5 8 5
17 1 20 -5 3 -11 14 -13 25 -4 19 -4 19 -10 -2z M2130 1861 c0 -48 -6 -50 -38
-14 l-23 28 7 -53 c5 -41 3 -56 -9 -70 -31 -34 -26 -57 13 -59 19 0 25 1 12 4
-18 4 -21 9 -16 31 9 36 10 37 39 24 20 -9 25 -9 25 2 0 8 -6 16 -12 19 -23 8
6 40 38 42 35 1 58 -19 51 -45 -7 -29 10 -24 26 6 17 33 2 74 -27 74 -11 0
-34 11 -53 26 l-33 25 0 -40z M1820 1840 c0 -5 5 -10 10 -10 6 0 10 5 10 10 0
6 -4 10 -10 10 -5 0 -10 -4 -10 -10z M950 1825 c0 -3 2 -5 5 -5 3 0 5 2 5 5 0
3 -2 5 -5 5 -3 0 -5 -2 -5 -5z M2320 1825 c0 -3 2 -5 5 -5 3 0 5 2 5 5 0 3 -2
5 -5 5 -3 0 -5 -2 -5 -5z M898 1781 c-30 -30 -58 -88 -58 -120 0 -11 15 -31
33 -45 19 -15 26 -26 17 -26 -13 0 -13 -1 0 -10 9 -5 19 -5 27 1 22 19 56 0
50 -27 -4 -22 -1 -24 34 -24 39 0 48 14 40 63 0 4 8 7 19 7 11 0 38 12 60 26
35 23 42 25 57 13 18 -16 17 -9 -9 61 -25 65 -53 86 -42 30 8 -37 -12 -87 -37
-95 -24 -8 -125 3 -161 17 -29 11 -39 52 -19 74 9 9 27 85 20 83 -2 0 -16 -13
-31 -28z M2319 1783 c-13 -16 -12 -17 4 -4 9 7 17 15 17 17 0 8 -8 3 -21 -13z
M2023 1763 c4 -3 10 -3 14 0 3 4 0 7 -7 7 -7 0 -10 -3 -7 -7z M2290 1755 c0
-3 2 -5 5 -5 3 0 5 2 5 5 0 3 -2 5 -5 5 -3 0 -5 -2 -5 -5z M2146 1735 c-3 -8
-1 -15 4 -15 6 0 10 7 10 15 0 8 -2 15 -4 15 -2 0 -6 -7 -10 -15z M2250 1725
c-7 -8 -16 -13 -20 -10 -4 3 -13 -1 -19 -9 -9 -11 -7 -15 11 -20 13 -3 25 -1
26 4 2 6 8 8 12 5 11 -7 32 30 23 39 -10 10 -20 7 -33 -9z M2030 1660 c0 -5 6
-10 14 -10 8 0 17 -7 20 -16 10 -25 72 -15 68 11 -5 28 -9 30 -27 15 -12 -10
-19 -10 -27 -2 -15 15 -48 16 -48 2z M1831 1648 c-1 -10 -8 -18 -17 -18 -9 0
-14 -6 -11 -12 2 -7 14 -11 27 -10 12 2 27 -2 31 -10 7 -10 9 -9 9 5 0 9 -5
17 -10 17 -6 0 -15 10 -20 23 -7 17 -9 18 -9 5z M2150 1655 c0 -3 2 -5 5 -5 3
0 5 2 5 5 0 3 -2 5 -5 5 -3 0 -5 -2 -5 -5z M1890 1645 c0 -3 2 -5 5 -5 3 0 5
2 5 5 0 3 -2 5 -5 5 -3 0 -5 -2 -5 -5z M813 1588 c-11 -51 -2 -130 16 -136 6
-2 8 -8 5 -13 -3 -6 0 -16 6 -24 6 -8 10 -31 9 -52 -2 -21 0 -43 3 -48 3 -6 4
-61 3 -123 -3 -106 -2 -114 21 -141 37 -44 83 -61 163 -61 39 0 71 -3 71 -7 0
-4 -15 -23 -34 -43 -32 -33 -98 -123 -133 -180 -9 -14 -38 -43 -66 -65 -64
-52 -117 -107 -117 -123 0 -7 19 -21 43 -31 57 -25 103 -65 112 -98 3 -16 21
-64 39 -108 46 -111 64 -178 72 -262 6 -66 9 -73 29 -73 30 0 35 8 25 35 -5
13 -11 44 -14 70 -3 26 -9 51 -12 57 -10 16 -12 82 -3 100 6 11 5 19 -3 24 -7
4 -8 3 -4 -4 5 -8 -2 -12 -18 -12 -26 0 -36 15 -14 22 7 3 1 21 -16 51 -26 44
-28 52 -21 118 5 54 13 76 30 93 31 31 46 62 39 80 -6 15 -3 14 24 -1 28 -16
31 -16 46 0 10 9 12 17 6 17 -6 0 -8 4 -5 10 3 6 -1 7 -9 4 -9 -3 -14 -10 -11
-14 10 -16 -13 -20 -25 -5 -7 8 -9 15 -5 15 4 0 2 6 -4 14 -9 10 -8 16 4 26 8
7 12 17 8 23 -4 6 0 8 10 4 22 -8 30 8 17 33 -9 17 -8 20 10 20 11 0 20 -7 20
-16 0 -9 5 -12 12 -8 7 5 8 3 2 -7 -5 -8 -9 -18 -10 -24 0 -5 -2 -17 -3 -25
-1 -13 -2 -13 -11 0 -8 13 -10 12 -10 -2 0 -10 7 -18 15 -18 8 0 15 -7 15 -15
0 -8 5 -15 10 -15 6 0 10 4 10 9 0 6 -4 13 -10 16 -12 8 -13 35 -1 35 5 0 11
-9 14 -20 6 -22 36 -27 54 -9 8 8 14 1 22 -24 10 -29 15 -33 38 -29 20 4 22 7
10 13 -9 5 -13 17 -10 28 3 10 -1 22 -8 27 -9 5 -10 2 -6 -10 5 -12 3 -16 -5
-13 -7 2 -12 10 -10 16 7 32 6 36 -6 33 -7 -1 -12 5 -10 15 2 11 -2 17 -10 15
-8 -1 -11 2 -7 8 4 6 2 17 -4 23 -5 7 -11 51 -13 97 -3 77 -5 85 -22 83 -11
-1 -29 5 -39 12 -18 13 -17 14 18 21 21 4 40 2 44 -3 3 -5 22 -15 41 -22 19
-8 42 -21 50 -30 8 -9 26 -17 40 -17 39 -2 40 -3 40 -19 0 -18 9 -19 46 -4 28
10 28 10 9 -10 -10 -12 -13 -21 -7 -21 6 0 17 8 24 19 7 10 21 17 31 15 10 -1
16 3 14 9 -2 7 -20 11 -43 10 -31 -2 -35 -1 -19 7 16 7 12 9 -19 7 -27 -1 -42
4 -52 18 -14 18 -14 18 -14 -1 -1 -18 -1 -18 -11 0 -12 20 5 40 28 31 7 -2 19
3 28 11 8 8 19 13 23 10 5 -3 42 4 83 15 41 11 84 22 97 26 12 3 27 14 33 24
11 21 3 43 -12 33 -5 -3 -7 -9 -4 -14 12 -19 -29 -32 -99 -32 -42 -1 -73 -4
-71 -8 3 -4 -10 -15 -29 -24 -42 -20 -46 -20 -46 -1 0 10 10 15 27 15 33 0 26
9 -10 12 -15 1 -29 8 -31 15 -3 7 -13 13 -21 13 -9 0 -14 -4 -10 -9 3 -6 -5
-15 -17 -22 -20 -11 -21 -10 -11 3 11 12 9 17 -12 26 -18 8 -24 8 -22 0 1 -6
-4 -13 -10 -15 -7 -3 -13 2 -13 10 0 10 -11 14 -40 13 -23 0 -36 -2 -30 -4 22
-8 9 -22 -20 -22 -17 0 -30 5 -30 13 0 8 -4 7 -10 -3 -6 -9 -10 -10 -10 -3 0
6 -12 11 -27 10 -55 -2 -113 22 -113 46 -1 64 -33 92 -46 40 -4 -16 -14 -37
-21 -48 -13 -18 -14 -4 -10 117 5 143 12 168 49 168 12 0 22 9 25 20 4 16 8
18 19 9 8 -7 17 -9 21 -5 3 3 0 6 -8 6 -11 0 -11 2 1 10 21 14 40 12 34 -3 -3
-10 12 -12 67 -9 73 5 119 -9 119 -35 0 -7 7 -13 16 -13 15 0 14 42 -2 101 -8
28 -93 54 -101 32 -3 -7 2 -13 11 -13 9 0 16 -4 16 -10 0 -5 7 -10 15 -10 15
0 20 -12 9 -23 -3 -3 -29 3 -57 12 -29 10 -80 20 -114 24 -63 5 -63 5 -63 -21
0 -20 -3 -23 -12 -14 -21 21 -40 15 -26 -8 7 -10 9 -22 6 -26 -11 -10 -28 6
-28 26 0 10 -4 21 -10 25 -12 7 -2 34 21 61 19 20 18 21 -15 37 -22 10 -36 25
-38 39 -3 17 -7 10 -15 -24z m17 -43 c0 -3 -2 -5 -5 -5 -3 0 -5 2 -5 5 0 3 2
5 5 5 3 0 5 -2 5 -5z m220 -90 c0 -3 -2 -5 -5 -5 -3 0 -5 2 -5 5 0 3 2 5 5 5
3 0 5 -2 5 -5z m147 -2 c-4 -3 -10 -3 -14 0 -3 4 0 7 7 7 7 0 10 -3 7 -7z
m-337 -128 c0 -3 -2 -5 -5 -5 -3 0 -5 2 -5 5 0 3 2 5 5 5 3 0 5 -2 5 -5z m620
-280 c0 -3 -2 -5 -5 -5 -3 0 -5 2 -5 5 0 3 2 5 5 5 3 0 5 -2 5 -5z m-223 -62
c-4 -3 -7 0 -7 7 0 7 3 10 7 7 3 -4 3 -10 0 -14z m143 -68 c0 -3 -2 -5 -5 -5
-3 0 -5 2 -5 5 0 3 2 5 5 5 3 0 5 -2 5 -5z m-350 -190 c0 -3 -2 -5 -5 -5 -3 0
-5 2 -5 5 0 3 2 5 5 5 3 0 5 -2 5 -5z m180 -20 c0 -3 -2 -5 -5 -5 -3 0 -5 2
-5 5 0 3 2 5 5 5 3 0 5 -2 5 -5z m-233 -19 c-12 -9 -14 -16 -8 -21 17 -10 13
-25 -4 -19 -20 8 -19 31 3 43 25 15 30 13 9 -3z m203 4 c0 -5 -4 -10 -10 -10
-5 0 -10 5 -10 10 0 6 5 10 10 10 6 0 10 -4 10 -10z m-240 -25 c0 -3 -2 -5 -5
-5 -3 0 -5 2 -5 5 0 3 2 5 5 5 3 0 5 -2 5 -5z m90 0 c0 -3 -2 -5 -5 -5 -3 0
-5 2 -5 5 0 3 2 5 5 5 3 0 5 -2 5 -5z m-110 -20 c0 -3 -2 -5 -5 -5 -3 0 -5 2
-5 5 0 3 2 5 5 5 3 0 5 -2 5 -5z m22 -28 c-6 -7 -9 -24 -6 -38 5 -19 4 -21 -5
-9 -10 13 -12 13 -20 0 -8 -12 -12 -12 -29 3 -10 9 -22 14 -25 10 -4 -3 -7 -1
-7 5 0 11 34 26 70 31 6 0 10 9 10 18 0 13 3 14 12 5 8 -8 8 -15 0 -25z m-75
6 c-4 -3 -7 0 -7 7 0 7 3 10 7 7 3 -4 3 -10 0 -14z m23 12 c0 -3 -2 -5 -5 -5
-3 0 -5 2 -5 5 0 3 2 5 5 5 3 0 5 -2 5 -5z m120 -30 c0 -3 -2 -5 -5 -5 -3 0
-5 2 -5 5 0 3 2 5 5 5 3 0 5 -2 5 -5z m-142 -47 c-2 -7 7 -14 19 -16 14 -2 21
-10 20 -22 -1 -17 -3 -18 -17 -5 -9 8 -22 15 -29 15 -7 0 -9 5 -6 10 3 6 0 10
-7 10 -9 0 -9 3 2 10 19 13 20 12 18 -2z m-38 -13 c0 -3 -2 -5 -5 -5 -3 0 -5
2 -5 5 0 3 2 5 5 5 3 0 5 -2 5 -5z M1190 1610 c0 -7 3 -10 7 -7 3 4 3 10 0 14
-4 3 -7 0 -7 -7z M1990 1615 c0 -3 2 -5 5 -5 3 0 5 2 5 5 0 3 -2 5 -5 5 -3 0
-5 -2 -5 -5z M1975 1591 c3 -5 -1 -11 -7 -14 -10 -3 -10 -7 0 -19 10 -13 10
-17 0 -21 -9 -4 -10 -8 -2 -14 6 -4 14 -15 17 -23 5 -13 6 -12 6 1 1 11 8 15
24 12 31 -6 59 25 35 38 -10 5 -23 15 -30 22 -16 16 -51 30 -43 18z M1830
1575 c0 -3 2 -5 5 -5 3 0 5 2 5 5 0 3 -2 5 -5 5 -3 0 -5 -2 -5 -5z M912 1548
c-19 -19 -14 -30 11 -26 12 2 22 9 22 17 0 19 -18 24 -33 9z M1880 1542 c0 -5
7 -13 16 -16 10 -4 14 -1 12 6 -5 15 -28 23 -28 10z M2075 1540 c-3 -5 -2 -17
3 -26 8 -14 10 -12 10 9 0 29 -3 33 -13 17z M2110 1540 c0 -7 3 -10 7 -7 3 4
3 10 0 14 -4 3 -7 0 -7 -7z M1930 1535 c0 -3 2 -5 5 -5 3 0 5 2 5 5 0 3 -2 5
-5 5 -3 0 -5 -2 -5 -5z M1830 1502 c0 -24 4 -30 15 -26 18 7 18 14 0 38 -14
19 -15 18 -15 -12z M1956 1481 c-4 -7 -5 -15 -2 -18 9 -9 19 4 14 18 -4 11 -6
11 -12 0z M1920 1470 c0 -7 3 -10 7 -7 3 4 3 10 0 14 -4 3 -7 0 -7 -7z M1840
1455 c0 -3 2 -5 5 -5 3 0 5 2 5 5 0 3 -2 5 -5 5 -3 0 -5 -2 -5 -5z M1920 1419
c0 -12 5 -19 12 -17 18 6 20 25 3 31 -10 5 -15 0 -15 -14z M1845 1420 c-3 -5
-1 -10 4 -10 6 0 11 5 11 10 0 6 -2 10 -4 10 -3 0 -8 -4 -11 -10z M1680 1405
c0 -3 2 -5 5 -5 3 0 5 2 5 5 0 3 -2 5 -5 5 -3 0 -5 -2 -5 -5z M1864 1398 c-7
-11 18 -10 36 2 11 7 10 9 -8 7 -13 -1 -26 -5 -28 -9z M1920 1385 c0 -3 2 -5
5 -5 3 0 5 2 5 5 0 3 -2 5 -5 5 -3 0 -5 -2 -5 -5z M990 1359 c-25 -4 -54 -10
-65 -12 -11 -3 -24 -6 -30 -6 -6 -1 -5 -5 1 -9 7 -4 14 -18 15 -32 4 -22 8
-25 47 -24 45 1 66 17 57 42 -3 8 4 16 15 19 20 5 27 19 13 25 -5 2 -28 1 -53
-3z M1917 1363 c-12 -12 -7 -22 8 -17 8 4 15 10 15 15 0 11 -14 12 -23 2z
M1792 1331 c-10 -6 -9 -10 7 -14 14 -3 21 0 21 9 0 16 -9 18 -28 5z M1835
1330 c3 -5 8 -10 11 -10 3 0 2 5 -1 10 -3 6 -8 10 -11 10 -3 0 -2 -4 1 -10z
M1030 1325 c0 -3 2 -5 5 -5 3 0 5 2 5 5 0 3 -2 5 -5 5 -3 0 -5 -2 -5 -5z
M1863 1310 c-3 -11 -9 -20 -14 -20 -5 0 -6 -6 -3 -14 4 -10 -8 -15 -41 -20
-41 -7 -45 -9 -33 -23 11 -14 10 -15 -10 -9 -20 7 -22 4 -22 -27 0 -31 -4 -35
-42 -48 -33 -11 -42 -11 -46 -1 -3 9 -8 8 -17 -5 -35 -47 110 -23 162 27 24
23 31 50 13 50 -5 0 -10 5 -10 10 0 18 40 11 41 -7 0 -15 2 -15 9 2 5 11 9 14
9 8 2 -27 21 -11 32 27 7 21 15 38 18 35 4 -2 12 5 19 16 11 17 9 19 -24 19
-27 0 -37 -5 -41 -20z m19 -22 c-9 -9 -12 -7 -12 12 0 19 3 21 12 12 9 -9 9
-15 0 -24z m-85 -95 c-4 -3 -7 0 -7 7 0 7 3 10 7 7 3 -4 3 -10 0 -14z m-30
-10 c-4 -3 -7 0 -7 7 0 7 3 10 7 7 3 -4 3 -10 0 -14z M1710 1210 c0 -7 3 -10
7 -7 3 4 3 10 0 14 -4 3 -7 0 -7 -7z M1160 1169 c0 -5 5 -7 10 -4 6 3 10 8 10
11 0 2 -4 4 -10 4 -5 0 -10 -5 -10 -11z M1200 1155 c0 -3 2 -5 5 -5 3 0 5 2 5
5 0 3 -2 5 -5 5 -3 0 -5 -2 -5 -5z M1230 1155 c0 -3 2 -5 5 -5 3 0 5 2 5 5 0
3 -2 5 -5 5 -3 0 -5 -2 -5 -5z M1570 1130 c19 -13 30 -13 30 0 0 6 -10 10 -22
10 -19 0 -20 -2 -8 -10z M1030 1120 c0 -6 7 -10 15 -10 8 0 15 2 15 4 0 2 -7
6 -15 10 -8 3 -15 1 -15 -4z M1420 1090 c0 -5 5 -10 10 -10 6 0 10 5 10 10 0
6 -4 10 -10 10 -5 0 -10 -4 -10 -10z M1123 1083 c4 -3 10 -3 14 0 3 4 0 7 -7
7 -7 0 -10 -3 -7 -7z M1500 1076 c0 -2 7 -7 16 -10 8 -3 12 -2 9 4 -6 10 -25
14 -25 6z M1398 1063 c7 -3 16 -2 19 1 4 3 -2 6 -13 5 -11 0 -14 -3 -6 -6z
M2070 1045 c0 -3 2 -5 5 -5 3 0 5 2 5 5 0 3 -2 5 -5 5 -3 0 -5 -2 -5 -5z
M1610 970 c0 -5 5 -10 10 -10 6 0 10 5 10 10 0 6 -4 10 -10 10 -5 0 -10 -4
-10 -10z M1360 955 c0 -3 2 -5 5 -5 3 0 5 2 5 5 0 3 -2 5 -5 5 -3 0 -5 -2 -5
-5z M2000 955 c0 -3 2 -5 5 -5 3 0 5 2 5 5 0 3 -2 5 -5 5 -3 0 -5 -2 -5 -5z
M1510 915 c0 -3 2 -5 5 -5 3 0 5 2 5 5 0 3 -2 5 -5 5 -3 0 -5 -2 -5 -5z M2275
910 c-4 -6 -1 -10 4 -10 6 0 11 -9 11 -21 0 -11 4 -28 8 -37 9 -18 -10 -67
-21 -56 -3 4 -6 -2 -5 -12 0 -11 -3 -28 -7 -39 -5 -16 -3 -15 14 5 11 14 21
32 21 41 0 8 5 20 11 26 15 15 2 100 -16 107 -8 3 -17 1 -20 -4z M2420 860 c0
-7 3 -10 7 -7 3 4 3 10 0 14 -4 3 -7 0 -7 -7z M1433 853 c4 -3 10 -3 14 0 3 4
0 7 -7 7 -7 0 -10 -3 -7 -7z M2270 850 c0 -7 3 -10 7 -7 3 4 3 10 0 14 -4 3
-7 0 -7 -7z M2705 778 c39 -40 75 -76 80 -80 6 -4 7 -8 3 -8 -4 0 16 -21 44
-47 28 -27 55 -57 60 -68 5 -11 15 -31 23 -45 l15 -25 0 24 c0 32 -40 111 -57
111 -21 0 -15 20 10 30 12 5 16 9 10 9 -7 1 -13 6 -13 12 0 7 -10 20 -22 30
-32 28 -14 35 27 10 46 -27 45 -27 45 8 0 27 -4 29 -82 50 -46 12 -106 31
-133 42 -82 31 -83 23 -10 -53z m105 -13 c0 -3 -2 -5 -5 -5 -3 0 -5 2 -5 5 0
3 2 5 5 5 3 0 5 -2 5 -5z m35 -85 c3 -5 4 -10 1 -10 -3 0 -8 5 -11 10 -3 6 -4
10 -1 10 3 0 8 -4 11 -10z M1445 830 c-3 -6 1 -7 9 -4 18 7 21 14 7 14 -6 0
-13 -4 -16 -10z M1500 835 c0 -3 2 -5 5 -5 3 0 5 2 5 5 0 3 -2 5 -5 5 -3 0 -5
-2 -5 -5z M2233 833 c4 -3 10 -3 14 0 3 4 0 7 -7 7 -7 0 -10 -3 -7 -7z M1473
813 c4 -3 10 -3 14 0 3 4 0 7 -7 7 -7 0 -10 -3 -7 -7z M890 783 c-70 -35 -149
-86 -177 -115 -26 -26 -30 -50 -8 -42 8 4 15 1 15 -4 0 -18 -20 -24 -35 -12
-11 10 -15 10 -15 1 0 -7 -4 -10 -9 -7 -11 7 -23 -22 -15 -36 4 -6 0 -14 -7
-19 -7 -4 -10 -11 -7 -15 4 -3 17 10 29 30 12 20 23 35 26 33 5 -6 -55 -102
-65 -103 -25 -3 -41 -18 -38 -37 3 -24 -23 -87 -36 -87 -4 0 -8 -7 -8 -15 0
-8 -5 -15 -11 -15 -5 0 -7 -4 -4 -10 3 -5 -1 -23 -10 -39 -8 -17 -15 -36 -15
-43 0 -7 10 6 22 30 22 43 32 50 43 32 3 -5 13 -10 21 -10 14 0 14 2 0 15 -8
8 -20 15 -26 15 -13 0 3 35 29 62 9 9 22 24 29 33 7 8 18 15 25 15 7 0 6 -4
-3 -10 -13 -8 -13 -10 2 -10 9 0 20 -5 24 -11 5 -9 -1 -10 -22 -5 -27 6 -27 5
-8 -6 24 -15 23 -18 -24 -100 -31 -53 -35 -56 -58 -47 -31 11 -34 11 -34 0 0
-5 9 -11 20 -14 28 -7 25 -39 -7 -78 -16 -18 -27 -35 -27 -38 1 -3 -2 -16 -7
-27 -4 -12 -10 -39 -13 -60 l-6 -39 25 50 c14 28 23 40 19 28 -7 -28 7 -30 29
-5 19 20 23 37 7 27 -5 -3 -10 1 -10 9 0 9 5 16 12 16 6 0 8 3 4 7 -4 5 -14
-1 -22 -11 -19 -27 -18 -6 2 22 8 12 13 22 10 22 -2 0 11 23 30 51 19 28 34
55 34 59 0 5 10 10 23 12 18 2 22 9 20 34 -2 21 13 61 47 125 56 105 64 143
10 49 -34 -59 -69 -78 -62 -35 2 16 1 17 -7 5 -5 -8 -13 -12 -16 -8 -3 3 0 12
7 19 17 17 78 113 78 122 0 9 87 88 97 89 24 1 133 99 133 119 0 12 1 12 -60
-18z m-230 -198 c0 -3 -2 -5 -5 -5 -3 0 -5 2 -5 5 0 3 2 5 5 5 3 0 5 -2 5 -5z
m-50 -120 c0 -3 -2 -5 -5 -5 -3 0 -5 2 -5 5 0 3 2 5 5 5 3 0 5 -2 5 -5z m50
-155 c0 -5 -4 -10 -10 -10 -5 0 -10 5 -10 10 0 6 5 10 10 10 6 0 10 -4 10 -10z
M1462 760 c-16 -27 -15 -30 8 -30 21 0 23 4 12 32 -7 17 -8 16 -20 -2z M2250
760 c0 -7 3 -10 7 -7 3 4 3 10 0 14 -4 3 -7 0 -7 -7z M655 706 c-136 -45 -292
-105 -360 -139 -116 -58 -216 -154 -214 -208 0 -18 5 -12 23 27 16 34 35 57
58 71 l35 20 -7 -39 c-4 -22 -6 -47 -3 -57 2 -9 0 -35 -5 -59 -12 -50 0 -56
18 -9 6 17 20 53 30 80 11 26 15 47 9 47 -5 0 -9 5 -9 11 0 5 4 8 9 5 4 -3 29
21 54 54 25 32 56 64 69 71 17 8 14 2 -13 -27 -35 -37 -59 -74 -59 -90 0 -4
29 -4 65 -1 38 4 65 2 65 -3 0 -5 -8 -7 -17 -3 -10 3 -15 3 -11 -1 13 -15 68
-18 68 -4 0 7 10 24 21 38 11 14 36 49 55 79 19 29 38 51 41 47 3 -3 -7 -22
-22 -41 -15 -20 -25 -39 -22 -41 3 -3 18 13 33 35 16 22 37 41 47 41 9 0 17 5
17 10 0 6 -3 9 -7 9 -49 -8 -29 11 62 57 157 80 156 81 -30 20z m-208 -233
c-4 -3 -10 -3 -14 0 -3 4 0 7 7 7 7 0 10 -3 7 -7z m-7 -18 c0 -3 -2 -5 -5 -5
-3 0 -5 2 -5 5 0 3 2 5 5 5 3 0 5 -2 5 -5z M1420 735 c0 -3 2 -5 5 -5 3 0 5 2
5 5 0 3 -2 5 -5 5 -3 0 -5 -2 -5 -5z M1510 735 c0 -3 2 -5 5 -5 3 0 5 2 5 5 0
3 -2 5 -5 5 -3 0 -5 -2 -5 -5z M1535 730 c-3 -5 -1 -10 4 -10 6 0 11 5 11 10
0 6 -2 10 -4 10 -3 0 -8 -4 -11 -10z M2700 725 c0 -3 2 -5 5 -5 3 0 5 2 5 5 0
3 -2 5 -5 5 -3 0 -5 -2 -5 -5z M1350 711 c0 -6 4 -13 10 -16 6 -3 7 1 4 9 -7
18 -14 21 -14 7z M1450 715 c0 -3 2 -5 5 -5 3 0 5 2 5 5 0 3 -2 5 -5 5 -3 0
-5 -2 -5 -5z M1430 705 c0 -3 2 -5 5 -5 3 0 5 2 5 5 0 3 -2 5 -5 5 -3 0 -5 -2
-5 -5z M2233 690 c-3 -11 -12 -20 -19 -20 -8 0 -14 -7 -14 -15 0 -14 -12 -20
-33 -16 -5 1 -6 -2 -3 -7 7 -12 -33 -49 -119 -111 -38 -27 -74 -54 -80 -59
-17 -14 -49 -25 -67 -23 -10 1 -18 -3 -18 -9 0 -7 -8 -9 -21 -5 -14 5 -19 3
-15 -3 9 -15 -49 -25 -73 -13 -15 8 -23 7 -35 -4 -8 -8 -19 -15 -25 -15 -5 0
-15 -8 -20 -17 -10 -17 -10 -17 -11 0 0 10 -5 15 -10 12 -6 -4 -8 -10 -5 -14
5 -10 -53 -21 -107 -21 -21 0 -38 4 -38 10 0 5 -7 7 -15 4 -8 -4 -15 -1 -15 5
0 6 -5 11 -11 11 -6 0 -8 -7 -5 -16 6 -15 -1 -16 -53 -10 -33 4 -74 14 -91 22
-17 9 -38 13 -48 9 -25 -10 52 -32 166 -46 183 -23 400 33 599 154 82 50 238
217 202 217 -6 0 -13 -9 -16 -20z M1420 685 c0 -3 2 -5 5 -5 3 0 5 2 5 5 0 3
-2 5 -5 5 -3 0 -5 -2 -5 -5z M1590 675 c0 -3 2 -5 5 -5 3 0 5 2 5 5 0 3 -2 5
-5 5 -3 0 -5 -2 -5 -5z M2753 660 c4 -14 7 -28 7 -32 0 -3 9 -4 21 -1 19 5 20
4 8 -15 -7 -11 -17 -18 -21 -16 -4 3 -8 0 -8 -6 0 -6 10 -8 24 -4 18 4 28 0
41 -18 11 -15 19 -19 22 -10 3 6 12 12 21 12 16 0 -7 25 -65 70 -10 8 -27 22
-38 30 -17 14 -18 13 -12 -10z m97 -80 c0 -5 -4 -10 -10 -10 -5 0 -10 5 -10
10 0 6 5 10 10 10 6 0 10 -4 10 -10z M640 645 c0 -3 2 -5 5 -5 3 0 5 2 5 5 0
3 -2 5 -5 5 -3 0 -5 -2 -5 -5z M1140 629 c0 -5 5 -7 10 -4 6 3 10 8 10 11 0 2
-4 4 -10 4 -5 0 -10 -5 -10 -11z M1180 635 c0 -3 2 -5 5 -5 3 0 5 2 5 5 0 3
-2 5 -5 5 -3 0 -5 -2 -5 -5z M1210 620 c0 -5 5 -10 10 -10 6 0 10 5 10 10 0 6
-4 10 -10 10 -5 0 -10 -4 -10 -10z M1337 606 c-3 -8 0 -17 7 -19 10 -4 12 1 9
14 -6 23 -9 24 -16 5z M1075 600 c3 -5 8 -10 11 -10 3 0 2 5 -1 10 -3 6 -8 10
-11 10 -3 0 -2 -4 1 -10z M1270 605 c0 -3 2 -5 5 -5 3 0 5 2 5 5 0 3 -2 5 -5
5 -3 0 -5 -2 -5 -5z M2610 605 c0 -3 2 -5 5 -5 3 0 5 2 5 5 0 3 -2 5 -5 5 -3
0 -5 -2 -5 -5z M600 595 c0 -3 2 -5 5 -5 3 0 5 2 5 5 0 3 -2 5 -5 5 -3 0 -5
-2 -5 -5z M1670 585 c0 -3 2 -5 5 -5 3 0 5 2 5 5 0 3 -2 5 -5 5 -3 0 -5 -2 -5
-5z M590 575 c0 -3 2 -5 5 -5 3 0 5 2 5 5 0 3 -2 5 -5 5 -3 0 -5 -2 -5 -5z
M1280 575 c0 -3 2 -5 5 -5 3 0 5 2 5 5 0 3 -2 5 -5 5 -3 0 -5 -2 -5 -5z M1312
571 c-8 -4 -14 -10 -15 -12 -2 -7 54 -59 63 -59 6 0 10 -4 10 -10 0 -5 7 -10
16 -10 8 0 13 4 10 9 -4 5 -1 11 6 13 6 2 12 11 14 20 1 13 -4 14 -32 8 -19
-5 -34 -4 -34 1 0 5 -8 9 -17 9 -15 0 -16 2 -3 10 13 9 13 10 0 10 -13 0 -13
1 0 10 8 5 11 10 5 10 -5 0 -16 -4 -23 -9z M1140 560 c0 -5 5 -10 10 -10 6 0
10 5 10 10 0 6 -4 10 -10 10 -5 0 -10 -4 -10 -10z M1353 554 c0 -16 6 -17 25
-5 11 6 9 9 -5 13 -12 3 -20 0 -20 -8z M570 555 c0 -3 2 -5 5 -5 3 0 5 2 5 5
0 3 -2 5 -5 5 -3 0 -5 -2 -5 -5z M1036 545 c-17 -13 -16 -16 19 -47 41 -36
183 -114 192 -105 3 3 -12 13 -33 22 -31 13 -36 18 -24 25 12 8 11 10 -5 10
-17 0 -17 2 -5 10 13 9 13 11 0 20 -13 9 -13 11 0 20 8 5 10 10 5 10 -6 0 -20
-7 -32 -15 -21 -15 -23 -14 -29 8 -4 19 -11 24 -27 20 -18 -4 -19 -3 -7 6 13
9 11 11 -7 11 -12 0 -23 4 -25 9 -1 5 -11 3 -22 -4z m84 -70 c0 -3 -2 -5 -5
-5 -3 0 -5 2 -5 5 0 3 2 5 5 5 3 0 5 -2 5 -5z M496 493 c-13 -21 -27 -49 -30
-63 -5 -17 0 -14 14 12 12 22 25 35 33 32 10 -3 14 4 14 26 0 38 -2 38 -31 -7z
m24 -8 c0 -3 -2 -5 -5 -5 -3 0 -5 2 -5 5 0 3 2 5 5 5 3 0 5 -2 5 -5z M544 518
c-4 -7 -3 -8 4 -4 7 4 12 9 12 12 0 8 -9 4 -16 -8z M610 525 c0 -3 2 -5 5 -5
3 0 5 2 5 5 0 3 -2 5 -5 5 -3 0 -5 -2 -5 -5z M2380 525 c0 -3 2 -5 5 -5 3 0 5
2 5 5 0 3 -2 5 -5 5 -3 0 -5 -2 -5 -5z M1230 510 c0 -7 3 -10 7 -7 3 4 3 10 0
14 -4 3 -7 0 -7 -7z M1641 511 c-8 -5 -9 -11 -3 -15 5 -3 12 1 16 9 6 17 6 18
-13 6z M802 457 c-18 -29 -32 -56 -32 -59 0 -4 -13 -35 -29 -70 -29 -64 -61
-151 -61 -168 0 -12 52 7 63 23 5 7 5 2 2 -12 -6 -20 -4 -23 10 -17 10 3 24 1
31 -5 11 -9 14 -7 14 8 0 10 6 25 12 31 10 10 8 14 -10 18 -22 6 -31 24 -11
24 6 0 8 9 4 22 -6 16 -4 20 9 15 8 -3 18 -2 22 4 3 6 -4 13 -16 16 -22 6 -22
7 -4 20 18 13 18 15 2 24 -17 9 -16 12 7 34 24 25 41 33 30 15 -3 -5 -2 -10 4
-10 6 0 13 11 16 25 3 14 7 36 10 50 4 20 2 23 -12 18 -10 -4 -14 -2 -10 4 8
12 -1 43 -12 43 -4 0 -21 -24 -39 -53z m53 -17 c3 -5 4 -10 1 -10 -3 0 -8 5
-11 10 -3 6 -4 10 -1 10 3 0 8 -4 11 -10z m-85 -164 c0 -3 -4 -8 -10 -11 -5
-3 -10 -1 -10 4 0 6 5 11 10 11 6 0 10 -2 10 -4z m-13 -53 c-4 -3 -7 0 -7 7 0
7 3 10 7 7 3 -4 3 -10 0 -14z m-27 -28 c0 -3 -2 -5 -5 -5 -3 0 -5 2 -5 5 0 3
2 5 5 5 3 0 5 -2 5 -5z M1670 495 c0 -3 2 -5 5 -5 3 0 5 2 5 5 0 3 -2 5 -5 5
-3 0 -5 -2 -5 -5z M1215 470 c3 -5 10 -10 16 -10 5 0 9 5 9 10 0 6 -7 10 -16
10 -8 0 -12 -4 -9 -10z M2885 470 c-3 -5 1 -10 10 -10 9 0 13 5 10 10 -3 6 -8
10 -10 10 -2 0 -7 -4 -10 -10z M560 460 c0 -7 3 -10 7 -7 3 4 3 10 0 14 -4 3
-7 0 -7 -7z M1440 465 c0 -3 2 -5 5 -5 3 0 5 2 5 5 0 3 -2 5 -5 5 -3 0 -5 -2
-5 -5z M1658 463 c7 -3 16 -2 19 1 4 3 -2 6 -13 5 -11 0 -14 -3 -6 -6z M1680
445 c0 -3 2 -5 5 -5 3 0 5 2 5 5 0 3 -2 5 -5 5 -3 0 -5 -2 -5 -5z M2905 440
c-3 -5 1 -10 10 -10 9 0 13 5 10 10 -3 6 -8 10 -10 10 -2 0 -7 -4 -10 -10z
M141 426 c-20 -23 -44 -119 -42 -164 2 -30 -2 -44 -13 -48 -9 -3 -13 -10 -10
-16 3 -5 -2 -18 -12 -29 -16 -17 -16 -19 -1 -19 13 0 17 -10 18 -45 1 -25 3
-49 4 -55 1 -5 3 -20 4 -32 2 -32 18 -10 24 32 3 19 12 68 20 108 13 66 13 72
-2 72 -15 1 -15 1 1 10 11 7 18 30 23 78 3 37 9 79 11 95 6 29 -6 36 -25 13z
M255 395 c-10 -24 -14 -48 -11 -53 3 -6 -1 -12 -9 -16 -19 -7 -20 -56 -1 -56
7 0 19 7 26 15 10 12 16 13 24 5 8 -8 7 -14 -4 -21 -11 -8 -9 -9 10 -3 14 4
26 10 28 15 6 16 52 -14 53 -35 0 -20 1 -20 11 2 15 31 30 28 18 -4 -13 -33
-12 -44 1 -20 8 13 13 15 19 6 5 -7 16 12 29 51 24 72 26 83 10 73 -9 -5 -10
1 -5 22 11 46 -12 7 -25 -44 -6 -23 -15 -45 -20 -48 -13 -8 -11 6 11 65 11 30
18 56 16 59 -2 2 -21 2 -42 0 -38 -4 -38 -4 -14 -15 16 -8 19 -12 9 -12 -30
-2 -79 11 -74 19 9 15 -5 36 -25 37 -14 1 -23 -10 -35 -42z m35 -30 c0 -3 -2
-5 -5 -5 -3 0 -5 2 -5 5 0 3 2 5 5 5 3 0 5 -2 5 -5z m68 -1 c17 -5 22 -13 20
-36 -2 -28 -4 -29 -38 -23 -66 12 -76 16 -57 27 10 5 17 16 17 23 0 16 20 19
58 9z m84 -73 c-10 -27 -20 -47 -23 -45 -8 5 23 94 32 94 4 0 0 -22 -9 -49z
m-192 -6 c0 -3 -2 -5 -5 -5 -3 0 -5 2 -5 5 0 3 2 5 5 5 3 0 5 -2 5 -5z M305
341 c-3 -5 -1 -12 5 -16 5 -3 10 1 10 9 0 18 -6 21 -15 7z M490 435 c0 -3 2
-5 5 -5 3 0 5 2 5 5 0 3 -2 5 -5 5 -3 0 -5 -2 -5 -5z M1403 433 c4 -3 10 -3
14 0 3 4 0 7 -7 7 -7 0 -10 -3 -7 -7z M2850 435 c0 -3 2 -5 5 -5 3 0 5 2 5 5
0 3 -2 5 -5 5 -3 0 -5 -2 -5 -5z M553 423 c4 -3 10 -3 14 0 3 4 0 7 -7 7 -7 0
-10 -3 -7 -7z M881 403 c-7 -18 -11 -38 -8 -45 6 -17 29 40 25 61 -2 10 -8 4
-17 -16z M710 415 c0 -3 2 -5 5 -5 3 0 5 2 5 5 0 3 -2 5 -5 5 -3 0 -5 -2 -5
-5z M2653 403 c4 -3 10 -3 14 0 3 4 0 7 -7 7 -7 0 -10 -3 -7 -7z M2910 405 c0
-3 2 -5 5 -5 3 0 5 2 5 5 0 3 -2 5 -5 5 -3 0 -5 -2 -5 -5z M700 395 c0 -3 2
-5 5 -5 3 0 5 2 5 5 0 3 -2 5 -5 5 -3 0 -5 -2 -5 -5z M26 331 c-32 -50 -36
-111 -7 -111 15 0 20 13 30 71 6 40 10 74 7 76 -2 3 -16 -13 -30 -36z M895
338 c-33 -81 -67 -199 -61 -215 4 -10 10 -13 14 -8 8 12 42 12 60 2 6 -5 12
-4 12 2 0 20 18 11 25 -11 8 -22 8 -22 12 5 2 15 9 25 14 22 5 -4 9 -2 9 2 0
15 -23 33 -42 33 -12 0 -18 7 -18 21 0 11 5 17 10 14 6 -4 10 10 10 34 0 23
-4 41 -8 41 -7 0 -10 9 -15 65 -3 32 -5 32 -22 -7z m15 -23 c0 -3 -2 -5 -5 -5
-3 0 -5 2 -5 5 0 3 2 5 5 5 3 0 5 -2 5 -5z m0 -30 c0 -3 -2 -5 -5 -5 -3 0 -5
2 -5 5 0 3 2 5 5 5 3 0 5 -2 5 -5z m-3 -72 c-3 -10 -5 -4 -5 12 0 17 2 24 5
18 2 -7 2 -21 0 -30z m-10 -70 c-4 -3 -7 0 -7 7 0 7 3 10 7 7 3 -4 3 -10 0
-14z M580 355 c0 -3 2 -5 5 -5 3 0 5 2 5 5 0 3 -2 5 -5 5 -3 0 -5 -2 -5 -5z
M860 330 c0 -7 3 -10 7 -7 3 4 3 10 0 14 -4 3 -7 0 -7 -7z M850 305 c0 -3 2
-5 5 -5 3 0 5 2 5 5 0 3 -2 5 -5 5 -3 0 -5 -2 -5 -5z M70 285 c0 -3 2 -5 5 -5
3 0 5 2 5 5 0 3 -2 5 -5 5 -3 0 -5 -2 -5 -5z M320 255 c0 -3 2 -5 5 -5 3 0 5
2 5 5 0 3 -2 5 -5 5 -3 0 -5 -2 -5 -5z M345 250 c3 -5 8 -10 11 -10 2 0 4 5 4
10 0 6 -5 10 -11 10 -5 0 -7 -4 -4 -10z M199 230 c-2 -13 -4 -21 -12 -40 -6
-16 -24 -102 -33 -157 -5 -30 -3 -33 20 -33 26 0 30 9 26 57 -1 13 7 27 19 35
12 7 21 21 21 32 0 22 12 14 18 -12 3 -9 4 -39 4 -65 l-1 -48 37 3 c34 3 37 5
35 31 -2 25 0 27 13 16 13 -11 15 -10 13 2 -5 23 12 80 22 74 14 -9 35 43 22
56 -17 17 -31 3 -38 -39 -7 -43 -25 -79 -25 -51 0 9 6 37 14 62 14 47 4 76
-15 46 -6 -10 -9 -11 -9 -1 0 6 -10 12 -22 12 -19 0 -20 -2 -8 -10 12 -8 11
-10 -7 -10 -25 0 -39 16 -21 24 7 4 -3 4 -22 1 -21 -3 -30 -2 -22 4 11 6 10
10 -3 15 -22 8 -25 8 -26 -4z m110 -56 c10 -9 -56 -3 -69 7 -11 7 -4 8 25 3
22 -4 42 -8 44 -10z m82 -21 c-12 -20 -14 -14 -5 12 4 9 9 14 11 11 3 -2 0
-13 -6 -23z m-51 12 c0 -3 -2 -5 -5 -5 -3 0 -5 2 -5 5 0 3 2 5 5 5 3 0 5 -2 5
-5z m-153 -92 c-4 -3 -7 0 -7 7 0 7 3 10 7 7 3 -4 3 -10 0 -14z m108 -22 c-3
-6 -11 -11 -17 -11 -6 0 -6 6 2 15 14 17 26 13 15 -4z m15 -16 c0 -3 -2 -5 -5
-5 -3 0 -5 2 -5 5 0 3 2 5 5 5 3 0 5 -2 5 -5z M610 219 c0 -12 5 -19 12 -17
18 6 20 25 3 31 -10 5 -15 0 -15 -14z M1150 230 c0 -5 7 -10 16 -10 8 0 12 5
9 10 -3 6 -10 10 -16 10 -5 0 -9 -4 -9 -10z M160 225 c0 -3 2 -5 5 -5 3 0 5 2
5 5 0 3 -2 5 -5 5 -3 0 -5 -2 -5 -5z M810 225 c0 -3 2 -5 5 -5 3 0 5 2 5 5 0
3 -2 5 -5 5 -3 0 -5 -2 -5 -5z M153 193 c4 -3 10 -3 14 0 3 4 0 7 -7 7 -7 0
-10 -3 -7 -7z M1503 163 c4 -3 10 -3 14 0 3 4 0 7 -7 7 -7 0 -10 -3 -7 -7z
M435 150 c-4 -6 3 -10 14 -10 25 0 27 6 6 13 -8 4 -17 2 -20 -3z M0 140 c0 -7
3 -10 7 -7 3 4 3 10 0 14 -4 3 -7 0 -7 -7z M570 145 c0 -3 2 -5 5 -5 3 0 5 2
5 5 0 3 -2 5 -5 5 -3 0 -5 -2 -5 -5z M674 124 c3 -9 2 -12 -4 -9 -10 6 -33
-37 -45 -88 l-7 -27 70 0 70 0 16 47 c20 59 20 60 -4 66 -22 6 -28 -8 -7 -16
9 -4 9 -6 -1 -6 -7 -1 -10 -6 -7 -12 5 -7 -5 -8 -32 -3 -52 9 -66 25 -17 18
30 -3 34 -2 18 5 -12 5 -24 16 -27 25 -4 9 -11 16 -18 16 -6 0 -8 -7 -5 -16z
m36 -79 c0 -3 -2 -5 -5 -5 -3 0 -5 2 -5 5 0 3 2 5 5 5 3 0 5 -2 5 -5z M20 115
c-7 -74 -6 -90 5 -102 18 -18 62 -18 47 0 -6 7 -13 32 -14 55 -2 24 -8 42 -15
42 -6 0 -14 6 -16 13 -3 7 -6 3 -7 -8z M430 120 c0 -5 5 -10 11 -10 5 0 7 5 4
10 -3 6 -8 10 -11 10 -2 0 -4 -4 -4 -10z M710 125 c0 -3 2 -5 5 -5 3 0 5 2 5
5 0 3 -2 5 -5 5 -3 0 -5 -2 -5 -5z M630 105 c0 -3 2 -5 5 -5 3 0 5 2 5 5 0 3
-2 5 -5 5 -3 0 -5 -2 -5 -5z M805 58 c-8 -28 -15 -53 -15 -55 0 -2 35 -3 79
-3 73 0 79 2 85 23 8 31 7 37 -5 37 -5 0 -7 -5 -4 -10 3 -6 -1 -10 -10 -10 -9
0 -13 5 -9 11 8 14 -14 29 -33 22 -7 -3 -10 -10 -6 -17 4 -6 -2 -4 -13 4 -29
22 -30 24 -13 18 9 -4 16 -1 16 7 0 7 -6 11 -13 8 -6 -2 -15 0 -19 6 -13 22
-25 10 -40 -41z m70 -18 c13 -6 15 -9 5 -9 -8 0 -22 4 -30 9 -18 12 -2 12 25
0z m55 -20 c0 -5 -2 -10 -4 -10 -3 0 -8 5 -11 10 -3 6 -1 10 4 10 6 0 11 -4
11 -10z M2540 101 c0 -5 7 -11 15 -15 8 -3 15 -1 15 3 0 5 -7 11 -15 15 -8 3
-15 1 -15 -3z M420 92 c0 -4 9 -8 20 -9 11 -1 18 2 15 8 -7 11 -35 12 -35 1z
M620 80 c0 -7 3 -10 7 -7 3 4 3 10 0 14 -4 3 -7 0 -7 -7z M2520 85 c0 -3 2 -5
5 -5 3 0 5 2 5 5 0 3 -2 5 -5 5 -3 0 -5 -2 -5 -5z M2847 69 c7 -7 15 -10 18
-7 3 3 -2 9 -12 12 -14 6 -15 5 -6 -5z M210 54 c0 -8 5 -12 10 -9 6 4 8 11 5
16 -9 14 -15 11 -15 -7z M440 65 c0 -3 2 -5 5 -5 3 0 5 2 5 5 0 3 -2 5 -5 5
-3 0 -5 -2 -5 -5z M974 35 c-6 -19 -7 -35 -3 -35 10 0 23 44 17 60 -1 5 -8 -6
-14 -25z M2560 65 c0 -3 2 -5 5 -5 3 0 5 2 5 5 0 3 -2 5 -5 5 -3 0 -5 -2 -5
-5z M2874 44 c-17 -12 -17 -13 -1 -8 9 3 17 3 17 -1 0 -4 -8 -14 -17 -21 -16
-12 -14 -13 19 -14 32 0 36 3 31 17 -13 35 -29 43 -49 27z M120 45 c0 -3 2 -5
5 -5 3 0 5 2 5 5 0 3 -2 5 -5 5 -3 0 -5 -2 -5 -5z M437 44 c-4 -4 -7 -17 -7
-28 1 -19 1 -20 11 -3 11 19 8 43 -4 31z M2780 40 c-13 -9 -12 -12 4 -25 25
-19 42 -19 26 0 -6 8 -9 19 -5 25 8 13 -5 13 -25 0z M516 24 c-9 -24 -2 -26
12 -4 7 11 8 20 3 20 -5 0 -12 -7 -15 -16z M597 21 c-4 -17 -3 -21 5 -13 5 5
8 16 6 23 -3 8 -7 3 -11 -10z M220 16 c0 -9 5 -16 10 -16 6 0 10 4 10 9 0 6
-4 13 -10 16 -5 3 -10 -1 -10 -9z M2485 10 c-4 -6 10 -10 34 -10 23 0 41 5 41
10 0 6 -15 10 -34 10 -19 0 -38 -4 -41 -10z M2840 15 c0 -3 2 -5 5 -5 3 0 5 2
5 5 0 3 -2 5 -5 5 -3 0 -5 -2 -5 -5z"/>
</g>
</svg>
